%
M48
M72
T01C0.0236
T02C0.0240
T03C0.0354
T04C0.0400
T05C0.0866
%
T01
X5599Y1175
X14599Y2675
X14849Y3050
X15099Y3425
X15349Y3800
X15599Y4175
X15849Y4550
X16099Y4925
X19099Y5800
X18724Y6050
X18349Y6300
X17974Y6550
X15349Y6800
X14974Y6425
X14474Y6425
X12349Y7050
X12724Y7300
X5974Y6175
X4974Y4800
X4474Y4800
X2474Y4800
X6974Y4800
X8224Y4800
X1974Y7050
X2974Y9800
X3974Y11425
X3474Y11925
X8466Y11925
X8958Y11425
X13466Y11925
X13958Y11425
X18466Y11925
X18974Y11425
X23466Y11925
X23474Y11925
X23958Y11425
X28474Y11925
X28974Y11425
X33466Y11925
X33958Y11425
X32974Y9800
X32474Y8800
X34349Y8425
X36474Y7933
X36474Y7925
X35974Y7441
X35974Y7425
X31849Y6300
X29599Y5800
X31849Y5425
X29599Y6800
X29599Y7300
X29599Y8300
X27974Y9800
X22974Y9800
X19599Y8675
X20474Y8300
X18974Y9800
X18474Y9800
X17974Y9800
X12974Y9800
X7974Y9800
X20724Y6175
X21224Y6050
X21724Y5925
X22224Y5800
X22724Y5675
X24349Y6175
X26849Y6175
X25849Y4800
X25349Y4800
X23349Y4800
X22974Y4425
X22599Y4050
X35974Y2441
X36474Y2933
X34349Y2925
X34349Y3425
T02
X10599Y4550
X10599Y6550
T03
X24256Y2194
X25043Y2194
X25830Y2194
X26618Y2194
X27405Y2194
X28193Y2194
X28193Y1406
X27405Y1406
X26618Y1406
X25830Y1406
X25043Y1406
X24256Y1406
T04
X1474Y4175
X1474Y3175
X1474Y2175
X1474Y1175
X5599Y2050
X6599Y2050
X7599Y2050
X7599Y3050
X6599Y3050
X5599Y3050
T05
X974Y7925
X33849Y1175
X36474Y11925
M30
