G75*
%MOIN*%
%OFA0B0*%
%FSLAX24Y24*%
%IPPOS*%
%LPD*%
%AMOC8*
5,1,8,0,0,1.08239X$1,22.5*
%
%ADD10C,0.0000*%
%ADD11R,0.0118X0.0591*%
%ADD12R,0.0591X0.0118*%
%ADD13R,0.0512X0.0591*%
%ADD14R,0.0591X0.0512*%
%ADD15R,0.0315X0.0787*%
%ADD16R,0.0827X0.1181*%
%ADD17R,0.0787X0.0315*%
%ADD18R,0.1181X0.0827*%
%ADD19R,0.0800X0.0260*%
%ADD20R,0.0260X0.0800*%
%ADD21R,0.0472X0.0472*%
D10*
X000224Y000425D02*
X000224Y012675D01*
X037224Y012675D01*
X037224Y000425D01*
X000224Y000425D01*
X000541Y007925D02*
X000543Y007966D01*
X000549Y008007D01*
X000559Y008047D01*
X000572Y008086D01*
X000589Y008123D01*
X000610Y008159D01*
X000634Y008193D01*
X000661Y008224D01*
X000690Y008252D01*
X000723Y008278D01*
X000757Y008300D01*
X000794Y008319D01*
X000832Y008334D01*
X000872Y008346D01*
X000912Y008354D01*
X000953Y008358D01*
X000995Y008358D01*
X001036Y008354D01*
X001076Y008346D01*
X001116Y008334D01*
X001154Y008319D01*
X001190Y008300D01*
X001225Y008278D01*
X001258Y008252D01*
X001287Y008224D01*
X001314Y008193D01*
X001338Y008159D01*
X001359Y008123D01*
X001376Y008086D01*
X001389Y008047D01*
X001399Y008007D01*
X001405Y007966D01*
X001407Y007925D01*
X001405Y007884D01*
X001399Y007843D01*
X001389Y007803D01*
X001376Y007764D01*
X001359Y007727D01*
X001338Y007691D01*
X001314Y007657D01*
X001287Y007626D01*
X001258Y007598D01*
X001225Y007572D01*
X001191Y007550D01*
X001154Y007531D01*
X001116Y007516D01*
X001076Y007504D01*
X001036Y007496D01*
X000995Y007492D01*
X000953Y007492D01*
X000912Y007496D01*
X000872Y007504D01*
X000832Y007516D01*
X000794Y007531D01*
X000758Y007550D01*
X000723Y007572D01*
X000690Y007598D01*
X000661Y007626D01*
X000634Y007657D01*
X000610Y007691D01*
X000589Y007727D01*
X000572Y007764D01*
X000559Y007803D01*
X000549Y007843D01*
X000543Y007884D01*
X000541Y007925D01*
X033416Y001175D02*
X033418Y001216D01*
X033424Y001257D01*
X033434Y001297D01*
X033447Y001336D01*
X033464Y001373D01*
X033485Y001409D01*
X033509Y001443D01*
X033536Y001474D01*
X033565Y001502D01*
X033598Y001528D01*
X033632Y001550D01*
X033669Y001569D01*
X033707Y001584D01*
X033747Y001596D01*
X033787Y001604D01*
X033828Y001608D01*
X033870Y001608D01*
X033911Y001604D01*
X033951Y001596D01*
X033991Y001584D01*
X034029Y001569D01*
X034065Y001550D01*
X034100Y001528D01*
X034133Y001502D01*
X034162Y001474D01*
X034189Y001443D01*
X034213Y001409D01*
X034234Y001373D01*
X034251Y001336D01*
X034264Y001297D01*
X034274Y001257D01*
X034280Y001216D01*
X034282Y001175D01*
X034280Y001134D01*
X034274Y001093D01*
X034264Y001053D01*
X034251Y001014D01*
X034234Y000977D01*
X034213Y000941D01*
X034189Y000907D01*
X034162Y000876D01*
X034133Y000848D01*
X034100Y000822D01*
X034066Y000800D01*
X034029Y000781D01*
X033991Y000766D01*
X033951Y000754D01*
X033911Y000746D01*
X033870Y000742D01*
X033828Y000742D01*
X033787Y000746D01*
X033747Y000754D01*
X033707Y000766D01*
X033669Y000781D01*
X033633Y000800D01*
X033598Y000822D01*
X033565Y000848D01*
X033536Y000876D01*
X033509Y000907D01*
X033485Y000941D01*
X033464Y000977D01*
X033447Y001014D01*
X033434Y001053D01*
X033424Y001093D01*
X033418Y001134D01*
X033416Y001175D01*
X036041Y011925D02*
X036043Y011966D01*
X036049Y012007D01*
X036059Y012047D01*
X036072Y012086D01*
X036089Y012123D01*
X036110Y012159D01*
X036134Y012193D01*
X036161Y012224D01*
X036190Y012252D01*
X036223Y012278D01*
X036257Y012300D01*
X036294Y012319D01*
X036332Y012334D01*
X036372Y012346D01*
X036412Y012354D01*
X036453Y012358D01*
X036495Y012358D01*
X036536Y012354D01*
X036576Y012346D01*
X036616Y012334D01*
X036654Y012319D01*
X036690Y012300D01*
X036725Y012278D01*
X036758Y012252D01*
X036787Y012224D01*
X036814Y012193D01*
X036838Y012159D01*
X036859Y012123D01*
X036876Y012086D01*
X036889Y012047D01*
X036899Y012007D01*
X036905Y011966D01*
X036907Y011925D01*
X036905Y011884D01*
X036899Y011843D01*
X036889Y011803D01*
X036876Y011764D01*
X036859Y011727D01*
X036838Y011691D01*
X036814Y011657D01*
X036787Y011626D01*
X036758Y011598D01*
X036725Y011572D01*
X036691Y011550D01*
X036654Y011531D01*
X036616Y011516D01*
X036576Y011504D01*
X036536Y011496D01*
X036495Y011492D01*
X036453Y011492D01*
X036412Y011496D01*
X036372Y011504D01*
X036332Y011516D01*
X036294Y011531D01*
X036258Y011550D01*
X036223Y011572D01*
X036190Y011598D01*
X036161Y011626D01*
X036134Y011657D01*
X036110Y011691D01*
X036089Y011727D01*
X036072Y011764D01*
X036059Y011803D01*
X036049Y011843D01*
X036043Y011884D01*
X036041Y011925D01*
D11*
X019211Y008075D03*
X019014Y008075D03*
X018818Y008075D03*
X018621Y008075D03*
X018424Y008075D03*
X018227Y008075D03*
X018030Y008075D03*
X017833Y008075D03*
X017636Y008075D03*
X017440Y008075D03*
X017243Y008075D03*
X017046Y008075D03*
X016849Y008075D03*
X016652Y008075D03*
X016455Y008075D03*
X016258Y008075D03*
X016062Y008075D03*
X015865Y008075D03*
X015668Y008075D03*
X015471Y008075D03*
X015274Y008075D03*
X015077Y008075D03*
X014881Y008075D03*
X014684Y008075D03*
X014487Y008075D03*
X014487Y001775D03*
X014684Y001775D03*
X014881Y001775D03*
X015077Y001775D03*
X015274Y001775D03*
X015471Y001775D03*
X015668Y001775D03*
X015865Y001775D03*
X016062Y001775D03*
X016258Y001775D03*
X016455Y001775D03*
X016652Y001775D03*
X016849Y001775D03*
X017046Y001775D03*
X017243Y001775D03*
X017440Y001775D03*
X017636Y001775D03*
X017833Y001775D03*
X018030Y001775D03*
X018227Y001775D03*
X018424Y001775D03*
X018621Y001775D03*
X018818Y001775D03*
X019014Y001775D03*
X019211Y001775D03*
D12*
X019999Y002563D03*
X019999Y002760D03*
X019999Y002956D03*
X019999Y003153D03*
X019999Y003350D03*
X019999Y003547D03*
X019999Y003744D03*
X019999Y003941D03*
X019999Y004138D03*
X019999Y004334D03*
X019999Y004531D03*
X019999Y004728D03*
X019999Y004925D03*
X019999Y005122D03*
X019999Y005319D03*
X019999Y005516D03*
X019999Y005712D03*
X019999Y005909D03*
X019999Y006106D03*
X019999Y006303D03*
X019999Y006500D03*
X019999Y006697D03*
X019999Y006894D03*
X019999Y007090D03*
X019999Y007287D03*
X013699Y007287D03*
X013699Y007090D03*
X013699Y006894D03*
X013699Y006697D03*
X013699Y006500D03*
X013699Y006303D03*
X013699Y006106D03*
X013699Y005909D03*
X013699Y005712D03*
X013699Y005516D03*
X013699Y005319D03*
X013699Y005122D03*
X013699Y004925D03*
X013699Y004728D03*
X013699Y004531D03*
X013699Y004334D03*
X013699Y004138D03*
X013699Y003941D03*
X013699Y003744D03*
X013699Y003547D03*
X013699Y003350D03*
X013699Y003153D03*
X013699Y002956D03*
X013699Y002760D03*
X013699Y002563D03*
D13*
X011559Y001925D03*
X010889Y001925D03*
X003559Y002175D03*
X002889Y002175D03*
X002889Y003050D03*
X003559Y003050D03*
X031764Y002675D03*
X032434Y002675D03*
X032434Y001925D03*
X031764Y001925D03*
X031764Y003425D03*
X032434Y003425D03*
D14*
X021599Y003465D03*
X021599Y004135D03*
X021599Y006965D03*
X021599Y007635D03*
X009099Y006760D03*
X009099Y006090D03*
X009099Y005010D03*
X009099Y004340D03*
D15*
X008958Y010441D03*
X008466Y010441D03*
X007974Y010441D03*
X007482Y010441D03*
X006990Y010441D03*
X003958Y010441D03*
X003466Y010441D03*
X002974Y010441D03*
X002482Y010441D03*
X001990Y010441D03*
X011990Y010441D03*
X012482Y010441D03*
X012974Y010441D03*
X013466Y010441D03*
X013958Y010441D03*
X016990Y010441D03*
X017482Y010441D03*
X017974Y010441D03*
X018466Y010441D03*
X018958Y010441D03*
X021990Y010441D03*
X022482Y010441D03*
X022974Y010441D03*
X023466Y010441D03*
X023958Y010441D03*
X026990Y010441D03*
X027482Y010441D03*
X027974Y010441D03*
X028466Y010441D03*
X028958Y010441D03*
X031990Y010441D03*
X032482Y010441D03*
X032974Y010441D03*
X033466Y010441D03*
X033958Y010441D03*
D16*
X034943Y011671D03*
X031006Y011671D03*
X029943Y011671D03*
X026006Y011671D03*
X024943Y011671D03*
X021006Y011671D03*
X019943Y011671D03*
X016006Y011671D03*
X014943Y011671D03*
X011006Y011671D03*
X009943Y011671D03*
X006006Y011671D03*
X004943Y011671D03*
X001006Y011671D03*
D17*
X034990Y009409D03*
X034990Y008917D03*
X034990Y008425D03*
X034990Y007933D03*
X034990Y007441D03*
X034990Y004409D03*
X034990Y003917D03*
X034990Y003425D03*
X034990Y002933D03*
X034990Y002441D03*
D18*
X036220Y001456D03*
X036220Y005394D03*
X036220Y006456D03*
X036220Y010394D03*
D19*
X032684Y008300D03*
X032684Y007800D03*
X032684Y007300D03*
X032684Y006800D03*
X032684Y006300D03*
X032684Y005800D03*
X032684Y005300D03*
X032684Y004800D03*
X030264Y004800D03*
X030264Y005300D03*
X030264Y005800D03*
X030264Y006300D03*
X030264Y006800D03*
X030264Y007300D03*
X030264Y007800D03*
X030264Y008300D03*
D20*
X027849Y007885D03*
X027349Y007885D03*
X026849Y007885D03*
X026349Y007885D03*
X025849Y007885D03*
X025349Y007885D03*
X024849Y007885D03*
X024349Y007885D03*
X024349Y005465D03*
X024849Y005465D03*
X025349Y005465D03*
X025849Y005465D03*
X026349Y005465D03*
X026849Y005465D03*
X027349Y005465D03*
X027849Y005465D03*
X006974Y005465D03*
X006474Y005465D03*
X005974Y005465D03*
X005474Y005465D03*
X004974Y005465D03*
X004474Y005465D03*
X003974Y005465D03*
X003474Y005465D03*
X003474Y007885D03*
X003974Y007885D03*
X004474Y007885D03*
X004974Y007885D03*
X005474Y007885D03*
X005974Y007885D03*
X006474Y007885D03*
X006974Y007885D03*
D21*
X009436Y001925D03*
X010262Y001925D03*
X030311Y001925D03*
X031137Y001925D03*
X031137Y002675D03*
X030311Y002675D03*
X030311Y003425D03*
X031137Y003425D03*
M02*
