G75*
%MOIN*%
%OFA0B0*%
%FSLAX24Y24*%
%IPPOS*%
%LPD*%
%AMOC8*
5,1,8,0,0,1.08239X$1,22.5*
%
%ADD10C,0.0000*%
%ADD11R,0.0118X0.0591*%
%ADD12R,0.0591X0.0118*%
%ADD13R,0.0512X0.0591*%
%ADD14C,0.0440*%
%ADD15R,0.0591X0.0512*%
%ADD16R,0.0740X0.0740*%
%ADD17C,0.0740*%
%ADD18R,0.0315X0.0787*%
%ADD19R,0.0827X0.1181*%
%ADD20R,0.0787X0.0315*%
%ADD21R,0.1181X0.0827*%
%ADD22R,0.0800X0.0260*%
%ADD23R,0.0260X0.0800*%
%ADD24R,0.0472X0.0472*%
%ADD25OC8,0.0740*%
%ADD26C,0.0554*%
%ADD27C,0.0160*%
%ADD28C,0.0396*%
%ADD29C,0.0120*%
D10*
X000224Y000425D02*
X000224Y012675D01*
X037224Y012675D01*
X037224Y000425D01*
X000224Y000425D01*
X000541Y007925D02*
X000543Y007966D01*
X000549Y008007D01*
X000559Y008047D01*
X000572Y008086D01*
X000589Y008123D01*
X000610Y008159D01*
X000634Y008193D01*
X000661Y008224D01*
X000690Y008252D01*
X000723Y008278D01*
X000757Y008300D01*
X000794Y008319D01*
X000832Y008334D01*
X000872Y008346D01*
X000912Y008354D01*
X000953Y008358D01*
X000995Y008358D01*
X001036Y008354D01*
X001076Y008346D01*
X001116Y008334D01*
X001154Y008319D01*
X001190Y008300D01*
X001225Y008278D01*
X001258Y008252D01*
X001287Y008224D01*
X001314Y008193D01*
X001338Y008159D01*
X001359Y008123D01*
X001376Y008086D01*
X001389Y008047D01*
X001399Y008007D01*
X001405Y007966D01*
X001407Y007925D01*
X001405Y007884D01*
X001399Y007843D01*
X001389Y007803D01*
X001376Y007764D01*
X001359Y007727D01*
X001338Y007691D01*
X001314Y007657D01*
X001287Y007626D01*
X001258Y007598D01*
X001225Y007572D01*
X001191Y007550D01*
X001154Y007531D01*
X001116Y007516D01*
X001076Y007504D01*
X001036Y007496D01*
X000995Y007492D01*
X000953Y007492D01*
X000912Y007496D01*
X000872Y007504D01*
X000832Y007516D01*
X000794Y007531D01*
X000758Y007550D01*
X000723Y007572D01*
X000690Y007598D01*
X000661Y007626D01*
X000634Y007657D01*
X000610Y007691D01*
X000589Y007727D01*
X000572Y007764D01*
X000559Y007803D01*
X000549Y007843D01*
X000543Y007884D01*
X000541Y007925D01*
X033416Y001175D02*
X033418Y001216D01*
X033424Y001257D01*
X033434Y001297D01*
X033447Y001336D01*
X033464Y001373D01*
X033485Y001409D01*
X033509Y001443D01*
X033536Y001474D01*
X033565Y001502D01*
X033598Y001528D01*
X033632Y001550D01*
X033669Y001569D01*
X033707Y001584D01*
X033747Y001596D01*
X033787Y001604D01*
X033828Y001608D01*
X033870Y001608D01*
X033911Y001604D01*
X033951Y001596D01*
X033991Y001584D01*
X034029Y001569D01*
X034065Y001550D01*
X034100Y001528D01*
X034133Y001502D01*
X034162Y001474D01*
X034189Y001443D01*
X034213Y001409D01*
X034234Y001373D01*
X034251Y001336D01*
X034264Y001297D01*
X034274Y001257D01*
X034280Y001216D01*
X034282Y001175D01*
X034280Y001134D01*
X034274Y001093D01*
X034264Y001053D01*
X034251Y001014D01*
X034234Y000977D01*
X034213Y000941D01*
X034189Y000907D01*
X034162Y000876D01*
X034133Y000848D01*
X034100Y000822D01*
X034066Y000800D01*
X034029Y000781D01*
X033991Y000766D01*
X033951Y000754D01*
X033911Y000746D01*
X033870Y000742D01*
X033828Y000742D01*
X033787Y000746D01*
X033747Y000754D01*
X033707Y000766D01*
X033669Y000781D01*
X033633Y000800D01*
X033598Y000822D01*
X033565Y000848D01*
X033536Y000876D01*
X033509Y000907D01*
X033485Y000941D01*
X033464Y000977D01*
X033447Y001014D01*
X033434Y001053D01*
X033424Y001093D01*
X033418Y001134D01*
X033416Y001175D01*
X036041Y011925D02*
X036043Y011966D01*
X036049Y012007D01*
X036059Y012047D01*
X036072Y012086D01*
X036089Y012123D01*
X036110Y012159D01*
X036134Y012193D01*
X036161Y012224D01*
X036190Y012252D01*
X036223Y012278D01*
X036257Y012300D01*
X036294Y012319D01*
X036332Y012334D01*
X036372Y012346D01*
X036412Y012354D01*
X036453Y012358D01*
X036495Y012358D01*
X036536Y012354D01*
X036576Y012346D01*
X036616Y012334D01*
X036654Y012319D01*
X036690Y012300D01*
X036725Y012278D01*
X036758Y012252D01*
X036787Y012224D01*
X036814Y012193D01*
X036838Y012159D01*
X036859Y012123D01*
X036876Y012086D01*
X036889Y012047D01*
X036899Y012007D01*
X036905Y011966D01*
X036907Y011925D01*
X036905Y011884D01*
X036899Y011843D01*
X036889Y011803D01*
X036876Y011764D01*
X036859Y011727D01*
X036838Y011691D01*
X036814Y011657D01*
X036787Y011626D01*
X036758Y011598D01*
X036725Y011572D01*
X036691Y011550D01*
X036654Y011531D01*
X036616Y011516D01*
X036576Y011504D01*
X036536Y011496D01*
X036495Y011492D01*
X036453Y011492D01*
X036412Y011496D01*
X036372Y011504D01*
X036332Y011516D01*
X036294Y011531D01*
X036258Y011550D01*
X036223Y011572D01*
X036190Y011598D01*
X036161Y011626D01*
X036134Y011657D01*
X036110Y011691D01*
X036089Y011727D01*
X036072Y011764D01*
X036059Y011803D01*
X036049Y011843D01*
X036043Y011884D01*
X036041Y011925D01*
D11*
X019211Y008075D03*
X019014Y008075D03*
X018818Y008075D03*
X018621Y008075D03*
X018424Y008075D03*
X018227Y008075D03*
X018030Y008075D03*
X017833Y008075D03*
X017636Y008075D03*
X017440Y008075D03*
X017243Y008075D03*
X017046Y008075D03*
X016849Y008075D03*
X016652Y008075D03*
X016455Y008075D03*
X016258Y008075D03*
X016062Y008075D03*
X015865Y008075D03*
X015668Y008075D03*
X015471Y008075D03*
X015274Y008075D03*
X015077Y008075D03*
X014881Y008075D03*
X014684Y008075D03*
X014487Y008075D03*
X014487Y001775D03*
X014684Y001775D03*
X014881Y001775D03*
X015077Y001775D03*
X015274Y001775D03*
X015471Y001775D03*
X015668Y001775D03*
X015865Y001775D03*
X016062Y001775D03*
X016258Y001775D03*
X016455Y001775D03*
X016652Y001775D03*
X016849Y001775D03*
X017046Y001775D03*
X017243Y001775D03*
X017440Y001775D03*
X017636Y001775D03*
X017833Y001775D03*
X018030Y001775D03*
X018227Y001775D03*
X018424Y001775D03*
X018621Y001775D03*
X018818Y001775D03*
X019014Y001775D03*
X019211Y001775D03*
D12*
X019999Y002563D03*
X019999Y002760D03*
X019999Y002956D03*
X019999Y003153D03*
X019999Y003350D03*
X019999Y003547D03*
X019999Y003744D03*
X019999Y003941D03*
X019999Y004138D03*
X019999Y004334D03*
X019999Y004531D03*
X019999Y004728D03*
X019999Y004925D03*
X019999Y005122D03*
X019999Y005319D03*
X019999Y005516D03*
X019999Y005712D03*
X019999Y005909D03*
X019999Y006106D03*
X019999Y006303D03*
X019999Y006500D03*
X019999Y006697D03*
X019999Y006894D03*
X019999Y007090D03*
X019999Y007287D03*
X013699Y007287D03*
X013699Y007090D03*
X013699Y006894D03*
X013699Y006697D03*
X013699Y006500D03*
X013699Y006303D03*
X013699Y006106D03*
X013699Y005909D03*
X013699Y005712D03*
X013699Y005516D03*
X013699Y005319D03*
X013699Y005122D03*
X013699Y004925D03*
X013699Y004728D03*
X013699Y004531D03*
X013699Y004334D03*
X013699Y004138D03*
X013699Y003941D03*
X013699Y003744D03*
X013699Y003547D03*
X013699Y003350D03*
X013699Y003153D03*
X013699Y002956D03*
X013699Y002760D03*
X013699Y002563D03*
D13*
X011559Y001925D03*
X010889Y001925D03*
X003559Y002175D03*
X002889Y002175D03*
X002889Y003050D03*
X003559Y003050D03*
X031764Y002675D03*
X032434Y002675D03*
X032434Y001925D03*
X031764Y001925D03*
X031764Y003425D03*
X032434Y003425D03*
D14*
X010819Y004550D02*
X010379Y004550D01*
X010379Y006550D02*
X010819Y006550D01*
D15*
X009099Y006760D03*
X009099Y006090D03*
X009099Y005010D03*
X009099Y004340D03*
X021599Y004135D03*
X021599Y003465D03*
X021599Y006965D03*
X021599Y007635D03*
D16*
X007599Y003050D03*
X001474Y001175D03*
D17*
X001474Y002175D03*
X001474Y003175D03*
X001474Y004175D03*
D18*
X001990Y010441D03*
X002482Y010441D03*
X002974Y010441D03*
X003466Y010441D03*
X003958Y010441D03*
X006990Y010441D03*
X007482Y010441D03*
X007974Y010441D03*
X008466Y010441D03*
X008958Y010441D03*
X011990Y010441D03*
X012482Y010441D03*
X012974Y010441D03*
X013466Y010441D03*
X013958Y010441D03*
X016990Y010441D03*
X017482Y010441D03*
X017974Y010441D03*
X018466Y010441D03*
X018958Y010441D03*
X021990Y010441D03*
X022482Y010441D03*
X022974Y010441D03*
X023466Y010441D03*
X023958Y010441D03*
X026990Y010441D03*
X027482Y010441D03*
X027974Y010441D03*
X028466Y010441D03*
X028958Y010441D03*
X031990Y010441D03*
X032482Y010441D03*
X032974Y010441D03*
X033466Y010441D03*
X033958Y010441D03*
D19*
X034943Y011671D03*
X031006Y011671D03*
X029943Y011671D03*
X026006Y011671D03*
X024943Y011671D03*
X021006Y011671D03*
X019943Y011671D03*
X016006Y011671D03*
X014943Y011671D03*
X011006Y011671D03*
X009943Y011671D03*
X006006Y011671D03*
X004943Y011671D03*
X001006Y011671D03*
D20*
X034990Y009409D03*
X034990Y008917D03*
X034990Y008425D03*
X034990Y007933D03*
X034990Y007441D03*
X034990Y004409D03*
X034990Y003917D03*
X034990Y003425D03*
X034990Y002933D03*
X034990Y002441D03*
D21*
X036220Y001456D03*
X036220Y005394D03*
X036220Y006456D03*
X036220Y010394D03*
D22*
X032684Y008300D03*
X032684Y007800D03*
X032684Y007300D03*
X032684Y006800D03*
X032684Y006300D03*
X032684Y005800D03*
X032684Y005300D03*
X032684Y004800D03*
X030264Y004800D03*
X030264Y005300D03*
X030264Y005800D03*
X030264Y006300D03*
X030264Y006800D03*
X030264Y007300D03*
X030264Y007800D03*
X030264Y008300D03*
D23*
X027849Y007885D03*
X027349Y007885D03*
X026849Y007885D03*
X026349Y007885D03*
X025849Y007885D03*
X025349Y007885D03*
X024849Y007885D03*
X024349Y007885D03*
X024349Y005465D03*
X024849Y005465D03*
X025349Y005465D03*
X025849Y005465D03*
X026349Y005465D03*
X026849Y005465D03*
X027349Y005465D03*
X027849Y005465D03*
X006974Y005465D03*
X006474Y005465D03*
X005974Y005465D03*
X005474Y005465D03*
X004974Y005465D03*
X004474Y005465D03*
X003974Y005465D03*
X003474Y005465D03*
X003474Y007885D03*
X003974Y007885D03*
X004474Y007885D03*
X004974Y007885D03*
X005474Y007885D03*
X005974Y007885D03*
X006474Y007885D03*
X006974Y007885D03*
D24*
X009436Y001925D03*
X010262Y001925D03*
X030311Y001925D03*
X031137Y001925D03*
X031137Y002675D03*
X030311Y002675D03*
X030311Y003425D03*
X031137Y003425D03*
D25*
X007599Y002050D03*
X006599Y002050D03*
X005599Y002050D03*
X005599Y003050D03*
X006599Y003050D03*
D26*
X024256Y002194D03*
X025043Y002194D03*
X025830Y002194D03*
X026618Y002194D03*
X027405Y002194D03*
X028193Y002194D03*
X028193Y001406D03*
X027405Y001406D03*
X026618Y001406D03*
X025830Y001406D03*
X025043Y001406D03*
X024256Y001406D03*
D27*
X024012Y002713D02*
X022224Y000925D01*
X017849Y000925D01*
X017974Y001175D02*
X021974Y001175D01*
X023849Y003050D01*
X029599Y003050D01*
X029974Y002675D01*
X030311Y002675D01*
X031137Y002675D02*
X031764Y002675D01*
X032434Y002675D02*
X034099Y002675D01*
X034349Y002925D01*
X034982Y002925D01*
X034990Y002933D01*
X036474Y002933D01*
X035974Y002441D02*
X034990Y002441D01*
X034990Y003425D02*
X034349Y003425D01*
X034990Y003917D02*
X033482Y003917D01*
X032974Y004425D01*
X031599Y004425D01*
X030724Y005300D01*
X030264Y005300D01*
X030264Y004800D02*
X029224Y004800D01*
X029224Y007800D01*
X029224Y009425D01*
X028958Y009691D01*
X028958Y010441D01*
X028974Y010441D01*
X028974Y011425D01*
X028474Y011925D02*
X028474Y010441D01*
X028466Y010441D01*
X027974Y010441D02*
X027974Y009800D01*
X027482Y009292D02*
X028224Y008550D01*
X028224Y007425D01*
X028232Y007433D01*
X028224Y007425D02*
X027349Y006550D01*
X027349Y005465D01*
X027849Y005465D02*
X027849Y004800D01*
X027474Y004425D01*
X024849Y004425D01*
X024474Y004425D01*
X023724Y005175D01*
X022974Y005175D01*
X022224Y004425D01*
X022224Y003675D01*
X021974Y003425D01*
X021639Y003425D01*
X021599Y003465D01*
X022599Y002300D02*
X023724Y003425D01*
X030311Y003425D01*
X031137Y003425D02*
X031764Y003425D01*
X032434Y003425D02*
X032434Y002675D01*
X032434Y001925D01*
X031764Y001925D02*
X031137Y001925D01*
X030311Y001925D02*
X029974Y001925D01*
X029186Y002713D01*
X024012Y002713D01*
X022599Y002300D02*
X018224Y002300D01*
X016224Y001175D02*
X013224Y001175D01*
X011974Y002425D01*
X009849Y002425D01*
X009436Y002012D01*
X009436Y001925D01*
X008349Y001925D01*
X008224Y002050D01*
X008224Y004800D01*
X008224Y007300D01*
X008599Y007675D01*
X010849Y007675D01*
X010849Y007300D02*
X008724Y007300D01*
X008599Y007175D01*
X008599Y006300D01*
X008849Y006050D01*
X009099Y006050D01*
X009099Y005010D01*
X009764Y004340D02*
X009974Y004550D01*
X010599Y004550D01*
X009764Y004340D02*
X009099Y004340D01*
X007724Y004550D02*
X006974Y003800D01*
X006349Y003800D01*
X005599Y003050D01*
X004849Y003050D01*
X004849Y001175D01*
X005349Y000675D01*
X025886Y000675D01*
X026618Y001406D01*
X024849Y004425D02*
X024849Y005465D01*
X024849Y005675D01*
X024349Y005465D02*
X024349Y006175D01*
X025099Y007175D02*
X026349Y005925D01*
X026349Y005465D01*
X025849Y005465D02*
X025849Y004800D01*
X025349Y004800D02*
X025349Y005465D01*
X026849Y005465D02*
X026849Y006175D01*
X025099Y007175D02*
X024349Y007175D01*
X022599Y007175D01*
X022099Y007675D01*
X021639Y007675D01*
X021599Y007635D01*
X021599Y008175D01*
X021099Y008675D01*
X019599Y008675D01*
X018724Y008925D02*
X013099Y008925D01*
X012349Y008175D01*
X012349Y007050D01*
X012724Y007300D02*
X012724Y008050D01*
X013349Y008675D01*
X018599Y008675D01*
X017599Y009175D02*
X021599Y009175D01*
X022099Y008675D01*
X025599Y008675D01*
X025849Y008425D01*
X025849Y007885D01*
X026349Y007885D02*
X026349Y008425D01*
X025849Y008925D01*
X022349Y008925D01*
X021849Y009425D01*
X017849Y009425D01*
X017482Y009792D01*
X017482Y010441D01*
X016990Y010441D02*
X016990Y009784D01*
X017599Y009175D01*
X017974Y009800D02*
X017974Y010441D01*
X018466Y010441D02*
X018466Y009808D01*
X018474Y009800D01*
X018958Y009816D02*
X018974Y009800D01*
X018958Y009816D02*
X018958Y010441D01*
X018974Y010441D01*
X018974Y011425D01*
X018466Y011925D02*
X018466Y010441D01*
X021990Y010441D02*
X021990Y009784D01*
X022599Y009175D01*
X026099Y009175D01*
X026849Y008425D01*
X026849Y007885D01*
X027349Y007885D02*
X027349Y008425D01*
X026349Y009425D01*
X022849Y009425D01*
X022482Y009792D01*
X022482Y010441D01*
X022974Y010441D02*
X022974Y009800D01*
X023466Y010441D02*
X023474Y010441D01*
X023474Y011925D01*
X023466Y011925D01*
X023466Y010441D01*
X023958Y010441D02*
X023958Y011425D01*
X026990Y010441D02*
X026990Y009284D01*
X027849Y008425D01*
X027849Y007885D01*
X029224Y007800D02*
X030264Y007800D01*
X030264Y008300D02*
X029599Y008300D01*
X029599Y007300D02*
X030264Y007300D01*
X030264Y006800D02*
X029599Y006800D01*
X030264Y006300D02*
X030974Y006300D01*
X031849Y005425D01*
X032684Y005300D02*
X033099Y005300D01*
X033974Y006175D01*
X033974Y008550D01*
X034341Y008917D01*
X034990Y008917D01*
X034333Y009409D02*
X033724Y008800D01*
X033724Y006425D01*
X033099Y005800D01*
X032684Y005800D01*
X032684Y006300D02*
X031849Y006300D01*
X032224Y006800D02*
X031990Y007034D01*
X031990Y010441D01*
X032474Y010441D02*
X032474Y008800D01*
X033099Y008300D02*
X033474Y008675D01*
X033474Y010433D01*
X033466Y010441D01*
X033466Y011925D01*
X033958Y011425D02*
X033958Y010441D01*
X032974Y010441D02*
X032974Y009800D01*
X034333Y009409D02*
X034990Y009409D01*
X034990Y008425D02*
X034349Y008425D01*
X034990Y007933D02*
X036466Y007933D01*
X036474Y007925D01*
X036474Y007933D02*
X034990Y007933D01*
X034990Y007441D02*
X034990Y007425D01*
X035974Y007425D01*
X035974Y007441D02*
X034990Y007441D01*
X033099Y008300D02*
X032684Y008300D01*
X032684Y006800D02*
X032224Y006800D01*
X030264Y005800D02*
X029599Y005800D01*
X029224Y004800D02*
X027849Y004800D01*
X032684Y004800D02*
X033099Y004800D01*
X033490Y004409D01*
X034990Y004409D01*
X024349Y007175D02*
X024349Y007885D01*
X021599Y006965D02*
X021546Y006894D01*
X027482Y009292D02*
X027482Y010441D01*
X032474Y010441D02*
X032482Y010441D01*
X013958Y010441D02*
X013958Y011425D01*
X013466Y011925D02*
X013466Y010441D01*
X012974Y010441D02*
X012974Y009800D01*
X012482Y010058D02*
X012482Y010441D01*
X011990Y010441D02*
X011974Y010425D01*
X011974Y010050D01*
X011349Y009425D01*
X007974Y009425D01*
X006974Y008425D01*
X006974Y007885D01*
X006474Y007885D02*
X006474Y008425D01*
X007474Y009425D01*
X007474Y010433D01*
X007482Y010441D01*
X007974Y010441D02*
X007974Y009800D01*
X006990Y009441D02*
X006990Y010441D01*
X008466Y010441D02*
X008466Y011925D01*
X008958Y011425D02*
X008958Y010441D01*
X006990Y009441D02*
X005974Y008425D01*
X005974Y007885D01*
X005474Y007885D02*
X005474Y008425D01*
X004474Y009425D01*
X002849Y009425D01*
X002482Y009792D01*
X002482Y010441D01*
X002974Y010441D02*
X002974Y009800D01*
X002724Y009050D02*
X001990Y009784D01*
X001990Y010441D01*
X003466Y010441D02*
X003466Y011917D01*
X003474Y011925D01*
X003474Y010441D01*
X003466Y010441D01*
X003958Y010441D02*
X003958Y011409D01*
X003974Y011425D01*
X003974Y010441D01*
X003958Y010441D01*
X004349Y009050D02*
X002724Y009050D01*
X004349Y009050D02*
X004974Y008425D01*
X004974Y007885D01*
X003474Y007885D02*
X003474Y007050D01*
X004349Y007050D01*
X005474Y005925D01*
X005474Y005465D01*
X004974Y005465D02*
X004974Y004800D01*
X004474Y004800D02*
X004474Y005465D01*
X003974Y005465D02*
X003974Y004425D01*
X006599Y004425D01*
X006974Y004800D01*
X006974Y005465D01*
X006474Y005465D02*
X006474Y006675D01*
X007349Y007550D01*
X007349Y008300D01*
X008099Y009050D01*
X011474Y009050D01*
X012482Y010058D01*
X010849Y008050D02*
X008474Y008050D01*
X007724Y007300D01*
X007724Y004550D01*
X005974Y005465D02*
X005974Y006175D01*
X003474Y007050D02*
X001974Y007050D01*
X002474Y004800D02*
X002849Y004425D01*
X002849Y003090D01*
X002889Y003050D01*
X003559Y003050D02*
X004849Y003050D01*
X003559Y003050D02*
X003559Y002175D01*
X002889Y002175D02*
X001474Y002175D01*
X005599Y001175D02*
X011349Y001175D01*
X011599Y001425D01*
X011599Y001885D01*
X011559Y001925D01*
X010889Y001925D02*
X010262Y001925D01*
X008224Y002050D02*
X007599Y002050D01*
X003974Y004425D02*
X002849Y004425D01*
X009099Y006050D02*
X009099Y006090D01*
X009764Y006760D02*
X009974Y006550D01*
X010599Y006550D01*
X009764Y006760D02*
X009099Y006760D01*
D28*
X005974Y006175D03*
X004974Y004800D03*
X004474Y004800D03*
X002474Y004800D03*
X006974Y004800D03*
X008224Y004800D03*
X014474Y006425D03*
X014974Y006425D03*
X015349Y006800D03*
X017974Y006550D03*
X018349Y006300D03*
X018724Y006050D03*
X019099Y005800D03*
X020724Y006175D03*
X021224Y006050D03*
X021724Y005925D03*
X022224Y005800D03*
X022724Y005675D03*
X024349Y006175D03*
X026849Y006175D03*
X029599Y005800D03*
X031849Y005425D03*
X031849Y006300D03*
X029599Y006800D03*
X029599Y007300D03*
X029599Y008300D03*
X032474Y008800D03*
X034349Y008425D03*
X036474Y007933D03*
X036474Y007925D03*
X035974Y007441D03*
X035974Y007425D03*
X032974Y009800D03*
X033958Y011425D03*
X033466Y011925D03*
X028974Y011425D03*
X028474Y011925D03*
X023958Y011425D03*
X023474Y011925D03*
X023466Y011925D03*
X018974Y011425D03*
X018466Y011925D03*
X013958Y011425D03*
X013466Y011925D03*
X008958Y011425D03*
X008466Y011925D03*
X003974Y011425D03*
X003474Y011925D03*
X002974Y009800D03*
X007974Y009800D03*
X012974Y009800D03*
X017974Y009800D03*
X018474Y009800D03*
X018974Y009800D03*
X019599Y008675D03*
X020474Y008300D03*
X022974Y009800D03*
X027974Y009800D03*
X016099Y004925D03*
X015849Y004550D03*
X015599Y004175D03*
X015349Y003800D03*
X015099Y003425D03*
X014849Y003050D03*
X014599Y002675D03*
X022599Y004050D03*
X022974Y004425D03*
X023349Y004800D03*
X025349Y004800D03*
X025849Y004800D03*
X034349Y003425D03*
X034349Y002925D03*
X035974Y002441D03*
X036474Y002933D03*
X012724Y007300D03*
X012349Y007050D03*
X001974Y007050D03*
X005599Y001175D03*
D29*
X013699Y003153D02*
X014121Y003153D01*
X014599Y002675D01*
X014849Y003050D02*
X014549Y003350D01*
X013699Y003350D01*
X013699Y003547D02*
X014977Y003547D01*
X015099Y003425D01*
X015293Y003744D02*
X015349Y003800D01*
X015293Y003744D02*
X013699Y003744D01*
X013699Y003941D02*
X014990Y003941D01*
X015224Y004175D01*
X015599Y004175D01*
X015224Y004550D02*
X014812Y004138D01*
X013699Y004138D01*
X013699Y004334D02*
X014633Y004334D01*
X015224Y004925D01*
X016099Y004925D01*
X015849Y004550D02*
X015224Y004550D01*
X016652Y002956D02*
X017243Y003547D01*
X017243Y006106D01*
X013699Y006106D01*
X012043Y006106D01*
X010849Y007300D01*
X010849Y007675D02*
X012221Y006303D01*
X013699Y006303D01*
X013699Y006500D02*
X012399Y006500D01*
X010849Y008050D01*
X014474Y006800D02*
X014474Y006425D01*
X014974Y006425D02*
X014974Y006925D01*
X015274Y007225D01*
X015274Y008075D01*
X015077Y008075D02*
X015077Y007403D01*
X014474Y006800D01*
X015349Y006800D02*
X015471Y006922D01*
X015471Y008075D01*
X017243Y008075D02*
X017243Y007090D01*
X017243Y006106D01*
X018349Y006300D02*
X018549Y006500D01*
X019999Y006500D01*
X019999Y006303D02*
X018977Y006303D01*
X018724Y006050D01*
X019099Y005800D02*
X019405Y006106D01*
X019999Y006106D01*
X019999Y005909D02*
X020458Y005909D01*
X020724Y006175D01*
X020886Y005712D02*
X021224Y006050D01*
X021724Y005925D02*
X021315Y005516D01*
X019999Y005516D01*
X019999Y005712D02*
X020886Y005712D01*
X021743Y005319D02*
X019999Y005319D01*
X019999Y005122D02*
X022171Y005122D01*
X022724Y005675D01*
X022224Y005800D02*
X021743Y005319D01*
X023349Y004800D02*
X023349Y003425D01*
X022487Y002563D01*
X019999Y002563D01*
X019999Y002760D02*
X022309Y002760D01*
X022974Y003425D01*
X022974Y004425D01*
X022599Y004050D02*
X022599Y003425D01*
X022131Y002956D01*
X019999Y002956D01*
X019999Y003350D02*
X021484Y003350D01*
X021599Y003465D01*
X021224Y004175D02*
X020596Y003547D01*
X019999Y003547D01*
X017243Y003547D01*
X016652Y002956D02*
X016652Y001775D01*
X016455Y001775D02*
X016455Y001406D01*
X016224Y001175D01*
X017636Y001138D02*
X017636Y001775D01*
X017833Y001775D02*
X017833Y001316D01*
X017974Y001175D01*
X017849Y000925D02*
X017636Y001138D01*
X018030Y001775D02*
X018030Y002106D01*
X018224Y002300D01*
X021224Y004175D02*
X021559Y004175D01*
X021599Y004135D01*
X018121Y006697D02*
X017974Y006550D01*
X018121Y006697D02*
X019999Y006697D01*
X019999Y006894D02*
X021527Y006894D01*
X021599Y006965D01*
X021224Y007675D02*
X020639Y007090D01*
X019999Y007090D01*
X017243Y007090D01*
X017440Y007584D02*
X017737Y007287D01*
X019999Y007287D01*
X020336Y007287D01*
X020474Y007425D01*
X020474Y008300D01*
X021224Y007675D02*
X021559Y007675D01*
X021599Y007635D01*
X019014Y008075D02*
X019014Y008635D01*
X018724Y008925D01*
X018599Y008675D02*
X018818Y008456D01*
X018818Y008075D01*
X017440Y008075D02*
X017440Y007584D01*
X013699Y005909D02*
X011740Y005909D01*
X011099Y006550D01*
X010599Y006550D01*
X012261Y005712D02*
X011099Y004550D01*
X010599Y004550D01*
X012261Y005712D02*
X013699Y005712D01*
M02*
