G75*
%MOIN*%
%OFA0B0*%
%FSLAX24Y24*%
%IPPOS*%
%LPD*%
%AMOC8*
5,1,8,0,0,1.08239X$1,22.5*
%
%ADD10C,0.0000*%
D10*
X000224Y000425D02*
X000224Y012675D01*
X037224Y012675D01*
X037224Y000425D01*
X000224Y000425D01*
X000541Y007925D02*
X000543Y007966D01*
X000549Y008007D01*
X000559Y008047D01*
X000572Y008086D01*
X000589Y008123D01*
X000610Y008159D01*
X000634Y008193D01*
X000661Y008224D01*
X000690Y008252D01*
X000723Y008278D01*
X000757Y008300D01*
X000794Y008319D01*
X000832Y008334D01*
X000872Y008346D01*
X000912Y008354D01*
X000953Y008358D01*
X000995Y008358D01*
X001036Y008354D01*
X001076Y008346D01*
X001116Y008334D01*
X001154Y008319D01*
X001190Y008300D01*
X001225Y008278D01*
X001258Y008252D01*
X001287Y008224D01*
X001314Y008193D01*
X001338Y008159D01*
X001359Y008123D01*
X001376Y008086D01*
X001389Y008047D01*
X001399Y008007D01*
X001405Y007966D01*
X001407Y007925D01*
X001405Y007884D01*
X001399Y007843D01*
X001389Y007803D01*
X001376Y007764D01*
X001359Y007727D01*
X001338Y007691D01*
X001314Y007657D01*
X001287Y007626D01*
X001258Y007598D01*
X001225Y007572D01*
X001191Y007550D01*
X001154Y007531D01*
X001116Y007516D01*
X001076Y007504D01*
X001036Y007496D01*
X000995Y007492D01*
X000953Y007492D01*
X000912Y007496D01*
X000872Y007504D01*
X000832Y007516D01*
X000794Y007531D01*
X000758Y007550D01*
X000723Y007572D01*
X000690Y007598D01*
X000661Y007626D01*
X000634Y007657D01*
X000610Y007691D01*
X000589Y007727D01*
X000572Y007764D01*
X000559Y007803D01*
X000549Y007843D01*
X000543Y007884D01*
X000541Y007925D01*
X033416Y001175D02*
X033418Y001216D01*
X033424Y001257D01*
X033434Y001297D01*
X033447Y001336D01*
X033464Y001373D01*
X033485Y001409D01*
X033509Y001443D01*
X033536Y001474D01*
X033565Y001502D01*
X033598Y001528D01*
X033632Y001550D01*
X033669Y001569D01*
X033707Y001584D01*
X033747Y001596D01*
X033787Y001604D01*
X033828Y001608D01*
X033870Y001608D01*
X033911Y001604D01*
X033951Y001596D01*
X033991Y001584D01*
X034029Y001569D01*
X034065Y001550D01*
X034100Y001528D01*
X034133Y001502D01*
X034162Y001474D01*
X034189Y001443D01*
X034213Y001409D01*
X034234Y001373D01*
X034251Y001336D01*
X034264Y001297D01*
X034274Y001257D01*
X034280Y001216D01*
X034282Y001175D01*
X034280Y001134D01*
X034274Y001093D01*
X034264Y001053D01*
X034251Y001014D01*
X034234Y000977D01*
X034213Y000941D01*
X034189Y000907D01*
X034162Y000876D01*
X034133Y000848D01*
X034100Y000822D01*
X034066Y000800D01*
X034029Y000781D01*
X033991Y000766D01*
X033951Y000754D01*
X033911Y000746D01*
X033870Y000742D01*
X033828Y000742D01*
X033787Y000746D01*
X033747Y000754D01*
X033707Y000766D01*
X033669Y000781D01*
X033633Y000800D01*
X033598Y000822D01*
X033565Y000848D01*
X033536Y000876D01*
X033509Y000907D01*
X033485Y000941D01*
X033464Y000977D01*
X033447Y001014D01*
X033434Y001053D01*
X033424Y001093D01*
X033418Y001134D01*
X033416Y001175D01*
X036041Y011925D02*
X036043Y011966D01*
X036049Y012007D01*
X036059Y012047D01*
X036072Y012086D01*
X036089Y012123D01*
X036110Y012159D01*
X036134Y012193D01*
X036161Y012224D01*
X036190Y012252D01*
X036223Y012278D01*
X036257Y012300D01*
X036294Y012319D01*
X036332Y012334D01*
X036372Y012346D01*
X036412Y012354D01*
X036453Y012358D01*
X036495Y012358D01*
X036536Y012354D01*
X036576Y012346D01*
X036616Y012334D01*
X036654Y012319D01*
X036690Y012300D01*
X036725Y012278D01*
X036758Y012252D01*
X036787Y012224D01*
X036814Y012193D01*
X036838Y012159D01*
X036859Y012123D01*
X036876Y012086D01*
X036889Y012047D01*
X036899Y012007D01*
X036905Y011966D01*
X036907Y011925D01*
X036905Y011884D01*
X036899Y011843D01*
X036889Y011803D01*
X036876Y011764D01*
X036859Y011727D01*
X036838Y011691D01*
X036814Y011657D01*
X036787Y011626D01*
X036758Y011598D01*
X036725Y011572D01*
X036691Y011550D01*
X036654Y011531D01*
X036616Y011516D01*
X036576Y011504D01*
X036536Y011496D01*
X036495Y011492D01*
X036453Y011492D01*
X036412Y011496D01*
X036372Y011504D01*
X036332Y011516D01*
X036294Y011531D01*
X036258Y011550D01*
X036223Y011572D01*
X036190Y011598D01*
X036161Y011626D01*
X036134Y011657D01*
X036110Y011691D01*
X036089Y011727D01*
X036072Y011764D01*
X036059Y011803D01*
X036049Y011843D01*
X036043Y011884D01*
X036041Y011925D01*
M02*
