G75*
%MOIN*%
%OFA0B0*%
%FSLAX24Y24*%
%IPPOS*%
%LPD*%
%AMOC8*
5,1,8,0,0,1.08239X$1,22.5*
%
%ADD10C,0.0000*%
%ADD11C,0.0440*%
%ADD12R,0.0740X0.0740*%
%ADD13C,0.0740*%
%ADD14OC8,0.0740*%
%ADD15C,0.0554*%
%ADD16C,0.0160*%
%ADD17C,0.0396*%
D10*
X000224Y000425D02*
X000224Y012675D01*
X037224Y012675D01*
X037224Y000425D01*
X000224Y000425D01*
X000541Y007925D02*
X000543Y007966D01*
X000549Y008007D01*
X000559Y008047D01*
X000572Y008086D01*
X000589Y008123D01*
X000610Y008159D01*
X000634Y008193D01*
X000661Y008224D01*
X000690Y008252D01*
X000723Y008278D01*
X000757Y008300D01*
X000794Y008319D01*
X000832Y008334D01*
X000872Y008346D01*
X000912Y008354D01*
X000953Y008358D01*
X000995Y008358D01*
X001036Y008354D01*
X001076Y008346D01*
X001116Y008334D01*
X001154Y008319D01*
X001190Y008300D01*
X001225Y008278D01*
X001258Y008252D01*
X001287Y008224D01*
X001314Y008193D01*
X001338Y008159D01*
X001359Y008123D01*
X001376Y008086D01*
X001389Y008047D01*
X001399Y008007D01*
X001405Y007966D01*
X001407Y007925D01*
X001405Y007884D01*
X001399Y007843D01*
X001389Y007803D01*
X001376Y007764D01*
X001359Y007727D01*
X001338Y007691D01*
X001314Y007657D01*
X001287Y007626D01*
X001258Y007598D01*
X001225Y007572D01*
X001191Y007550D01*
X001154Y007531D01*
X001116Y007516D01*
X001076Y007504D01*
X001036Y007496D01*
X000995Y007492D01*
X000953Y007492D01*
X000912Y007496D01*
X000872Y007504D01*
X000832Y007516D01*
X000794Y007531D01*
X000758Y007550D01*
X000723Y007572D01*
X000690Y007598D01*
X000661Y007626D01*
X000634Y007657D01*
X000610Y007691D01*
X000589Y007727D01*
X000572Y007764D01*
X000559Y007803D01*
X000549Y007843D01*
X000543Y007884D01*
X000541Y007925D01*
X033416Y001175D02*
X033418Y001216D01*
X033424Y001257D01*
X033434Y001297D01*
X033447Y001336D01*
X033464Y001373D01*
X033485Y001409D01*
X033509Y001443D01*
X033536Y001474D01*
X033565Y001502D01*
X033598Y001528D01*
X033632Y001550D01*
X033669Y001569D01*
X033707Y001584D01*
X033747Y001596D01*
X033787Y001604D01*
X033828Y001608D01*
X033870Y001608D01*
X033911Y001604D01*
X033951Y001596D01*
X033991Y001584D01*
X034029Y001569D01*
X034065Y001550D01*
X034100Y001528D01*
X034133Y001502D01*
X034162Y001474D01*
X034189Y001443D01*
X034213Y001409D01*
X034234Y001373D01*
X034251Y001336D01*
X034264Y001297D01*
X034274Y001257D01*
X034280Y001216D01*
X034282Y001175D01*
X034280Y001134D01*
X034274Y001093D01*
X034264Y001053D01*
X034251Y001014D01*
X034234Y000977D01*
X034213Y000941D01*
X034189Y000907D01*
X034162Y000876D01*
X034133Y000848D01*
X034100Y000822D01*
X034066Y000800D01*
X034029Y000781D01*
X033991Y000766D01*
X033951Y000754D01*
X033911Y000746D01*
X033870Y000742D01*
X033828Y000742D01*
X033787Y000746D01*
X033747Y000754D01*
X033707Y000766D01*
X033669Y000781D01*
X033633Y000800D01*
X033598Y000822D01*
X033565Y000848D01*
X033536Y000876D01*
X033509Y000907D01*
X033485Y000941D01*
X033464Y000977D01*
X033447Y001014D01*
X033434Y001053D01*
X033424Y001093D01*
X033418Y001134D01*
X033416Y001175D01*
X036041Y011925D02*
X036043Y011966D01*
X036049Y012007D01*
X036059Y012047D01*
X036072Y012086D01*
X036089Y012123D01*
X036110Y012159D01*
X036134Y012193D01*
X036161Y012224D01*
X036190Y012252D01*
X036223Y012278D01*
X036257Y012300D01*
X036294Y012319D01*
X036332Y012334D01*
X036372Y012346D01*
X036412Y012354D01*
X036453Y012358D01*
X036495Y012358D01*
X036536Y012354D01*
X036576Y012346D01*
X036616Y012334D01*
X036654Y012319D01*
X036690Y012300D01*
X036725Y012278D01*
X036758Y012252D01*
X036787Y012224D01*
X036814Y012193D01*
X036838Y012159D01*
X036859Y012123D01*
X036876Y012086D01*
X036889Y012047D01*
X036899Y012007D01*
X036905Y011966D01*
X036907Y011925D01*
X036905Y011884D01*
X036899Y011843D01*
X036889Y011803D01*
X036876Y011764D01*
X036859Y011727D01*
X036838Y011691D01*
X036814Y011657D01*
X036787Y011626D01*
X036758Y011598D01*
X036725Y011572D01*
X036691Y011550D01*
X036654Y011531D01*
X036616Y011516D01*
X036576Y011504D01*
X036536Y011496D01*
X036495Y011492D01*
X036453Y011492D01*
X036412Y011496D01*
X036372Y011504D01*
X036332Y011516D01*
X036294Y011531D01*
X036258Y011550D01*
X036223Y011572D01*
X036190Y011598D01*
X036161Y011626D01*
X036134Y011657D01*
X036110Y011691D01*
X036089Y011727D01*
X036072Y011764D01*
X036059Y011803D01*
X036049Y011843D01*
X036043Y011884D01*
X036041Y011925D01*
D11*
X010819Y006550D02*
X010379Y006550D01*
X010379Y004550D02*
X010819Y004550D01*
D12*
X007599Y003050D03*
X001474Y001175D03*
D13*
X001474Y002175D03*
X001474Y003175D03*
X001474Y004175D03*
D14*
X005599Y003050D03*
X006599Y003050D03*
X006599Y002050D03*
X005599Y002050D03*
X007599Y002050D03*
D15*
X024256Y002194D03*
X025043Y002194D03*
X025830Y002194D03*
X026618Y002194D03*
X027405Y002194D03*
X028193Y002194D03*
X028193Y001406D03*
X027405Y001406D03*
X026618Y001406D03*
X025830Y001406D03*
X025043Y001406D03*
X024256Y001406D03*
D16*
X017118Y001406D01*
X015099Y003425D01*
X014849Y003050D02*
X016974Y000925D01*
X024562Y000925D01*
X025043Y001406D01*
X025099Y000675D02*
X025830Y001406D01*
X025830Y002194D02*
X025099Y002925D01*
X017474Y002925D01*
X015849Y004550D01*
X015599Y004175D02*
X017099Y002675D01*
X024562Y002675D01*
X025043Y002194D01*
X024256Y002194D02*
X016955Y002194D01*
X015349Y003800D01*
X013849Y004175D02*
X011099Y001425D01*
X007224Y001425D01*
X006599Y002050D01*
X005599Y002050D02*
X005599Y001175D01*
X001474Y001175D01*
X000849Y001800D01*
X000849Y004425D01*
X001974Y005550D01*
X001974Y007050D01*
X001974Y010925D01*
X002974Y011925D01*
X003474Y011925D01*
X008466Y011925D01*
X013466Y011925D01*
X018466Y011925D01*
X023466Y011925D01*
X023474Y011925D02*
X028474Y011925D01*
X033466Y011925D01*
X034974Y011925D01*
X036474Y010425D01*
X036474Y007925D01*
X036474Y002933D01*
X036474Y002425D01*
X035974Y001925D01*
X028711Y001925D01*
X028193Y001406D01*
X028193Y002194D02*
X035727Y002194D01*
X035974Y002441D01*
X035974Y007425D01*
X035974Y010175D01*
X034724Y011425D01*
X033958Y011425D01*
X028974Y011425D01*
X023958Y011425D01*
X018974Y011425D01*
X013958Y011425D01*
X008958Y011425D01*
X003974Y011425D01*
X003099Y011425D01*
X002474Y010800D01*
X002474Y004800D01*
X001474Y004175D02*
X011849Y004175D01*
X012349Y004675D01*
X012349Y007050D01*
X012724Y007300D02*
X012724Y004550D01*
X012099Y003925D01*
X002224Y003925D01*
X001474Y003175D01*
X004474Y004800D02*
X004849Y005175D01*
X005474Y005175D01*
X008224Y007925D01*
X015599Y007925D01*
X018724Y004800D01*
X023349Y004800D01*
X025349Y004800D01*
X025849Y005300D01*
X027599Y005300D01*
X029599Y007300D01*
X029599Y006800D02*
X027599Y004800D01*
X025849Y004800D01*
X025474Y004425D01*
X022974Y004425D01*
X018599Y004425D01*
X015349Y007675D01*
X008474Y007675D01*
X005599Y004800D01*
X004974Y004800D01*
X006974Y004800D02*
X008224Y004800D01*
X007224Y003675D02*
X006599Y003050D01*
X007599Y003050D02*
X012224Y003050D01*
X013474Y004300D01*
X013474Y005550D01*
X014474Y006425D01*
X014974Y006425D02*
X013849Y005425D01*
X013849Y004175D01*
X013099Y004425D02*
X012349Y003675D01*
X007224Y003675D01*
X013099Y004425D02*
X013099Y005800D01*
X014099Y006800D01*
X015349Y006800D01*
X017974Y006550D02*
X017974Y008175D01*
X016974Y009175D01*
X012724Y009175D01*
X012474Y009425D01*
X007724Y009425D01*
X007349Y009800D01*
X002974Y009800D01*
X005974Y006175D02*
X007974Y008175D01*
X015849Y008175D01*
X018849Y005175D01*
X023349Y005175D01*
X024349Y006175D01*
X022724Y005675D02*
X022724Y007550D01*
X024099Y008925D01*
X028349Y008925D01*
X028599Y009175D01*
X033099Y009175D01*
X034349Y007925D01*
X034349Y003425D01*
X034349Y002925D02*
X031849Y005425D01*
X029599Y005800D02*
X029099Y005800D01*
X027349Y004050D01*
X022599Y004050D01*
X025636Y003175D02*
X026618Y002194D01*
X025636Y003175D02*
X017849Y003175D01*
X016099Y004925D01*
X019099Y005800D02*
X019099Y008675D01*
X017974Y009800D01*
X018474Y009800D02*
X019599Y008675D01*
X018724Y008550D02*
X017474Y009800D01*
X012974Y009800D01*
X012849Y009425D02*
X012474Y009800D01*
X007974Y009800D01*
X012849Y009425D02*
X017349Y009425D01*
X018349Y008425D01*
X018349Y006300D01*
X018724Y006050D02*
X018724Y008550D01*
X018974Y009800D02*
X020474Y008300D01*
X020724Y007550D02*
X022974Y009800D01*
X023474Y009800D02*
X027974Y009800D01*
X028099Y009425D02*
X028474Y009800D01*
X032974Y009800D01*
X033349Y009425D02*
X034349Y008425D01*
X032474Y008800D02*
X031849Y008175D01*
X031849Y006300D01*
X035974Y007425D02*
X035974Y007441D01*
X036474Y007925D02*
X036474Y007933D01*
X033349Y009425D02*
X028474Y009425D01*
X028224Y009175D01*
X023849Y009175D01*
X022224Y007550D01*
X022224Y005800D01*
X021724Y005925D02*
X021724Y007550D01*
X023599Y009425D01*
X028099Y009425D01*
X029599Y008300D02*
X027474Y006175D01*
X026849Y006175D01*
X023474Y009800D02*
X021224Y007550D01*
X021224Y006050D01*
X020724Y006175D02*
X020724Y007550D01*
X014599Y002675D02*
X016599Y000675D01*
X025099Y000675D01*
D17*
X034349Y002925D03*
X034349Y003425D03*
X036474Y002933D03*
X035974Y002441D03*
X031849Y005425D03*
X029599Y005800D03*
X031849Y006300D03*
X029599Y006800D03*
X029599Y007300D03*
X029599Y008300D03*
X032474Y008800D03*
X034349Y008425D03*
X036474Y007933D03*
X036474Y007925D03*
X035974Y007441D03*
X035974Y007425D03*
X032974Y009800D03*
X033958Y011425D03*
X033466Y011925D03*
X028974Y011425D03*
X028474Y011925D03*
X023958Y011425D03*
X023474Y011925D03*
X023466Y011925D03*
X018974Y011425D03*
X018466Y011925D03*
X013958Y011425D03*
X013466Y011925D03*
X008958Y011425D03*
X008466Y011925D03*
X003974Y011425D03*
X003474Y011925D03*
X002974Y009800D03*
X007974Y009800D03*
X012974Y009800D03*
X017974Y009800D03*
X018474Y009800D03*
X018974Y009800D03*
X019599Y008675D03*
X020474Y008300D03*
X022974Y009800D03*
X027974Y009800D03*
X017974Y006550D03*
X018349Y006300D03*
X018724Y006050D03*
X019099Y005800D03*
X020724Y006175D03*
X021224Y006050D03*
X021724Y005925D03*
X022224Y005800D03*
X022724Y005675D03*
X024349Y006175D03*
X026849Y006175D03*
X025849Y004800D03*
X025349Y004800D03*
X023349Y004800D03*
X022974Y004425D03*
X022599Y004050D03*
X016099Y004925D03*
X015849Y004550D03*
X015599Y004175D03*
X015349Y003800D03*
X015099Y003425D03*
X014849Y003050D03*
X014599Y002675D03*
X008224Y004800D03*
X006974Y004800D03*
X004974Y004800D03*
X004474Y004800D03*
X002474Y004800D03*
X005974Y006175D03*
X001974Y007050D03*
X012349Y007050D03*
X012724Y007300D03*
X014474Y006425D03*
X014974Y006425D03*
X015349Y006800D03*
X005599Y001175D03*
M02*
