%
M48
M72
T01C0.0236
T02C0.0240
T03C0.0315
T04C0.0400
T05C0.0866
%
T01
X5475Y850
X2350Y2850
X2350Y4100
X2350Y4725
X4350Y4475
X4850Y4475
X6850Y4475
X8100Y4475
X5850Y5850
X1850Y6725
X2850Y9475
X3850Y11100
X3350Y11600
X8342Y11600
X8834Y11100
X13342Y11600
X13834Y11100
X18342Y11600
X18850Y11100
X23342Y11600
X23350Y11600
X23834Y11100
X28350Y11600
X28850Y11100
X33342Y11600
X33834Y11100
X32850Y9475
X32350Y8475
X34225Y8100
X36350Y7608
X36350Y7600
X35850Y7116
X35850Y7100
X31725Y5975
X29475Y5475
X31725Y5100
X29475Y6475
X29475Y6975
X29475Y7975
X27850Y9475
X22850Y9475
X19475Y8350
X20350Y7975
X18850Y9475
X18350Y9475
X17850Y9475
X12850Y9475
X7850Y9475
X12600Y6975
X12225Y6725
X14350Y6100
X14850Y6100
X15225Y6475
X17850Y6225
X18225Y5975
X18600Y5725
X18975Y5475
X20600Y5850
X21100Y5725
X21600Y5600
X22100Y5475
X22600Y5350
X24225Y5850
X26725Y5850
X25725Y4475
X25225Y4475
X23225Y4475
X22850Y4100
X22475Y3725
X15975Y4600
X15725Y4225
X15475Y3850
X15225Y3475
X14975Y3100
X14725Y2725
X16350Y4975
X35850Y2116
X36350Y2608
X34225Y2600
X34225Y3100
T02
X10475Y4225
X10475Y6225
T03
X24131Y1869
X24919Y1869
X25706Y1869
X26494Y1869
X27281Y1869
X28069Y1869
X28069Y1081
X27281Y1081
X26494Y1081
X25706Y1081
X24919Y1081
X24131Y1081
T04
X1350Y3850
X1350Y2850
X1350Y1850
X1350Y850
X5475Y1725
X6475Y1725
X7475Y1725
X7475Y2725
X6475Y2725
X5475Y2725
T05
X850Y7600
X33725Y850
X36350Y11600
M30
