G75*
%MOIN*%
%OFA0B0*%
%FSLAX24Y24*%
%IPPOS*%
%LPD*%
%AMOC8*
5,1,8,0,0,1.08239X$1,22.5*
%
%ADD10C,0.0000*%
%ADD11C,0.0946*%
%ADD12R,0.0198X0.0671*%
%ADD13R,0.0671X0.0198*%
%ADD14R,0.0592X0.0671*%
%ADD15C,0.0520*%
%ADD16R,0.0671X0.0592*%
%ADD17R,0.0820X0.0820*%
%ADD18C,0.0820*%
%ADD19R,0.0395X0.0867*%
%ADD20R,0.0907X0.1261*%
%ADD21R,0.0867X0.0395*%
%ADD22R,0.1261X0.0907*%
%ADD23R,0.0880X0.0340*%
%ADD24R,0.0340X0.0880*%
%ADD25R,0.0552X0.0552*%
%ADD26OC8,0.0820*%
%ADD27R,0.0595X0.0595*%
%ADD28C,0.0595*%
%ADD29C,0.0050*%
%ADD30C,0.0476*%
D10*
X000100Y000100D02*
X000100Y012350D01*
X037100Y012350D01*
X037100Y000100D01*
X000100Y000100D01*
X000417Y007600D02*
X000419Y007641D01*
X000425Y007682D01*
X000435Y007722D01*
X000448Y007761D01*
X000465Y007798D01*
X000486Y007834D01*
X000510Y007868D01*
X000537Y007899D01*
X000566Y007927D01*
X000599Y007953D01*
X000633Y007975D01*
X000670Y007994D01*
X000708Y008009D01*
X000748Y008021D01*
X000788Y008029D01*
X000829Y008033D01*
X000871Y008033D01*
X000912Y008029D01*
X000952Y008021D01*
X000992Y008009D01*
X001030Y007994D01*
X001066Y007975D01*
X001101Y007953D01*
X001134Y007927D01*
X001163Y007899D01*
X001190Y007868D01*
X001214Y007834D01*
X001235Y007798D01*
X001252Y007761D01*
X001265Y007722D01*
X001275Y007682D01*
X001281Y007641D01*
X001283Y007600D01*
X001281Y007559D01*
X001275Y007518D01*
X001265Y007478D01*
X001252Y007439D01*
X001235Y007402D01*
X001214Y007366D01*
X001190Y007332D01*
X001163Y007301D01*
X001134Y007273D01*
X001101Y007247D01*
X001067Y007225D01*
X001030Y007206D01*
X000992Y007191D01*
X000952Y007179D01*
X000912Y007171D01*
X000871Y007167D01*
X000829Y007167D01*
X000788Y007171D01*
X000748Y007179D01*
X000708Y007191D01*
X000670Y007206D01*
X000634Y007225D01*
X000599Y007247D01*
X000566Y007273D01*
X000537Y007301D01*
X000510Y007332D01*
X000486Y007366D01*
X000465Y007402D01*
X000448Y007439D01*
X000435Y007478D01*
X000425Y007518D01*
X000419Y007559D01*
X000417Y007600D01*
X033292Y000850D02*
X033294Y000891D01*
X033300Y000932D01*
X033310Y000972D01*
X033323Y001011D01*
X033340Y001048D01*
X033361Y001084D01*
X033385Y001118D01*
X033412Y001149D01*
X033441Y001177D01*
X033474Y001203D01*
X033508Y001225D01*
X033545Y001244D01*
X033583Y001259D01*
X033623Y001271D01*
X033663Y001279D01*
X033704Y001283D01*
X033746Y001283D01*
X033787Y001279D01*
X033827Y001271D01*
X033867Y001259D01*
X033905Y001244D01*
X033941Y001225D01*
X033976Y001203D01*
X034009Y001177D01*
X034038Y001149D01*
X034065Y001118D01*
X034089Y001084D01*
X034110Y001048D01*
X034127Y001011D01*
X034140Y000972D01*
X034150Y000932D01*
X034156Y000891D01*
X034158Y000850D01*
X034156Y000809D01*
X034150Y000768D01*
X034140Y000728D01*
X034127Y000689D01*
X034110Y000652D01*
X034089Y000616D01*
X034065Y000582D01*
X034038Y000551D01*
X034009Y000523D01*
X033976Y000497D01*
X033942Y000475D01*
X033905Y000456D01*
X033867Y000441D01*
X033827Y000429D01*
X033787Y000421D01*
X033746Y000417D01*
X033704Y000417D01*
X033663Y000421D01*
X033623Y000429D01*
X033583Y000441D01*
X033545Y000456D01*
X033509Y000475D01*
X033474Y000497D01*
X033441Y000523D01*
X033412Y000551D01*
X033385Y000582D01*
X033361Y000616D01*
X033340Y000652D01*
X033323Y000689D01*
X033310Y000728D01*
X033300Y000768D01*
X033294Y000809D01*
X033292Y000850D01*
X035917Y011600D02*
X035919Y011641D01*
X035925Y011682D01*
X035935Y011722D01*
X035948Y011761D01*
X035965Y011798D01*
X035986Y011834D01*
X036010Y011868D01*
X036037Y011899D01*
X036066Y011927D01*
X036099Y011953D01*
X036133Y011975D01*
X036170Y011994D01*
X036208Y012009D01*
X036248Y012021D01*
X036288Y012029D01*
X036329Y012033D01*
X036371Y012033D01*
X036412Y012029D01*
X036452Y012021D01*
X036492Y012009D01*
X036530Y011994D01*
X036566Y011975D01*
X036601Y011953D01*
X036634Y011927D01*
X036663Y011899D01*
X036690Y011868D01*
X036714Y011834D01*
X036735Y011798D01*
X036752Y011761D01*
X036765Y011722D01*
X036775Y011682D01*
X036781Y011641D01*
X036783Y011600D01*
X036781Y011559D01*
X036775Y011518D01*
X036765Y011478D01*
X036752Y011439D01*
X036735Y011402D01*
X036714Y011366D01*
X036690Y011332D01*
X036663Y011301D01*
X036634Y011273D01*
X036601Y011247D01*
X036567Y011225D01*
X036530Y011206D01*
X036492Y011191D01*
X036452Y011179D01*
X036412Y011171D01*
X036371Y011167D01*
X036329Y011167D01*
X036288Y011171D01*
X036248Y011179D01*
X036208Y011191D01*
X036170Y011206D01*
X036134Y011225D01*
X036099Y011247D01*
X036066Y011273D01*
X036037Y011301D01*
X036010Y011332D01*
X035986Y011366D01*
X035965Y011402D01*
X035948Y011439D01*
X035935Y011478D01*
X035925Y011518D01*
X035919Y011559D01*
X035917Y011600D01*
D11*
X036350Y011600D03*
X033725Y000850D03*
X000850Y007600D03*
D12*
X014363Y007750D03*
X014560Y007750D03*
X014756Y007750D03*
X014953Y007750D03*
X015150Y007750D03*
X015347Y007750D03*
X015544Y007750D03*
X015741Y007750D03*
X015938Y007750D03*
X016134Y007750D03*
X016331Y007750D03*
X016528Y007750D03*
X016725Y007750D03*
X016922Y007750D03*
X017119Y007750D03*
X017316Y007750D03*
X017512Y007750D03*
X017709Y007750D03*
X017906Y007750D03*
X018103Y007750D03*
X018300Y007750D03*
X018497Y007750D03*
X018694Y007750D03*
X018890Y007750D03*
X019087Y007750D03*
X019087Y001450D03*
X018890Y001450D03*
X018694Y001450D03*
X018497Y001450D03*
X018300Y001450D03*
X018103Y001450D03*
X017906Y001450D03*
X017709Y001450D03*
X017512Y001450D03*
X017316Y001450D03*
X017119Y001450D03*
X016922Y001450D03*
X016725Y001450D03*
X016528Y001450D03*
X016331Y001450D03*
X016134Y001450D03*
X015938Y001450D03*
X015741Y001450D03*
X015544Y001450D03*
X015347Y001450D03*
X015150Y001450D03*
X014953Y001450D03*
X014756Y001450D03*
X014560Y001450D03*
X014363Y001450D03*
D13*
X013575Y002238D03*
X013575Y002435D03*
X013575Y002631D03*
X013575Y002828D03*
X013575Y003025D03*
X013575Y003222D03*
X013575Y003419D03*
X013575Y003616D03*
X013575Y003813D03*
X013575Y004009D03*
X013575Y004206D03*
X013575Y004403D03*
X013575Y004600D03*
X013575Y004797D03*
X013575Y004994D03*
X013575Y005191D03*
X013575Y005387D03*
X013575Y005584D03*
X013575Y005781D03*
X013575Y005978D03*
X013575Y006175D03*
X013575Y006372D03*
X013575Y006569D03*
X013575Y006765D03*
X013575Y006962D03*
X019875Y006962D03*
X019875Y006765D03*
X019875Y006569D03*
X019875Y006372D03*
X019875Y006175D03*
X019875Y005978D03*
X019875Y005781D03*
X019875Y005584D03*
X019875Y005387D03*
X019875Y005191D03*
X019875Y004994D03*
X019875Y004797D03*
X019875Y004600D03*
X019875Y004403D03*
X019875Y004206D03*
X019875Y004009D03*
X019875Y003813D03*
X019875Y003616D03*
X019875Y003419D03*
X019875Y003222D03*
X019875Y003025D03*
X019875Y002828D03*
X019875Y002631D03*
X019875Y002435D03*
X019875Y002238D03*
D14*
X011435Y001600D03*
X010765Y001600D03*
X003685Y001850D03*
X003015Y001850D03*
X003015Y002725D03*
X003685Y002725D03*
X031640Y002350D03*
X032310Y002350D03*
X032310Y001600D03*
X031640Y001600D03*
X031640Y003100D03*
X032310Y003100D03*
D15*
X010695Y004225D02*
X010255Y004225D01*
X010255Y006225D02*
X010695Y006225D01*
D16*
X008975Y006435D03*
X008975Y005765D03*
X008975Y004685D03*
X008975Y004015D03*
X021475Y003810D03*
X021475Y003140D03*
X021475Y006640D03*
X021475Y007310D03*
D17*
X007475Y002725D03*
X001350Y000850D03*
D18*
X001350Y001850D03*
X001350Y002850D03*
X001350Y003850D03*
D19*
X001866Y010116D03*
X002358Y010116D03*
X002850Y010116D03*
X003342Y010116D03*
X003834Y010116D03*
X006866Y010116D03*
X007358Y010116D03*
X007850Y010116D03*
X008342Y010116D03*
X008834Y010116D03*
X011866Y010116D03*
X012358Y010116D03*
X012850Y010116D03*
X013342Y010116D03*
X013834Y010116D03*
X016866Y010116D03*
X017358Y010116D03*
X017850Y010116D03*
X018342Y010116D03*
X018834Y010116D03*
X021866Y010116D03*
X022358Y010116D03*
X022850Y010116D03*
X023342Y010116D03*
X023834Y010116D03*
X026866Y010116D03*
X027358Y010116D03*
X027850Y010116D03*
X028342Y010116D03*
X028834Y010116D03*
X031866Y010116D03*
X032358Y010116D03*
X032850Y010116D03*
X033342Y010116D03*
X033834Y010116D03*
D20*
X034819Y011346D03*
X030881Y011346D03*
X029819Y011346D03*
X025881Y011346D03*
X024819Y011346D03*
X020881Y011346D03*
X019819Y011346D03*
X015881Y011346D03*
X014819Y011346D03*
X010881Y011346D03*
X009819Y011346D03*
X005881Y011346D03*
X004819Y011346D03*
X000881Y011346D03*
D21*
X034866Y009084D03*
X034866Y008592D03*
X034866Y008100D03*
X034866Y007608D03*
X034866Y007116D03*
X034866Y004084D03*
X034866Y003592D03*
X034866Y003100D03*
X034866Y002608D03*
X034866Y002116D03*
D22*
X036096Y001131D03*
X036096Y005069D03*
X036096Y006131D03*
X036096Y010069D03*
D23*
X032560Y007975D03*
X032560Y007475D03*
X032560Y006975D03*
X032560Y006475D03*
X032560Y005975D03*
X032560Y005475D03*
X032560Y004975D03*
X032560Y004475D03*
X030140Y004475D03*
X030140Y004975D03*
X030140Y005475D03*
X030140Y005975D03*
X030140Y006475D03*
X030140Y006975D03*
X030140Y007475D03*
X030140Y007975D03*
D24*
X027725Y007560D03*
X027225Y007560D03*
X026725Y007560D03*
X026225Y007560D03*
X025725Y007560D03*
X025225Y007560D03*
X024725Y007560D03*
X024225Y007560D03*
X024225Y005140D03*
X024725Y005140D03*
X025225Y005140D03*
X025725Y005140D03*
X026225Y005140D03*
X026725Y005140D03*
X027225Y005140D03*
X027725Y005140D03*
X006850Y005140D03*
X006350Y005140D03*
X005850Y005140D03*
X005350Y005140D03*
X004850Y005140D03*
X004350Y005140D03*
X003850Y005140D03*
X003350Y005140D03*
X003350Y007560D03*
X003850Y007560D03*
X004350Y007560D03*
X004850Y007560D03*
X005350Y007560D03*
X005850Y007560D03*
X006350Y007560D03*
X006850Y007560D03*
D25*
X009312Y001600D03*
X010138Y001600D03*
X030187Y001600D03*
X031013Y001600D03*
X031013Y002350D03*
X030187Y002350D03*
X030187Y003100D03*
X031013Y003100D03*
D26*
X007475Y001725D03*
X006475Y001725D03*
X005475Y001725D03*
X005475Y002725D03*
X006475Y002725D03*
D27*
X024131Y001081D03*
D28*
X024919Y001081D03*
X025706Y001081D03*
X026494Y001081D03*
X027281Y001081D03*
X028069Y001081D03*
X028069Y001869D03*
X027281Y001869D03*
X026494Y001869D03*
X025706Y001869D03*
X024919Y001869D03*
X024131Y001869D03*
D29*
X023738Y002262D02*
X023738Y000688D01*
X028462Y000688D01*
X028462Y002262D01*
X023738Y002262D01*
D30*
X022475Y003725D03*
X022850Y004100D03*
X023225Y004475D03*
X025225Y004475D03*
X025725Y004475D03*
X022600Y005350D03*
X022100Y005475D03*
X021600Y005600D03*
X021100Y005725D03*
X020600Y005850D03*
X018975Y005475D03*
X018600Y005725D03*
X018225Y005975D03*
X017850Y006225D03*
X015225Y006475D03*
X014850Y006100D03*
X014350Y006100D03*
X012225Y006725D03*
X012600Y006975D03*
X016350Y004975D03*
X015975Y004600D03*
X015725Y004225D03*
X015475Y003850D03*
X015225Y003475D03*
X014975Y003100D03*
X014725Y002725D03*
X008100Y004475D03*
X006850Y004475D03*
X004850Y004475D03*
X004350Y004475D03*
X002350Y004725D03*
X002350Y004100D03*
X002350Y002850D03*
X005475Y000850D03*
X005850Y005850D03*
X001850Y006725D03*
X002850Y009475D03*
X003850Y011100D03*
X003350Y011600D03*
X008342Y011600D03*
X008834Y011100D03*
X013342Y011600D03*
X013834Y011100D03*
X018342Y011600D03*
X018850Y011100D03*
X023342Y011600D03*
X023350Y011600D03*
X023834Y011100D03*
X028350Y011600D03*
X028850Y011100D03*
X033342Y011600D03*
X033834Y011100D03*
X032850Y009475D03*
X032350Y008475D03*
X034225Y008100D03*
X036350Y007608D03*
X036350Y007600D03*
X035850Y007116D03*
X035850Y007100D03*
X031725Y005975D03*
X029475Y005475D03*
X031725Y005100D03*
X029475Y006475D03*
X029475Y006975D03*
X029475Y007975D03*
X027850Y009475D03*
X022850Y009475D03*
X019475Y008350D03*
X020350Y007975D03*
X018850Y009475D03*
X018350Y009475D03*
X017850Y009475D03*
X012850Y009475D03*
X007850Y009475D03*
X024225Y005850D03*
X026725Y005850D03*
X034225Y003100D03*
X034225Y002600D03*
X035850Y002116D03*
X036350Y002608D03*
M02*
