G75*
%MOIN*%
%OFA0B0*%
%FSLAX24Y24*%
%IPPOS*%
%LPD*%
%AMOC8*
5,1,8,0,0,1.08239X$1,22.5*
%
%ADD10C,0.0000*%
%ADD11R,0.0118X0.0591*%
%ADD12R,0.0591X0.0118*%
%ADD13R,0.0512X0.0591*%
%ADD14C,0.0440*%
%ADD15R,0.0591X0.0512*%
%ADD16R,0.0740X0.0740*%
%ADD17C,0.0740*%
%ADD18R,0.0315X0.0787*%
%ADD19R,0.0827X0.1181*%
%ADD20R,0.0787X0.0315*%
%ADD21R,0.1181X0.0827*%
%ADD22R,0.0800X0.0260*%
%ADD23R,0.0260X0.0800*%
%ADD24R,0.0472X0.0472*%
%ADD25OC8,0.0740*%
%ADD26R,0.0515X0.0515*%
%ADD27C,0.0515*%
%ADD28C,0.0050*%
%ADD29C,0.0160*%
%ADD30C,0.0396*%
%ADD31C,0.0120*%
D10*
X000100Y000100D02*
X000100Y012350D01*
X037100Y012350D01*
X037100Y000100D01*
X000100Y000100D01*
X000417Y007600D02*
X000419Y007641D01*
X000425Y007682D01*
X000435Y007722D01*
X000448Y007761D01*
X000465Y007798D01*
X000486Y007834D01*
X000510Y007868D01*
X000537Y007899D01*
X000566Y007927D01*
X000599Y007953D01*
X000633Y007975D01*
X000670Y007994D01*
X000708Y008009D01*
X000748Y008021D01*
X000788Y008029D01*
X000829Y008033D01*
X000871Y008033D01*
X000912Y008029D01*
X000952Y008021D01*
X000992Y008009D01*
X001030Y007994D01*
X001066Y007975D01*
X001101Y007953D01*
X001134Y007927D01*
X001163Y007899D01*
X001190Y007868D01*
X001214Y007834D01*
X001235Y007798D01*
X001252Y007761D01*
X001265Y007722D01*
X001275Y007682D01*
X001281Y007641D01*
X001283Y007600D01*
X001281Y007559D01*
X001275Y007518D01*
X001265Y007478D01*
X001252Y007439D01*
X001235Y007402D01*
X001214Y007366D01*
X001190Y007332D01*
X001163Y007301D01*
X001134Y007273D01*
X001101Y007247D01*
X001067Y007225D01*
X001030Y007206D01*
X000992Y007191D01*
X000952Y007179D01*
X000912Y007171D01*
X000871Y007167D01*
X000829Y007167D01*
X000788Y007171D01*
X000748Y007179D01*
X000708Y007191D01*
X000670Y007206D01*
X000634Y007225D01*
X000599Y007247D01*
X000566Y007273D01*
X000537Y007301D01*
X000510Y007332D01*
X000486Y007366D01*
X000465Y007402D01*
X000448Y007439D01*
X000435Y007478D01*
X000425Y007518D01*
X000419Y007559D01*
X000417Y007600D01*
X033292Y000850D02*
X033294Y000891D01*
X033300Y000932D01*
X033310Y000972D01*
X033323Y001011D01*
X033340Y001048D01*
X033361Y001084D01*
X033385Y001118D01*
X033412Y001149D01*
X033441Y001177D01*
X033474Y001203D01*
X033508Y001225D01*
X033545Y001244D01*
X033583Y001259D01*
X033623Y001271D01*
X033663Y001279D01*
X033704Y001283D01*
X033746Y001283D01*
X033787Y001279D01*
X033827Y001271D01*
X033867Y001259D01*
X033905Y001244D01*
X033941Y001225D01*
X033976Y001203D01*
X034009Y001177D01*
X034038Y001149D01*
X034065Y001118D01*
X034089Y001084D01*
X034110Y001048D01*
X034127Y001011D01*
X034140Y000972D01*
X034150Y000932D01*
X034156Y000891D01*
X034158Y000850D01*
X034156Y000809D01*
X034150Y000768D01*
X034140Y000728D01*
X034127Y000689D01*
X034110Y000652D01*
X034089Y000616D01*
X034065Y000582D01*
X034038Y000551D01*
X034009Y000523D01*
X033976Y000497D01*
X033942Y000475D01*
X033905Y000456D01*
X033867Y000441D01*
X033827Y000429D01*
X033787Y000421D01*
X033746Y000417D01*
X033704Y000417D01*
X033663Y000421D01*
X033623Y000429D01*
X033583Y000441D01*
X033545Y000456D01*
X033509Y000475D01*
X033474Y000497D01*
X033441Y000523D01*
X033412Y000551D01*
X033385Y000582D01*
X033361Y000616D01*
X033340Y000652D01*
X033323Y000689D01*
X033310Y000728D01*
X033300Y000768D01*
X033294Y000809D01*
X033292Y000850D01*
X035917Y011600D02*
X035919Y011641D01*
X035925Y011682D01*
X035935Y011722D01*
X035948Y011761D01*
X035965Y011798D01*
X035986Y011834D01*
X036010Y011868D01*
X036037Y011899D01*
X036066Y011927D01*
X036099Y011953D01*
X036133Y011975D01*
X036170Y011994D01*
X036208Y012009D01*
X036248Y012021D01*
X036288Y012029D01*
X036329Y012033D01*
X036371Y012033D01*
X036412Y012029D01*
X036452Y012021D01*
X036492Y012009D01*
X036530Y011994D01*
X036566Y011975D01*
X036601Y011953D01*
X036634Y011927D01*
X036663Y011899D01*
X036690Y011868D01*
X036714Y011834D01*
X036735Y011798D01*
X036752Y011761D01*
X036765Y011722D01*
X036775Y011682D01*
X036781Y011641D01*
X036783Y011600D01*
X036781Y011559D01*
X036775Y011518D01*
X036765Y011478D01*
X036752Y011439D01*
X036735Y011402D01*
X036714Y011366D01*
X036690Y011332D01*
X036663Y011301D01*
X036634Y011273D01*
X036601Y011247D01*
X036567Y011225D01*
X036530Y011206D01*
X036492Y011191D01*
X036452Y011179D01*
X036412Y011171D01*
X036371Y011167D01*
X036329Y011167D01*
X036288Y011171D01*
X036248Y011179D01*
X036208Y011191D01*
X036170Y011206D01*
X036134Y011225D01*
X036099Y011247D01*
X036066Y011273D01*
X036037Y011301D01*
X036010Y011332D01*
X035986Y011366D01*
X035965Y011402D01*
X035948Y011439D01*
X035935Y011478D01*
X035925Y011518D01*
X035919Y011559D01*
X035917Y011600D01*
D11*
X019087Y007750D03*
X018890Y007750D03*
X018694Y007750D03*
X018497Y007750D03*
X018300Y007750D03*
X018103Y007750D03*
X017906Y007750D03*
X017709Y007750D03*
X017512Y007750D03*
X017316Y007750D03*
X017119Y007750D03*
X016922Y007750D03*
X016725Y007750D03*
X016528Y007750D03*
X016331Y007750D03*
X016134Y007750D03*
X015938Y007750D03*
X015741Y007750D03*
X015544Y007750D03*
X015347Y007750D03*
X015150Y007750D03*
X014953Y007750D03*
X014756Y007750D03*
X014560Y007750D03*
X014363Y007750D03*
X014363Y001450D03*
X014560Y001450D03*
X014756Y001450D03*
X014953Y001450D03*
X015150Y001450D03*
X015347Y001450D03*
X015544Y001450D03*
X015741Y001450D03*
X015938Y001450D03*
X016134Y001450D03*
X016331Y001450D03*
X016528Y001450D03*
X016725Y001450D03*
X016922Y001450D03*
X017119Y001450D03*
X017316Y001450D03*
X017512Y001450D03*
X017709Y001450D03*
X017906Y001450D03*
X018103Y001450D03*
X018300Y001450D03*
X018497Y001450D03*
X018694Y001450D03*
X018890Y001450D03*
X019087Y001450D03*
D12*
X019875Y002238D03*
X019875Y002435D03*
X019875Y002631D03*
X019875Y002828D03*
X019875Y003025D03*
X019875Y003222D03*
X019875Y003419D03*
X019875Y003616D03*
X019875Y003813D03*
X019875Y004009D03*
X019875Y004206D03*
X019875Y004403D03*
X019875Y004600D03*
X019875Y004797D03*
X019875Y004994D03*
X019875Y005191D03*
X019875Y005387D03*
X019875Y005584D03*
X019875Y005781D03*
X019875Y005978D03*
X019875Y006175D03*
X019875Y006372D03*
X019875Y006569D03*
X019875Y006765D03*
X019875Y006962D03*
X013575Y006962D03*
X013575Y006765D03*
X013575Y006569D03*
X013575Y006372D03*
X013575Y006175D03*
X013575Y005978D03*
X013575Y005781D03*
X013575Y005584D03*
X013575Y005387D03*
X013575Y005191D03*
X013575Y004994D03*
X013575Y004797D03*
X013575Y004600D03*
X013575Y004403D03*
X013575Y004206D03*
X013575Y004009D03*
X013575Y003813D03*
X013575Y003616D03*
X013575Y003419D03*
X013575Y003222D03*
X013575Y003025D03*
X013575Y002828D03*
X013575Y002631D03*
X013575Y002435D03*
X013575Y002238D03*
D13*
X011435Y001600D03*
X010765Y001600D03*
X003685Y001850D03*
X003015Y001850D03*
X003015Y002725D03*
X003685Y002725D03*
X031640Y002350D03*
X032310Y002350D03*
X032310Y001600D03*
X031640Y001600D03*
X031640Y003100D03*
X032310Y003100D03*
D14*
X010695Y004225D02*
X010255Y004225D01*
X010255Y006225D02*
X010695Y006225D01*
D15*
X008975Y006435D03*
X008975Y005765D03*
X008975Y004685D03*
X008975Y004015D03*
X021475Y003810D03*
X021475Y003140D03*
X021475Y006640D03*
X021475Y007310D03*
D16*
X007475Y002725D03*
X001350Y000850D03*
D17*
X001350Y001850D03*
X001350Y002850D03*
X001350Y003850D03*
D18*
X001866Y010116D03*
X002358Y010116D03*
X002850Y010116D03*
X003342Y010116D03*
X003834Y010116D03*
X006866Y010116D03*
X007358Y010116D03*
X007850Y010116D03*
X008342Y010116D03*
X008834Y010116D03*
X011866Y010116D03*
X012358Y010116D03*
X012850Y010116D03*
X013342Y010116D03*
X013834Y010116D03*
X016866Y010116D03*
X017358Y010116D03*
X017850Y010116D03*
X018342Y010116D03*
X018834Y010116D03*
X021866Y010116D03*
X022358Y010116D03*
X022850Y010116D03*
X023342Y010116D03*
X023834Y010116D03*
X026866Y010116D03*
X027358Y010116D03*
X027850Y010116D03*
X028342Y010116D03*
X028834Y010116D03*
X031866Y010116D03*
X032358Y010116D03*
X032850Y010116D03*
X033342Y010116D03*
X033834Y010116D03*
D19*
X034819Y011346D03*
X030881Y011346D03*
X029819Y011346D03*
X025881Y011346D03*
X024819Y011346D03*
X020881Y011346D03*
X019819Y011346D03*
X015881Y011346D03*
X014819Y011346D03*
X010881Y011346D03*
X009819Y011346D03*
X005881Y011346D03*
X004819Y011346D03*
X000881Y011346D03*
D20*
X034866Y009084D03*
X034866Y008592D03*
X034866Y008100D03*
X034866Y007608D03*
X034866Y007116D03*
X034866Y004084D03*
X034866Y003592D03*
X034866Y003100D03*
X034866Y002608D03*
X034866Y002116D03*
D21*
X036096Y001131D03*
X036096Y005069D03*
X036096Y006131D03*
X036096Y010069D03*
D22*
X032560Y007975D03*
X032560Y007475D03*
X032560Y006975D03*
X032560Y006475D03*
X032560Y005975D03*
X032560Y005475D03*
X032560Y004975D03*
X032560Y004475D03*
X030140Y004475D03*
X030140Y004975D03*
X030140Y005475D03*
X030140Y005975D03*
X030140Y006475D03*
X030140Y006975D03*
X030140Y007475D03*
X030140Y007975D03*
D23*
X027725Y007560D03*
X027225Y007560D03*
X026725Y007560D03*
X026225Y007560D03*
X025725Y007560D03*
X025225Y007560D03*
X024725Y007560D03*
X024225Y007560D03*
X024225Y005140D03*
X024725Y005140D03*
X025225Y005140D03*
X025725Y005140D03*
X026225Y005140D03*
X026725Y005140D03*
X027225Y005140D03*
X027725Y005140D03*
X006850Y005140D03*
X006350Y005140D03*
X005850Y005140D03*
X005350Y005140D03*
X004850Y005140D03*
X004350Y005140D03*
X003850Y005140D03*
X003350Y005140D03*
X003350Y007560D03*
X003850Y007560D03*
X004350Y007560D03*
X004850Y007560D03*
X005350Y007560D03*
X005850Y007560D03*
X006350Y007560D03*
X006850Y007560D03*
D24*
X009312Y001600D03*
X010138Y001600D03*
X030187Y001600D03*
X031013Y001600D03*
X031013Y002350D03*
X030187Y002350D03*
X030187Y003100D03*
X031013Y003100D03*
D25*
X007475Y001725D03*
X006475Y001725D03*
X005475Y001725D03*
X005475Y002725D03*
X006475Y002725D03*
D26*
X024131Y001081D03*
D27*
X024919Y001081D03*
X025706Y001081D03*
X026494Y001081D03*
X027281Y001081D03*
X028069Y001081D03*
X028069Y001869D03*
X027281Y001869D03*
X026494Y001869D03*
X025706Y001869D03*
X024919Y001869D03*
X024131Y001869D03*
D28*
X023738Y002262D02*
X023738Y000688D01*
X028462Y000688D01*
X028462Y002262D01*
X023738Y002262D01*
D29*
X023888Y002388D02*
X029062Y002388D01*
X029850Y001600D01*
X030187Y001600D01*
X031013Y001600D02*
X031640Y001600D01*
X032310Y001600D02*
X032310Y001310D01*
X032081Y001081D01*
X028069Y001081D01*
X028069Y001869D01*
X029475Y002725D02*
X029850Y002350D01*
X030187Y002350D01*
X031013Y002350D02*
X031640Y002350D01*
X032310Y002350D02*
X032310Y003100D01*
X031640Y003100D02*
X031013Y003100D01*
X030187Y003100D02*
X023600Y003100D01*
X022475Y001975D01*
X018100Y001975D01*
X017850Y000850D02*
X021850Y000850D01*
X023725Y002725D01*
X029475Y002725D01*
X032310Y002350D02*
X033975Y002350D01*
X034225Y002600D01*
X034858Y002600D01*
X034866Y002608D01*
X036350Y002608D01*
X035850Y002116D02*
X034866Y002116D01*
X032310Y002350D02*
X032310Y001600D01*
X034225Y003100D02*
X034866Y003100D01*
X034866Y003592D02*
X033358Y003592D01*
X032850Y004100D01*
X031475Y004100D01*
X030600Y004975D01*
X030140Y004975D01*
X030140Y004475D02*
X029100Y004475D01*
X029100Y007475D01*
X029100Y009100D01*
X028834Y009366D01*
X028834Y010116D01*
X028850Y010116D01*
X028850Y011100D01*
X028350Y011600D02*
X028350Y010116D01*
X028342Y010116D01*
X027850Y010116D02*
X027850Y009475D01*
X027358Y008967D02*
X028100Y008225D01*
X028100Y007100D01*
X028108Y007108D01*
X028100Y007100D02*
X027225Y006225D01*
X027225Y005140D01*
X027725Y005140D02*
X027725Y004475D01*
X027350Y004100D01*
X024725Y004100D01*
X024350Y004100D01*
X023600Y004850D01*
X022850Y004850D01*
X022100Y004100D01*
X022100Y003350D01*
X021850Y003100D01*
X021515Y003100D01*
X021475Y003140D01*
X023888Y002388D02*
X022100Y000600D01*
X017725Y000600D01*
X016100Y000850D02*
X013100Y000850D01*
X011850Y002100D01*
X009725Y002100D01*
X009312Y001687D01*
X009312Y001600D01*
X008225Y001600D01*
X008100Y001725D01*
X008100Y004475D01*
X008100Y006975D01*
X008475Y007350D01*
X010725Y007350D01*
X010725Y006975D02*
X008600Y006975D01*
X008475Y006850D01*
X008475Y005975D01*
X008725Y005725D01*
X008975Y005725D01*
X008975Y004685D01*
X009640Y004015D02*
X009850Y004225D01*
X010475Y004225D01*
X009640Y004015D02*
X008975Y004015D01*
X007600Y004225D02*
X006850Y003475D01*
X006225Y003475D01*
X005475Y002725D01*
X003685Y002725D01*
X003685Y001850D01*
X003015Y001850D02*
X001350Y001850D01*
X003015Y002725D02*
X003015Y004060D01*
X002350Y004725D01*
X003850Y005140D02*
X003850Y004100D01*
X003015Y004100D01*
X003015Y004060D01*
X002350Y004100D02*
X002350Y002850D01*
X003850Y004100D02*
X006475Y004100D01*
X006850Y004475D01*
X006850Y005140D01*
X006350Y005140D02*
X006350Y006350D01*
X007225Y007225D01*
X007225Y007975D01*
X007975Y008725D01*
X011350Y008725D01*
X012358Y009733D01*
X012358Y010116D01*
X012850Y010116D02*
X012850Y009475D01*
X011850Y009725D02*
X011850Y010100D01*
X011866Y010116D01*
X011850Y009725D02*
X011225Y009100D01*
X007850Y009100D01*
X006850Y008100D01*
X006850Y007560D01*
X006350Y007560D02*
X006350Y008100D01*
X007350Y009100D01*
X007350Y010108D01*
X007358Y010116D01*
X006866Y010116D02*
X006866Y009116D01*
X005850Y008100D01*
X005850Y007560D01*
X005350Y007560D02*
X005350Y008100D01*
X004350Y009100D01*
X002725Y009100D01*
X002358Y009467D01*
X002358Y010116D01*
X002850Y010116D02*
X002850Y009475D01*
X002600Y008725D02*
X001866Y009459D01*
X001866Y010116D01*
X003342Y010116D02*
X003342Y011592D01*
X003350Y011600D01*
X003350Y010116D01*
X003342Y010116D01*
X003834Y010116D02*
X003834Y011084D01*
X003850Y011100D01*
X003850Y010116D01*
X003834Y010116D01*
X004225Y008725D02*
X002600Y008725D01*
X004225Y008725D02*
X004850Y008100D01*
X004850Y007560D01*
X003350Y007560D02*
X003350Y006725D01*
X004225Y006725D01*
X005350Y005600D01*
X005350Y005140D01*
X004850Y005140D02*
X004850Y004475D01*
X004350Y004475D02*
X004350Y005140D01*
X005850Y005140D02*
X005850Y005850D01*
X003350Y006725D02*
X001850Y006725D01*
X007600Y006975D02*
X007600Y004225D01*
X008975Y005725D02*
X008975Y005765D01*
X009640Y006435D02*
X009850Y006225D01*
X010475Y006225D01*
X009640Y006435D02*
X008975Y006435D01*
X008350Y007725D02*
X007600Y006975D01*
X008350Y007725D02*
X010725Y007725D01*
X012225Y007850D02*
X012225Y006725D01*
X012600Y006975D02*
X012600Y007725D01*
X013225Y008350D01*
X018475Y008350D01*
X018600Y008600D02*
X012975Y008600D01*
X012225Y007850D01*
X007850Y009475D02*
X007850Y010116D01*
X008342Y010116D02*
X008342Y011600D01*
X008834Y011100D02*
X008834Y010116D01*
X013342Y010116D02*
X013342Y011600D01*
X013834Y011100D02*
X013834Y010116D01*
X016866Y010116D02*
X016866Y009459D01*
X017475Y008850D01*
X021475Y008850D01*
X021975Y008350D01*
X025475Y008350D01*
X025725Y008100D01*
X025725Y007560D01*
X026225Y007560D02*
X026225Y008100D01*
X025725Y008600D01*
X022225Y008600D01*
X021725Y009100D01*
X017725Y009100D01*
X017358Y009467D01*
X017358Y010116D01*
X017850Y010116D02*
X017850Y009475D01*
X018342Y009483D02*
X018350Y009475D01*
X018342Y009483D02*
X018342Y010116D01*
X018342Y011600D01*
X018850Y011100D02*
X018850Y010116D01*
X018834Y010116D01*
X018834Y009491D01*
X018850Y009475D01*
X021866Y009459D02*
X022475Y008850D01*
X025975Y008850D01*
X026725Y008100D01*
X026725Y007560D01*
X027225Y007560D02*
X027225Y008100D01*
X026225Y009100D01*
X022725Y009100D01*
X022358Y009467D01*
X022358Y010116D01*
X022850Y010116D02*
X022850Y009475D01*
X021866Y009459D02*
X021866Y010116D01*
X023342Y010116D02*
X023350Y010116D01*
X023350Y011600D01*
X023342Y011600D01*
X023342Y010116D01*
X023834Y010116D02*
X023834Y011100D01*
X026866Y010116D02*
X026866Y008959D01*
X027725Y008100D01*
X027725Y007560D01*
X029100Y007475D02*
X030140Y007475D01*
X030140Y006975D02*
X029475Y006975D01*
X029475Y006475D02*
X030140Y006475D01*
X031866Y006709D02*
X032100Y006475D01*
X032560Y006475D01*
X031866Y006709D02*
X031866Y010116D01*
X032350Y010116D02*
X032350Y008475D01*
X032975Y007975D02*
X033350Y008350D01*
X033350Y010108D01*
X033342Y010116D01*
X033342Y011600D01*
X033834Y011100D02*
X033834Y010116D01*
X032850Y010116D02*
X032850Y009475D01*
X033600Y008475D02*
X034209Y009084D01*
X034866Y009084D01*
X034866Y008592D02*
X034217Y008592D01*
X033850Y008225D01*
X033850Y005850D01*
X032975Y004975D01*
X032560Y004975D01*
X031725Y005100D02*
X030850Y005975D01*
X030140Y005975D01*
X030140Y005475D02*
X029475Y005475D01*
X031725Y005975D02*
X032560Y005975D01*
X032975Y005475D02*
X033600Y006100D01*
X033600Y008475D01*
X034225Y008100D02*
X034866Y008100D01*
X034866Y007608D02*
X036342Y007608D01*
X036350Y007600D01*
X036350Y007608D02*
X034866Y007608D01*
X034866Y007116D02*
X034866Y007100D01*
X035850Y007100D01*
X035850Y007116D02*
X034866Y007116D01*
X032975Y007975D02*
X032560Y007975D01*
X030140Y007975D02*
X029475Y007975D01*
X027358Y008967D02*
X027358Y010116D01*
X032350Y010116D02*
X032358Y010116D01*
X024225Y007560D02*
X024225Y006850D01*
X022475Y006850D01*
X021975Y007350D01*
X021515Y007350D01*
X021475Y007310D01*
X021475Y007850D01*
X020975Y008350D01*
X019475Y008350D01*
X024225Y006850D02*
X024975Y006850D01*
X026225Y005600D01*
X026225Y005140D01*
X025725Y005140D02*
X025725Y004475D01*
X025225Y004475D02*
X025225Y005140D01*
X024725Y005140D02*
X024725Y005350D01*
X024725Y005140D02*
X024725Y004100D01*
X027725Y004475D02*
X029100Y004475D01*
X026725Y005140D02*
X026725Y005850D01*
X024225Y005850D02*
X024225Y005140D01*
X021475Y006640D02*
X021422Y006569D01*
X032560Y005475D02*
X032975Y005475D01*
X032975Y004475D02*
X032560Y004475D01*
X032975Y004475D02*
X033366Y004084D01*
X034866Y004084D01*
X011475Y001560D02*
X011475Y001100D01*
X011225Y000850D01*
X005475Y000850D01*
X007475Y001725D02*
X008100Y001725D01*
X010138Y001600D02*
X010765Y001600D01*
X011435Y001600D02*
X011475Y001560D01*
D30*
X014725Y002725D03*
X014975Y003100D03*
X015225Y003475D03*
X015475Y003850D03*
X015725Y004225D03*
X015975Y004600D03*
X016350Y004975D03*
X018600Y005725D03*
X018225Y005975D03*
X017850Y006225D03*
X018975Y005475D03*
X020600Y005850D03*
X021100Y005725D03*
X021600Y005600D03*
X022100Y005475D03*
X022600Y005350D03*
X024225Y005850D03*
X026725Y005850D03*
X029475Y005475D03*
X031725Y005100D03*
X031725Y005975D03*
X029475Y006475D03*
X029475Y006975D03*
X029475Y007975D03*
X032350Y008475D03*
X034225Y008100D03*
X036350Y007608D03*
X036350Y007600D03*
X035850Y007116D03*
X035850Y007100D03*
X032850Y009475D03*
X033834Y011100D03*
X033342Y011600D03*
X028850Y011100D03*
X028350Y011600D03*
X023834Y011100D03*
X023350Y011600D03*
X023342Y011600D03*
X018850Y011100D03*
X018342Y011600D03*
X013834Y011100D03*
X013342Y011600D03*
X008834Y011100D03*
X008342Y011600D03*
X003850Y011100D03*
X003350Y011600D03*
X002850Y009475D03*
X007850Y009475D03*
X012850Y009475D03*
X017850Y009475D03*
X018350Y009475D03*
X018850Y009475D03*
X019475Y008350D03*
X020350Y007975D03*
X022850Y009475D03*
X027850Y009475D03*
X015225Y006475D03*
X014850Y006100D03*
X014350Y006100D03*
X012225Y006725D03*
X012600Y006975D03*
X005850Y005850D03*
X002350Y004725D03*
X002350Y004100D03*
X004350Y004475D03*
X004850Y004475D03*
X006850Y004475D03*
X008100Y004475D03*
X002350Y002850D03*
X005475Y000850D03*
X022475Y003725D03*
X022850Y004100D03*
X023225Y004475D03*
X025225Y004475D03*
X025725Y004475D03*
X034225Y003100D03*
X034225Y002600D03*
X035850Y002116D03*
X036350Y002608D03*
X001850Y006725D03*
D31*
X010475Y006225D02*
X010975Y006225D01*
X011616Y005584D01*
X013575Y005584D01*
X013575Y005387D02*
X012137Y005387D01*
X010975Y004225D01*
X010475Y004225D01*
X013575Y004206D02*
X014331Y004206D01*
X015100Y004975D01*
X016350Y004975D01*
X015975Y004600D02*
X015100Y004600D01*
X014509Y004009D01*
X013575Y004009D01*
X013575Y003813D02*
X014688Y003813D01*
X015100Y004225D01*
X015725Y004225D01*
X015475Y003850D02*
X015100Y003850D01*
X014866Y003616D01*
X013575Y003616D01*
X013575Y003419D02*
X015169Y003419D01*
X015225Y003475D01*
X014853Y003222D02*
X014975Y003100D01*
X014853Y003222D02*
X013575Y003222D01*
X013575Y003025D02*
X014425Y003025D01*
X014725Y002725D01*
X016528Y002631D02*
X017119Y003222D01*
X017119Y005781D01*
X013575Y005781D01*
X011919Y005781D01*
X010725Y006975D01*
X010725Y007350D02*
X012097Y005978D01*
X013575Y005978D01*
X013575Y006175D02*
X012275Y006175D01*
X010725Y007725D01*
X014350Y006475D02*
X014350Y006100D01*
X014850Y006100D02*
X014850Y006600D01*
X015150Y006900D01*
X015150Y007750D01*
X014953Y007750D02*
X014953Y007078D01*
X014350Y006475D01*
X015225Y006475D02*
X015347Y006597D01*
X015347Y007750D01*
X017119Y007750D02*
X017119Y006765D01*
X017119Y005781D01*
X018225Y005975D02*
X018425Y006175D01*
X019875Y006175D01*
X019875Y005978D02*
X018853Y005978D01*
X018600Y005725D01*
X018975Y005475D02*
X019281Y005781D01*
X019875Y005781D01*
X019875Y005584D02*
X020334Y005584D01*
X020600Y005850D01*
X020762Y005387D02*
X021100Y005725D01*
X020762Y005387D02*
X019875Y005387D01*
X019875Y005191D02*
X021191Y005191D01*
X021600Y005600D01*
X022100Y005475D02*
X021619Y004994D01*
X019875Y004994D01*
X019875Y004797D02*
X022047Y004797D01*
X022600Y005350D01*
X023225Y004475D02*
X023225Y003100D01*
X022363Y002238D01*
X019875Y002238D01*
X019875Y002435D02*
X022185Y002435D01*
X022850Y003100D01*
X022850Y004100D01*
X022475Y003725D02*
X022475Y003100D01*
X022006Y002631D01*
X019875Y002631D01*
X019875Y003025D02*
X021360Y003025D01*
X021475Y003140D01*
X021100Y003850D02*
X020472Y003222D01*
X019875Y003222D01*
X017119Y003222D01*
X016528Y002631D02*
X016528Y001450D01*
X016331Y001450D02*
X016331Y001081D01*
X016100Y000850D01*
X017512Y000813D02*
X017725Y000600D01*
X017850Y000850D02*
X017709Y000991D01*
X017709Y001450D01*
X017512Y001450D02*
X017512Y000813D01*
X017906Y001781D02*
X018100Y001975D01*
X021100Y003850D02*
X021435Y003850D01*
X021475Y003810D01*
X017997Y006372D02*
X017850Y006225D01*
X017997Y006372D02*
X019875Y006372D01*
X019875Y006569D02*
X021403Y006569D01*
X021475Y006640D01*
X021100Y007350D02*
X020515Y006765D01*
X019875Y006765D01*
X017119Y006765D01*
X017316Y007259D02*
X017613Y006962D01*
X019875Y006962D01*
X020212Y006962D01*
X020350Y007100D01*
X020350Y007975D01*
X018890Y007750D02*
X018890Y008310D01*
X018600Y008600D01*
X018475Y008350D02*
X018694Y008131D01*
X018694Y007750D01*
X017316Y007750D02*
X017316Y007259D01*
X021100Y007350D02*
X021435Y007350D01*
X021475Y007310D01*
M02*
