G75*
%MOIN*%
%OFA0B0*%
%FSLAX24Y24*%
%IPPOS*%
%LPD*%
%AMOC8*
5,1,8,0,0,1.08239X$1,22.5*
%
%ADD10C,0.0000*%
%ADD11C,0.0040*%
%ADD12C,0.0030*%
%ADD13C,0.0100*%
%ADD14C,0.0060*%
%ADD15C,0.0020*%
%ADD16C,0.0050*%
%ADD17C,0.0080*%
%ADD18R,0.0197X0.0344*%
%ADD19R,0.0344X0.0197*%
%ADD20R,0.0118X0.0059*%
%ADD21R,0.0118X0.0118*%
D10*
X000100Y000100D02*
X000100Y012350D01*
X037100Y012350D01*
X037100Y000100D01*
X000100Y000100D01*
X000417Y007600D02*
X000419Y007641D01*
X000425Y007682D01*
X000435Y007722D01*
X000448Y007761D01*
X000465Y007798D01*
X000486Y007834D01*
X000510Y007868D01*
X000537Y007899D01*
X000566Y007927D01*
X000599Y007953D01*
X000633Y007975D01*
X000670Y007994D01*
X000708Y008009D01*
X000748Y008021D01*
X000788Y008029D01*
X000829Y008033D01*
X000871Y008033D01*
X000912Y008029D01*
X000952Y008021D01*
X000992Y008009D01*
X001030Y007994D01*
X001066Y007975D01*
X001101Y007953D01*
X001134Y007927D01*
X001163Y007899D01*
X001190Y007868D01*
X001214Y007834D01*
X001235Y007798D01*
X001252Y007761D01*
X001265Y007722D01*
X001275Y007682D01*
X001281Y007641D01*
X001283Y007600D01*
X001281Y007559D01*
X001275Y007518D01*
X001265Y007478D01*
X001252Y007439D01*
X001235Y007402D01*
X001214Y007366D01*
X001190Y007332D01*
X001163Y007301D01*
X001134Y007273D01*
X001101Y007247D01*
X001067Y007225D01*
X001030Y007206D01*
X000992Y007191D01*
X000952Y007179D01*
X000912Y007171D01*
X000871Y007167D01*
X000829Y007167D01*
X000788Y007171D01*
X000748Y007179D01*
X000708Y007191D01*
X000670Y007206D01*
X000634Y007225D01*
X000599Y007247D01*
X000566Y007273D01*
X000537Y007301D01*
X000510Y007332D01*
X000486Y007366D01*
X000465Y007402D01*
X000448Y007439D01*
X000435Y007478D01*
X000425Y007518D01*
X000419Y007559D01*
X000417Y007600D01*
X033292Y000850D02*
X033294Y000891D01*
X033300Y000932D01*
X033310Y000972D01*
X033323Y001011D01*
X033340Y001048D01*
X033361Y001084D01*
X033385Y001118D01*
X033412Y001149D01*
X033441Y001177D01*
X033474Y001203D01*
X033508Y001225D01*
X033545Y001244D01*
X033583Y001259D01*
X033623Y001271D01*
X033663Y001279D01*
X033704Y001283D01*
X033746Y001283D01*
X033787Y001279D01*
X033827Y001271D01*
X033867Y001259D01*
X033905Y001244D01*
X033941Y001225D01*
X033976Y001203D01*
X034009Y001177D01*
X034038Y001149D01*
X034065Y001118D01*
X034089Y001084D01*
X034110Y001048D01*
X034127Y001011D01*
X034140Y000972D01*
X034150Y000932D01*
X034156Y000891D01*
X034158Y000850D01*
X034156Y000809D01*
X034150Y000768D01*
X034140Y000728D01*
X034127Y000689D01*
X034110Y000652D01*
X034089Y000616D01*
X034065Y000582D01*
X034038Y000551D01*
X034009Y000523D01*
X033976Y000497D01*
X033942Y000475D01*
X033905Y000456D01*
X033867Y000441D01*
X033827Y000429D01*
X033787Y000421D01*
X033746Y000417D01*
X033704Y000417D01*
X033663Y000421D01*
X033623Y000429D01*
X033583Y000441D01*
X033545Y000456D01*
X033509Y000475D01*
X033474Y000497D01*
X033441Y000523D01*
X033412Y000551D01*
X033385Y000582D01*
X033361Y000616D01*
X033340Y000652D01*
X033323Y000689D01*
X033310Y000728D01*
X033300Y000768D01*
X033294Y000809D01*
X033292Y000850D01*
X035917Y011600D02*
X035919Y011641D01*
X035925Y011682D01*
X035935Y011722D01*
X035948Y011761D01*
X035965Y011798D01*
X035986Y011834D01*
X036010Y011868D01*
X036037Y011899D01*
X036066Y011927D01*
X036099Y011953D01*
X036133Y011975D01*
X036170Y011994D01*
X036208Y012009D01*
X036248Y012021D01*
X036288Y012029D01*
X036329Y012033D01*
X036371Y012033D01*
X036412Y012029D01*
X036452Y012021D01*
X036492Y012009D01*
X036530Y011994D01*
X036566Y011975D01*
X036601Y011953D01*
X036634Y011927D01*
X036663Y011899D01*
X036690Y011868D01*
X036714Y011834D01*
X036735Y011798D01*
X036752Y011761D01*
X036765Y011722D01*
X036775Y011682D01*
X036781Y011641D01*
X036783Y011600D01*
X036781Y011559D01*
X036775Y011518D01*
X036765Y011478D01*
X036752Y011439D01*
X036735Y011402D01*
X036714Y011366D01*
X036690Y011332D01*
X036663Y011301D01*
X036634Y011273D01*
X036601Y011247D01*
X036567Y011225D01*
X036530Y011206D01*
X036492Y011191D01*
X036452Y011179D01*
X036412Y011171D01*
X036371Y011167D01*
X036329Y011167D01*
X036288Y011171D01*
X036248Y011179D01*
X036208Y011191D01*
X036170Y011206D01*
X036134Y011225D01*
X036099Y011247D01*
X036066Y011273D01*
X036037Y011301D01*
X036010Y011332D01*
X035986Y011366D01*
X035965Y011402D01*
X035948Y011439D01*
X035935Y011478D01*
X035925Y011518D01*
X035919Y011559D01*
X035917Y011600D01*
D11*
X031443Y010372D02*
X031443Y010295D01*
X031366Y010218D01*
X031443Y010142D01*
X031443Y010065D01*
X031366Y009988D01*
X031213Y009988D01*
X031136Y010065D01*
X030983Y010065D02*
X030906Y009988D01*
X030752Y009988D01*
X030676Y010065D01*
X030906Y010218D02*
X030983Y010142D01*
X030983Y010065D01*
X030906Y010218D02*
X030752Y010218D01*
X030676Y010295D01*
X030676Y010372D01*
X030752Y010449D01*
X030906Y010449D01*
X030983Y010372D01*
X031136Y010372D02*
X031213Y010449D01*
X031366Y010449D01*
X031443Y010372D01*
X031366Y010218D02*
X031289Y010218D01*
X026443Y010218D02*
X026136Y010218D01*
X026366Y010449D01*
X026366Y009988D01*
X025983Y010065D02*
X025983Y010142D01*
X025906Y010218D01*
X025752Y010218D01*
X025676Y010295D01*
X025676Y010372D01*
X025752Y010449D01*
X025906Y010449D01*
X025983Y010372D01*
X025983Y010065D02*
X025906Y009988D01*
X025752Y009988D01*
X025676Y010065D01*
X021443Y010065D02*
X021366Y009988D01*
X021213Y009988D01*
X021136Y010065D01*
X020983Y010065D02*
X020906Y009988D01*
X020752Y009988D01*
X020676Y010065D01*
X020906Y010218D02*
X020983Y010142D01*
X020983Y010065D01*
X021443Y010065D02*
X021443Y010218D01*
X021366Y010295D01*
X021289Y010295D01*
X021136Y010218D01*
X021136Y010449D01*
X021443Y010449D01*
X020983Y010372D02*
X020906Y010449D01*
X020752Y010449D01*
X020676Y010372D01*
X020676Y010295D01*
X020752Y010218D01*
X020906Y010218D01*
X016443Y010142D02*
X016443Y010065D01*
X016366Y009988D01*
X016213Y009988D01*
X016136Y010065D01*
X016136Y010218D01*
X016366Y010218D01*
X016443Y010142D01*
X016289Y010372D02*
X016136Y010218D01*
X015983Y010142D02*
X015983Y010065D01*
X015906Y009988D01*
X015752Y009988D01*
X015676Y010065D01*
X015906Y010218D02*
X015983Y010142D01*
X015906Y010218D02*
X015752Y010218D01*
X015676Y010295D01*
X015676Y010372D01*
X015752Y010449D01*
X015906Y010449D01*
X015983Y010372D01*
X016289Y010372D02*
X016443Y010449D01*
X011443Y010449D02*
X011443Y010372D01*
X011136Y010065D01*
X011136Y009988D01*
X010983Y010065D02*
X010906Y009988D01*
X010752Y009988D01*
X010676Y010065D01*
X010906Y010218D02*
X010983Y010142D01*
X010983Y010065D01*
X010906Y010218D02*
X010752Y010218D01*
X010676Y010295D01*
X010676Y010372D01*
X010752Y010449D01*
X010906Y010449D01*
X010983Y010372D01*
X011136Y010449D02*
X011443Y010449D01*
X006443Y010372D02*
X006443Y010295D01*
X006366Y010218D01*
X006213Y010218D01*
X006136Y010295D01*
X006136Y010372D01*
X006213Y010449D01*
X006366Y010449D01*
X006443Y010372D01*
X006366Y010218D02*
X006443Y010142D01*
X006443Y010065D01*
X006366Y009988D01*
X006213Y009988D01*
X006136Y010065D01*
X006136Y010142D01*
X006213Y010218D01*
X005983Y010142D02*
X005983Y010065D01*
X005906Y009988D01*
X005752Y009988D01*
X005676Y010065D01*
X005906Y010218D02*
X005983Y010142D01*
X005906Y010218D02*
X005752Y010218D01*
X005676Y010295D01*
X005676Y010372D01*
X005752Y010449D01*
X005906Y010449D01*
X005983Y010372D01*
X001443Y010372D02*
X001443Y010065D01*
X001366Y009988D01*
X001213Y009988D01*
X001136Y010065D01*
X000983Y010065D02*
X000983Y010142D01*
X000906Y010218D01*
X000752Y010218D01*
X000676Y010295D01*
X000676Y010372D01*
X000752Y010449D01*
X000906Y010449D01*
X000983Y010372D01*
X001136Y010372D02*
X001136Y010295D01*
X001213Y010218D01*
X001443Y010218D01*
X001443Y010372D02*
X001366Y010449D01*
X001213Y010449D01*
X001136Y010372D01*
X000983Y010065D02*
X000906Y009988D01*
X000752Y009988D01*
X000676Y010065D01*
X008095Y006461D02*
X008171Y006537D01*
X008248Y006537D01*
X008555Y006230D01*
X008555Y006537D01*
X008095Y006461D02*
X008095Y006307D01*
X008171Y006230D01*
X008171Y006077D02*
X008095Y006000D01*
X008095Y005847D01*
X008171Y005770D01*
X008478Y005770D01*
X008555Y005847D01*
X008555Y006000D01*
X008478Y006077D01*
X008478Y004787D02*
X008555Y004711D01*
X008555Y004557D01*
X008478Y004480D01*
X008478Y004327D02*
X008555Y004250D01*
X008555Y004097D01*
X008478Y004020D01*
X008171Y004020D01*
X008095Y004097D01*
X008095Y004250D01*
X008171Y004327D01*
X008171Y004480D02*
X008095Y004557D01*
X008095Y004711D01*
X008171Y004787D01*
X008248Y004787D01*
X008325Y004711D01*
X008402Y004787D01*
X008478Y004787D01*
X008325Y004711D02*
X008325Y004634D01*
X003712Y003145D02*
X003405Y003145D01*
X003252Y003145D02*
X003098Y003298D01*
X003175Y003298D02*
X002945Y003298D01*
X002945Y003145D02*
X002945Y003605D01*
X003175Y003605D01*
X003252Y003529D01*
X003252Y003375D01*
X003175Y003298D01*
X003405Y003452D02*
X003559Y003605D01*
X003559Y003145D01*
X003413Y001430D02*
X003413Y000970D01*
X003260Y000970D02*
X003567Y000970D01*
X003106Y001047D02*
X003029Y000970D01*
X002876Y000970D01*
X002799Y001047D01*
X002799Y001354D01*
X002876Y001430D01*
X003029Y001430D01*
X003106Y001354D01*
X003260Y001277D02*
X003413Y001430D01*
X009324Y001129D02*
X009324Y000822D01*
X009401Y000745D01*
X009554Y000745D01*
X009631Y000822D01*
X009631Y001129D01*
X009554Y001205D01*
X009401Y001205D01*
X009324Y001129D01*
X009785Y001205D02*
X010092Y000745D01*
X010092Y001205D01*
X009785Y001205D02*
X009785Y000745D01*
X010624Y000720D02*
X010624Y001180D01*
X010854Y001180D01*
X010931Y001104D01*
X010931Y000950D01*
X010854Y000873D01*
X010624Y000873D01*
X010778Y000873D02*
X010931Y000720D01*
X011085Y000720D02*
X011392Y001027D01*
X011392Y001104D01*
X011315Y001180D01*
X011161Y001180D01*
X011085Y001104D01*
X011085Y000720D02*
X011392Y000720D01*
X012892Y001370D02*
X013046Y001370D01*
X012969Y001370D02*
X012969Y001830D01*
X012892Y001830D02*
X013046Y001830D01*
X013199Y001754D02*
X013199Y001447D01*
X013276Y001370D01*
X013429Y001370D01*
X013506Y001447D01*
X013660Y001370D02*
X013967Y001370D01*
X013813Y001370D02*
X013813Y001830D01*
X013660Y001677D01*
X013506Y001754D02*
X013429Y001830D01*
X013276Y001830D01*
X013199Y001754D01*
X021895Y003001D02*
X021971Y002924D01*
X022278Y002924D01*
X022355Y003001D01*
X022355Y003154D01*
X022278Y003231D01*
X021971Y003231D02*
X021895Y003154D01*
X021895Y003001D01*
X021895Y003385D02*
X022125Y003385D01*
X022048Y003538D01*
X022048Y003615D01*
X022125Y003692D01*
X022278Y003692D01*
X022355Y003615D01*
X022355Y003461D01*
X022278Y003385D01*
X021895Y003385D02*
X021895Y003692D01*
X023370Y003955D02*
X023677Y003955D01*
X023523Y003955D02*
X023523Y003495D01*
X023830Y003495D02*
X023984Y003495D01*
X023907Y003495D02*
X023907Y003802D01*
X023830Y003802D01*
X023907Y003955D02*
X023907Y004032D01*
X024214Y003802D02*
X024137Y003725D01*
X024137Y003572D01*
X024214Y003495D01*
X024444Y003495D01*
X024674Y003572D02*
X024751Y003495D01*
X024674Y003572D02*
X024674Y003879D01*
X024598Y003802D02*
X024751Y003802D01*
X024981Y003802D02*
X025135Y003802D01*
X025212Y003725D01*
X025212Y003495D01*
X024981Y003495D01*
X024905Y003572D01*
X024981Y003648D01*
X025212Y003648D01*
X025365Y003572D02*
X025442Y003495D01*
X025672Y003495D01*
X025902Y003572D02*
X025979Y003495D01*
X025902Y003572D02*
X025902Y003879D01*
X025825Y003802D02*
X025979Y003802D01*
X026132Y003725D02*
X026132Y003572D01*
X026209Y003495D01*
X026363Y003495D01*
X026439Y003572D01*
X026439Y003725D01*
X026363Y003802D01*
X026209Y003802D01*
X026132Y003725D01*
X026593Y003725D02*
X026593Y003572D01*
X026669Y003495D01*
X026823Y003495D01*
X026900Y003648D02*
X026593Y003648D01*
X026593Y003725D02*
X026669Y003802D01*
X026823Y003802D01*
X026900Y003725D01*
X026900Y003648D01*
X027514Y003725D02*
X027744Y003725D01*
X027820Y003648D01*
X027820Y003572D01*
X027744Y003495D01*
X027514Y003495D01*
X027514Y003955D01*
X027744Y003955D01*
X027820Y003879D01*
X027820Y003802D01*
X027744Y003725D01*
X027974Y003572D02*
X028051Y003648D01*
X028281Y003648D01*
X028281Y003725D02*
X028281Y003495D01*
X028051Y003495D01*
X027974Y003572D01*
X028204Y003802D02*
X028281Y003725D01*
X028204Y003802D02*
X028051Y003802D01*
X028434Y003725D02*
X028511Y003802D01*
X028741Y003802D01*
X028665Y003648D02*
X028511Y003648D01*
X028434Y003725D01*
X028434Y003495D02*
X028665Y003495D01*
X028741Y003572D01*
X028665Y003648D01*
X028895Y003648D02*
X029202Y003648D01*
X029202Y003725D01*
X029125Y003802D01*
X028971Y003802D01*
X028895Y003725D01*
X028895Y003572D01*
X028971Y003495D01*
X029125Y003495D01*
X029120Y003330D02*
X029120Y002870D01*
X029427Y002870D01*
X029580Y002947D02*
X029657Y002870D01*
X029811Y002870D01*
X029887Y002947D01*
X029887Y003023D01*
X029811Y003100D01*
X029734Y003100D01*
X029811Y003100D02*
X029887Y003177D01*
X029887Y003254D01*
X029811Y003330D01*
X029657Y003330D01*
X029580Y003254D01*
X029969Y003495D02*
X030122Y003648D01*
X030122Y003955D01*
X030276Y003879D02*
X030353Y003955D01*
X030506Y003955D01*
X030583Y003879D01*
X030583Y003802D01*
X030276Y003495D01*
X030583Y003495D01*
X029969Y003495D02*
X029815Y003648D01*
X029815Y003955D01*
X027820Y003129D02*
X027820Y003052D01*
X027744Y002975D01*
X027820Y002898D01*
X027820Y002822D01*
X027744Y002745D01*
X027590Y002745D01*
X027514Y002822D01*
X027360Y002745D02*
X027053Y002745D01*
X027207Y002745D02*
X027207Y003205D01*
X027053Y003052D01*
X026900Y003129D02*
X026593Y002822D01*
X026669Y002745D01*
X026823Y002745D01*
X026900Y002822D01*
X026900Y003129D01*
X026823Y003205D01*
X026669Y003205D01*
X026593Y003129D01*
X026593Y002822D01*
X026439Y002745D02*
X026132Y002745D01*
X026439Y003052D01*
X026439Y003129D01*
X026363Y003205D01*
X026209Y003205D01*
X026132Y003129D01*
X025979Y003129D02*
X025979Y002975D01*
X025902Y002898D01*
X025902Y003052D01*
X025749Y003052D01*
X025749Y002898D01*
X025902Y002898D01*
X025979Y002822D02*
X025902Y002745D01*
X025749Y002745D01*
X025672Y002822D01*
X025672Y003129D01*
X025749Y003205D01*
X025902Y003205D01*
X025979Y003129D01*
X025518Y003205D02*
X025518Y002822D01*
X025442Y002745D01*
X025288Y002745D01*
X025212Y002822D01*
X025212Y003205D01*
X025058Y003205D02*
X024751Y003205D01*
X024751Y002745D01*
X024598Y002822D02*
X024598Y003129D01*
X024521Y003205D01*
X024368Y003205D01*
X024291Y003129D01*
X024291Y002822D01*
X024368Y002745D01*
X024521Y002745D01*
X024598Y002822D01*
X024751Y002975D02*
X024905Y002975D01*
X024137Y002975D02*
X023830Y002975D01*
X023830Y002745D02*
X023830Y003205D01*
X023677Y003205D02*
X023370Y003205D01*
X023523Y003205D02*
X023523Y002745D01*
X024137Y002745D02*
X024137Y003205D01*
X025365Y003572D02*
X025365Y003725D01*
X025442Y003802D01*
X025672Y003802D01*
X024444Y003802D02*
X024214Y003802D01*
X027514Y003129D02*
X027590Y003205D01*
X027744Y003205D01*
X027820Y003129D01*
X027744Y002975D02*
X027667Y002975D01*
X029120Y002580D02*
X029120Y002120D01*
X029427Y002120D01*
X029580Y002120D02*
X029887Y002427D01*
X029887Y002504D01*
X029811Y002580D01*
X029657Y002580D01*
X029580Y002504D01*
X029580Y002120D02*
X029887Y002120D01*
X029734Y001830D02*
X029734Y001370D01*
X029887Y001370D02*
X029580Y001370D01*
X029427Y001370D02*
X029120Y001370D01*
X029120Y001830D01*
X029580Y001677D02*
X029734Y001830D01*
X032570Y001855D02*
X032570Y001395D01*
X032570Y001548D02*
X032800Y001548D01*
X032877Y001625D01*
X032877Y001779D01*
X032800Y001855D01*
X032570Y001855D01*
X033030Y001779D02*
X033107Y001855D01*
X033261Y001855D01*
X033337Y001779D01*
X033337Y001702D01*
X033261Y001625D01*
X033337Y001548D01*
X033337Y001472D01*
X033261Y001395D01*
X033107Y001395D01*
X033030Y001472D01*
X032877Y001395D02*
X032723Y001548D01*
X033184Y001625D02*
X033261Y001625D01*
X034301Y001670D02*
X034377Y001593D01*
X034531Y001593D01*
X034608Y001517D01*
X034608Y001440D01*
X034531Y001363D01*
X034377Y001363D01*
X034301Y001440D01*
X034761Y001363D02*
X035068Y001363D01*
X034914Y001363D02*
X034914Y001824D01*
X034761Y001670D01*
X034608Y001747D02*
X034531Y001824D01*
X034377Y001824D01*
X034301Y001747D01*
X034301Y001670D01*
X033261Y002145D02*
X033261Y002605D01*
X033030Y002375D01*
X033337Y002375D01*
X032877Y002375D02*
X032800Y002298D01*
X032570Y002298D01*
X032570Y002145D02*
X032570Y002605D01*
X032800Y002605D01*
X032877Y002529D01*
X032877Y002375D01*
X032723Y002298D02*
X032877Y002145D01*
X032877Y002895D02*
X032723Y003048D01*
X032800Y003048D02*
X032570Y003048D01*
X032570Y002895D02*
X032570Y003355D01*
X032800Y003355D01*
X032877Y003279D01*
X032877Y003125D01*
X032800Y003048D01*
X033030Y002972D02*
X033107Y002895D01*
X033261Y002895D01*
X033337Y002972D01*
X033337Y003125D01*
X033261Y003202D01*
X033184Y003202D01*
X033030Y003125D01*
X033030Y003355D01*
X033337Y003355D01*
X034377Y006363D02*
X034301Y006440D01*
X034377Y006363D02*
X034531Y006363D01*
X034608Y006440D01*
X034608Y006517D01*
X034531Y006593D01*
X034377Y006593D01*
X034301Y006670D01*
X034301Y006747D01*
X034377Y006824D01*
X034531Y006824D01*
X034608Y006747D01*
X034761Y006747D02*
X034838Y006824D01*
X034991Y006824D01*
X035068Y006747D01*
X035068Y006670D01*
X034761Y006363D01*
X035068Y006363D01*
X022355Y006501D02*
X022355Y006654D01*
X022278Y006731D01*
X022125Y006885D02*
X022125Y007192D01*
X022355Y007115D02*
X021895Y007115D01*
X022125Y006885D01*
X021971Y006731D02*
X021895Y006654D01*
X021895Y006501D01*
X021971Y006424D01*
X022278Y006424D01*
X022355Y006501D01*
X023135Y001341D02*
X023288Y001341D01*
X023211Y001341D02*
X023211Y000958D01*
X023135Y000881D01*
X023058Y000881D01*
X022981Y000958D01*
X023442Y000881D02*
X023749Y001188D01*
X023749Y001264D01*
X023672Y001341D01*
X023518Y001341D01*
X023442Y001264D01*
X023442Y000881D02*
X023749Y000881D01*
D12*
X002358Y000445D02*
X002297Y000507D01*
X001988Y000507D01*
X001988Y000322D01*
X002050Y000260D01*
X002173Y000260D01*
X002235Y000322D01*
X002235Y000507D01*
X002235Y000628D02*
X001988Y000628D01*
X001988Y000814D01*
X002050Y000875D01*
X002235Y000875D01*
X002173Y000997D02*
X002050Y000997D01*
X001988Y001058D01*
X001988Y001244D01*
X001865Y001244D02*
X002235Y001244D01*
X002235Y001058D01*
X002173Y000997D01*
X002358Y000445D02*
X002358Y000383D01*
D13*
X013969Y001943D02*
X014068Y001844D01*
X019382Y001844D01*
X019481Y001943D01*
X019481Y007061D01*
X019186Y007356D01*
X014068Y007356D01*
X013969Y007257D01*
X013969Y001943D01*
X018989Y006962D02*
X018991Y006981D01*
X018996Y007000D01*
X019006Y007016D01*
X019018Y007031D01*
X019033Y007043D01*
X019049Y007053D01*
X019068Y007058D01*
X019087Y007060D01*
X019106Y007058D01*
X019125Y007053D01*
X019141Y007043D01*
X019156Y007031D01*
X019168Y007016D01*
X019178Y007000D01*
X019183Y006981D01*
X019185Y006962D01*
X019183Y006943D01*
X019178Y006924D01*
X019168Y006908D01*
X019156Y006893D01*
X019141Y006881D01*
X019125Y006871D01*
X019106Y006866D01*
X019087Y006864D01*
X019068Y006866D01*
X019049Y006871D01*
X019033Y006881D01*
X019018Y006893D01*
X019006Y006908D01*
X018996Y006924D01*
X018991Y006943D01*
X018989Y006962D01*
D14*
X023975Y006970D02*
X023975Y005730D01*
X023977Y005707D01*
X023982Y005684D01*
X023991Y005662D01*
X024004Y005642D01*
X024019Y005624D01*
X024037Y005609D01*
X024057Y005596D01*
X024079Y005587D01*
X024102Y005582D01*
X024125Y005580D01*
X027825Y005580D02*
X027848Y005582D01*
X027871Y005587D01*
X027893Y005596D01*
X027913Y005609D01*
X027931Y005624D01*
X027946Y005642D01*
X027959Y005662D01*
X027968Y005684D01*
X027973Y005707D01*
X027975Y005730D01*
X027975Y006150D01*
X027975Y006550D01*
X027975Y006970D01*
X027973Y006993D01*
X027968Y007016D01*
X027959Y007038D01*
X027946Y007058D01*
X027931Y007076D01*
X027913Y007091D01*
X027893Y007104D01*
X027871Y007113D01*
X027848Y007118D01*
X027825Y007120D01*
X027975Y006550D02*
X027948Y006548D01*
X027921Y006543D01*
X027895Y006533D01*
X027871Y006521D01*
X027849Y006505D01*
X027829Y006487D01*
X027812Y006465D01*
X027797Y006442D01*
X027787Y006417D01*
X027779Y006391D01*
X027775Y006364D01*
X027775Y006336D01*
X027779Y006309D01*
X027787Y006283D01*
X027797Y006258D01*
X027812Y006235D01*
X027829Y006213D01*
X027849Y006195D01*
X027871Y006179D01*
X027895Y006167D01*
X027921Y006157D01*
X027948Y006152D01*
X027975Y006150D01*
X024125Y007120D02*
X024102Y007118D01*
X024079Y007113D01*
X024057Y007104D01*
X024037Y007091D01*
X024019Y007076D01*
X024004Y007058D01*
X023991Y007038D01*
X023982Y007016D01*
X023977Y006993D01*
X023975Y006970D01*
X030580Y008075D02*
X030582Y008098D01*
X030587Y008121D01*
X030596Y008143D01*
X030609Y008163D01*
X030624Y008181D01*
X030642Y008196D01*
X030662Y008209D01*
X030684Y008218D01*
X030707Y008223D01*
X030730Y008225D01*
X031970Y008225D01*
X031993Y008223D01*
X032016Y008218D01*
X032038Y008209D01*
X032058Y008196D01*
X032076Y008181D01*
X032091Y008163D01*
X032104Y008143D01*
X032113Y008121D01*
X032118Y008098D01*
X032120Y008075D01*
X032120Y004375D02*
X032118Y004352D01*
X032113Y004329D01*
X032104Y004307D01*
X032091Y004287D01*
X032076Y004269D01*
X032058Y004254D01*
X032038Y004241D01*
X032016Y004232D01*
X031993Y004227D01*
X031970Y004225D01*
X031550Y004225D01*
X031150Y004225D01*
X030730Y004225D01*
X030707Y004227D01*
X030684Y004232D01*
X030662Y004241D01*
X030642Y004254D01*
X030624Y004269D01*
X030609Y004287D01*
X030596Y004307D01*
X030587Y004329D01*
X030582Y004352D01*
X030580Y004375D01*
X031150Y004225D02*
X031152Y004252D01*
X031157Y004279D01*
X031167Y004305D01*
X031179Y004329D01*
X031195Y004351D01*
X031213Y004371D01*
X031235Y004388D01*
X031258Y004403D01*
X031283Y004413D01*
X031309Y004421D01*
X031336Y004425D01*
X031364Y004425D01*
X031391Y004421D01*
X031417Y004413D01*
X031442Y004403D01*
X031465Y004388D01*
X031487Y004371D01*
X031505Y004351D01*
X031521Y004329D01*
X031533Y004305D01*
X031543Y004279D01*
X031548Y004252D01*
X031550Y004225D01*
X011375Y003875D02*
X011375Y006575D01*
X011373Y006634D01*
X011367Y006692D01*
X011358Y006751D01*
X011344Y006808D01*
X011327Y006864D01*
X011306Y006919D01*
X011282Y006973D01*
X011254Y007025D01*
X011223Y007075D01*
X011189Y007123D01*
X011152Y007168D01*
X011111Y007211D01*
X011068Y007252D01*
X011023Y007289D01*
X010975Y007323D01*
X010925Y007354D01*
X010873Y007382D01*
X010819Y007406D01*
X010764Y007427D01*
X010708Y007444D01*
X010651Y007458D01*
X010592Y007467D01*
X010534Y007473D01*
X010475Y007475D01*
X010416Y007473D01*
X010358Y007467D01*
X010299Y007458D01*
X010242Y007444D01*
X010186Y007427D01*
X010131Y007406D01*
X010077Y007382D01*
X010025Y007354D01*
X009975Y007323D01*
X009927Y007289D01*
X009882Y007252D01*
X009839Y007211D01*
X009798Y007168D01*
X009761Y007123D01*
X009727Y007075D01*
X009696Y007025D01*
X009668Y006973D01*
X009644Y006919D01*
X009623Y006864D01*
X009606Y006808D01*
X009592Y006751D01*
X009583Y006692D01*
X009577Y006634D01*
X009575Y006575D01*
X009575Y003875D01*
X009577Y003816D01*
X009583Y003758D01*
X009592Y003699D01*
X009606Y003642D01*
X009623Y003586D01*
X009644Y003531D01*
X009668Y003477D01*
X009696Y003425D01*
X009727Y003375D01*
X009761Y003327D01*
X009798Y003282D01*
X009839Y003239D01*
X009882Y003198D01*
X009927Y003161D01*
X009975Y003127D01*
X010025Y003096D01*
X010077Y003068D01*
X010131Y003044D01*
X010186Y003023D01*
X010242Y003006D01*
X010299Y002992D01*
X010358Y002983D01*
X010416Y002977D01*
X010475Y002975D01*
X010534Y002977D01*
X010592Y002983D01*
X010651Y002992D01*
X010708Y003006D01*
X010764Y003023D01*
X010819Y003044D01*
X010873Y003068D01*
X010925Y003096D01*
X010975Y003127D01*
X011023Y003161D01*
X011068Y003198D01*
X011111Y003239D01*
X011152Y003282D01*
X011189Y003327D01*
X011223Y003375D01*
X011254Y003425D01*
X011282Y003477D01*
X011306Y003531D01*
X011327Y003586D01*
X011344Y003642D01*
X011358Y003699D01*
X011367Y003758D01*
X011373Y003816D01*
X011375Y003875D01*
X007100Y005730D02*
X007100Y006150D01*
X007100Y006550D01*
X007100Y006970D01*
X007098Y006993D01*
X007093Y007016D01*
X007084Y007038D01*
X007071Y007058D01*
X007056Y007076D01*
X007038Y007091D01*
X007018Y007104D01*
X006996Y007113D01*
X006973Y007118D01*
X006950Y007120D01*
X007100Y006550D02*
X007073Y006548D01*
X007046Y006543D01*
X007020Y006533D01*
X006996Y006521D01*
X006974Y006505D01*
X006954Y006487D01*
X006937Y006465D01*
X006922Y006442D01*
X006912Y006417D01*
X006904Y006391D01*
X006900Y006364D01*
X006900Y006336D01*
X006904Y006309D01*
X006912Y006283D01*
X006922Y006258D01*
X006937Y006235D01*
X006954Y006213D01*
X006974Y006195D01*
X006996Y006179D01*
X007020Y006167D01*
X007046Y006157D01*
X007073Y006152D01*
X007100Y006150D01*
X007100Y005730D02*
X007098Y005707D01*
X007093Y005684D01*
X007084Y005662D01*
X007071Y005642D01*
X007056Y005624D01*
X007038Y005609D01*
X007018Y005596D01*
X006996Y005587D01*
X006973Y005582D01*
X006950Y005580D01*
X003250Y005580D02*
X003227Y005582D01*
X003204Y005587D01*
X003182Y005596D01*
X003162Y005609D01*
X003144Y005624D01*
X003129Y005642D01*
X003116Y005662D01*
X003107Y005684D01*
X003102Y005707D01*
X003100Y005730D01*
X003100Y006970D01*
X003102Y006993D01*
X003107Y007016D01*
X003116Y007038D01*
X003129Y007058D01*
X003144Y007076D01*
X003162Y007091D01*
X003182Y007104D01*
X003204Y007113D01*
X003227Y007118D01*
X003250Y007120D01*
D15*
X003100Y006980D02*
X007100Y006980D01*
X009775Y006575D02*
X009775Y003875D01*
X009777Y003824D01*
X009782Y003773D01*
X009792Y003723D01*
X009805Y003673D01*
X009821Y003625D01*
X009841Y003578D01*
X009865Y003532D01*
X009891Y003489D01*
X009921Y003447D01*
X009954Y003408D01*
X009989Y003371D01*
X010027Y003337D01*
X010068Y003306D01*
X010110Y003277D01*
X010155Y003252D01*
X010201Y003231D01*
X010249Y003212D01*
X010298Y003198D01*
X010348Y003187D01*
X010398Y003179D01*
X010449Y003175D01*
X010501Y003175D01*
X010552Y003179D01*
X010602Y003187D01*
X010652Y003198D01*
X010701Y003212D01*
X010749Y003231D01*
X010795Y003252D01*
X010840Y003277D01*
X010882Y003306D01*
X010923Y003337D01*
X010961Y003371D01*
X010996Y003408D01*
X011029Y003447D01*
X011059Y003489D01*
X011085Y003532D01*
X011109Y003578D01*
X011129Y003625D01*
X011145Y003673D01*
X011158Y003723D01*
X011168Y003773D01*
X011173Y003824D01*
X011175Y003875D01*
X011175Y006575D01*
X011173Y006626D01*
X011168Y006677D01*
X011158Y006727D01*
X011145Y006777D01*
X011129Y006825D01*
X011109Y006872D01*
X011085Y006918D01*
X011059Y006961D01*
X011029Y007003D01*
X010996Y007042D01*
X010961Y007079D01*
X010923Y007113D01*
X010882Y007144D01*
X010840Y007173D01*
X010795Y007198D01*
X010749Y007219D01*
X010701Y007238D01*
X010652Y007252D01*
X010602Y007263D01*
X010552Y007271D01*
X010501Y007275D01*
X010449Y007275D01*
X010398Y007271D01*
X010348Y007263D01*
X010298Y007252D01*
X010249Y007238D01*
X010201Y007219D01*
X010155Y007198D01*
X010110Y007173D01*
X010068Y007144D01*
X010027Y007113D01*
X009989Y007079D01*
X009954Y007042D01*
X009921Y007003D01*
X009891Y006961D01*
X009865Y006918D01*
X009841Y006872D01*
X009821Y006825D01*
X009805Y006777D01*
X009792Y006727D01*
X009782Y006677D01*
X009777Y006626D01*
X009775Y006575D01*
X009179Y010559D02*
X009179Y010805D01*
X009376Y010805D01*
X008933Y010805D02*
X008933Y010608D01*
X008933Y010805D02*
X008736Y010805D01*
X008736Y010608D01*
X008441Y010608D02*
X008441Y010805D01*
X008244Y010805D01*
X008244Y010608D01*
X007948Y010608D02*
X007948Y010805D01*
X007752Y010805D01*
X007752Y010608D01*
X007456Y010608D02*
X007456Y010805D01*
X007259Y010805D01*
X007259Y010608D01*
X006964Y010608D02*
X006964Y010805D01*
X006767Y010805D01*
X006767Y010608D01*
X006521Y010559D02*
X006521Y010805D01*
X006324Y010805D01*
X006620Y011494D02*
X009080Y011494D01*
X009080Y011740D01*
X009179Y011740D01*
X009179Y011986D01*
X009326Y012133D01*
X009179Y011986D02*
X006521Y011986D01*
X006374Y012133D01*
X006521Y011986D02*
X006521Y011740D01*
X006620Y011740D01*
X006620Y011494D01*
X006521Y011740D02*
X006324Y011740D01*
X004376Y011740D02*
X004179Y011740D01*
X004179Y011986D01*
X004326Y012133D01*
X004179Y011986D02*
X001521Y011986D01*
X001374Y012133D01*
X001521Y011986D02*
X001521Y011740D01*
X001620Y011740D01*
X001620Y011494D01*
X004080Y011494D01*
X004080Y011740D01*
X004179Y011740D01*
X001521Y011740D02*
X001324Y011740D01*
X001324Y010805D02*
X001521Y010805D01*
X001521Y010559D01*
X001767Y010608D02*
X001767Y010805D01*
X001964Y010805D01*
X001964Y010608D01*
X002259Y010608D02*
X002259Y010805D01*
X002456Y010805D01*
X002456Y010608D01*
X002752Y010608D02*
X002752Y010805D01*
X002948Y010805D01*
X002948Y010608D01*
X003244Y010608D02*
X003244Y010805D01*
X003441Y010805D01*
X003441Y010608D01*
X003736Y010608D02*
X003736Y010805D01*
X003933Y010805D01*
X003933Y010608D01*
X004179Y010559D02*
X004179Y010805D01*
X004376Y010805D01*
X009179Y011740D02*
X009376Y011740D01*
X011324Y011740D02*
X011521Y011740D01*
X011521Y011986D01*
X011374Y012133D01*
X011521Y011986D02*
X014179Y011986D01*
X014326Y012133D01*
X014179Y011986D02*
X014179Y011740D01*
X014376Y011740D01*
X014179Y011740D02*
X014080Y011740D01*
X014080Y011494D01*
X011620Y011494D01*
X011620Y011740D01*
X011521Y011740D01*
X011521Y010805D02*
X011521Y010559D01*
X011767Y010608D02*
X011767Y010805D01*
X011964Y010805D01*
X011964Y010608D01*
X012259Y010608D02*
X012259Y010805D01*
X012456Y010805D01*
X012456Y010608D01*
X012752Y010608D02*
X012752Y010805D01*
X012948Y010805D01*
X012948Y010608D01*
X013244Y010608D02*
X013244Y010805D01*
X013441Y010805D01*
X013441Y010608D01*
X013736Y010608D02*
X013736Y010805D01*
X013933Y010805D01*
X013933Y010608D01*
X014179Y010559D02*
X014179Y010805D01*
X014376Y010805D01*
X016324Y010805D02*
X016521Y010805D01*
X016521Y010559D01*
X016767Y010608D02*
X016767Y010805D01*
X016964Y010805D01*
X016964Y010608D01*
X017259Y010608D02*
X017259Y010805D01*
X017456Y010805D01*
X017456Y010608D01*
X017752Y010608D02*
X017752Y010805D01*
X017948Y010805D01*
X017948Y010608D01*
X018244Y010608D02*
X018244Y010805D01*
X018441Y010805D01*
X018441Y010608D01*
X018736Y010608D02*
X018736Y010805D01*
X018933Y010805D01*
X018933Y010608D01*
X019179Y010559D02*
X019179Y010805D01*
X019376Y010805D01*
X021324Y010805D02*
X021521Y010805D01*
X021521Y010559D01*
X021767Y010608D02*
X021767Y010805D01*
X021964Y010805D01*
X021964Y010608D01*
X022259Y010608D02*
X022259Y010805D01*
X022456Y010805D01*
X022456Y010608D01*
X022752Y010608D02*
X022752Y010805D01*
X022948Y010805D01*
X022948Y010608D01*
X023244Y010608D02*
X023244Y010805D01*
X023441Y010805D01*
X023441Y010608D01*
X023736Y010608D02*
X023736Y010805D01*
X023933Y010805D01*
X023933Y010608D01*
X024179Y010559D02*
X024179Y010805D01*
X024376Y010805D01*
X026324Y010805D02*
X026521Y010805D01*
X026521Y010559D01*
X026767Y010608D02*
X026767Y010805D01*
X026964Y010805D01*
X026964Y010608D01*
X027259Y010608D02*
X027259Y010805D01*
X027456Y010805D01*
X027456Y010608D01*
X027752Y010608D02*
X027752Y010805D01*
X027948Y010805D01*
X027948Y010608D01*
X028244Y010608D02*
X028244Y010805D01*
X028441Y010805D01*
X028441Y010608D01*
X028736Y010608D02*
X028736Y010805D01*
X028933Y010805D01*
X028933Y010608D01*
X029179Y010559D02*
X029179Y010805D01*
X029376Y010805D01*
X029080Y011494D02*
X029080Y011740D01*
X029179Y011740D01*
X029179Y011986D01*
X029326Y012133D01*
X029179Y011986D02*
X026521Y011986D01*
X026374Y012133D01*
X026521Y011986D02*
X026521Y011740D01*
X026620Y011740D01*
X026620Y011494D01*
X029080Y011494D01*
X029179Y011740D02*
X029376Y011740D01*
X031324Y011740D02*
X031521Y011740D01*
X031521Y011986D01*
X031374Y012133D01*
X031521Y011986D02*
X034179Y011986D01*
X034326Y012133D01*
X034179Y011986D02*
X034179Y011740D01*
X034376Y011740D01*
X034179Y011740D02*
X034080Y011740D01*
X034080Y011494D01*
X031620Y011494D01*
X031620Y011740D01*
X031521Y011740D01*
X031521Y010805D02*
X031521Y010559D01*
X031767Y010608D02*
X031767Y010805D01*
X031964Y010805D01*
X031964Y010608D01*
X032259Y010608D02*
X032259Y010805D01*
X032456Y010805D01*
X032456Y010608D01*
X032752Y010608D02*
X032752Y010805D01*
X032948Y010805D01*
X032948Y010608D01*
X033244Y010608D02*
X033244Y010805D01*
X033441Y010805D01*
X033441Y010608D01*
X033736Y010608D02*
X033736Y010805D01*
X033933Y010805D01*
X033933Y010608D01*
X034179Y010559D02*
X034179Y010805D01*
X034376Y010805D01*
X031521Y010805D02*
X031324Y010805D01*
X035309Y009429D02*
X035555Y009429D01*
X035555Y009626D01*
X036244Y009330D02*
X036244Y006870D01*
X036490Y006870D01*
X036490Y006771D01*
X036736Y006771D01*
X036883Y006624D01*
X036736Y006771D02*
X036736Y009429D01*
X036883Y009576D01*
X036736Y009429D02*
X036490Y009429D01*
X036490Y009330D01*
X036244Y009330D01*
X036490Y009429D02*
X036490Y009626D01*
X035555Y009183D02*
X035555Y008986D01*
X035358Y008986D01*
X035358Y009183D02*
X035555Y009183D01*
X035555Y008691D02*
X035555Y008494D01*
X035358Y008494D01*
X035358Y008691D02*
X035555Y008691D01*
X035555Y008198D02*
X035555Y008002D01*
X035358Y008002D01*
X035358Y008198D02*
X035555Y008198D01*
X035555Y007706D02*
X035555Y007509D01*
X035358Y007509D01*
X035358Y007706D02*
X035555Y007706D01*
X035555Y007214D02*
X035555Y007017D01*
X035358Y007017D01*
X035358Y007214D02*
X035555Y007214D01*
X035555Y006771D02*
X035309Y006771D01*
X035555Y006771D02*
X035555Y006574D01*
X036490Y006574D02*
X036490Y006771D01*
X031980Y008225D02*
X031980Y004225D01*
X035309Y004429D02*
X035555Y004429D01*
X035555Y004626D01*
X036244Y004330D02*
X036244Y001870D01*
X036490Y001870D01*
X036490Y001771D01*
X036736Y001771D01*
X036883Y001624D01*
X036736Y001771D02*
X036736Y004429D01*
X036883Y004576D01*
X036736Y004429D02*
X036490Y004429D01*
X036490Y004330D01*
X036244Y004330D01*
X036490Y004429D02*
X036490Y004626D01*
X035555Y004183D02*
X035555Y003986D01*
X035358Y003986D01*
X035358Y004183D02*
X035555Y004183D01*
X035555Y003691D02*
X035555Y003494D01*
X035358Y003494D01*
X035358Y003691D02*
X035555Y003691D01*
X035555Y003198D02*
X035555Y003002D01*
X035358Y003002D01*
X035358Y003198D02*
X035555Y003198D01*
X035555Y002706D02*
X035555Y002509D01*
X035358Y002509D01*
X035358Y002706D02*
X035555Y002706D01*
X035555Y002214D02*
X035555Y002017D01*
X035358Y002017D01*
X035358Y002214D02*
X035555Y002214D01*
X035555Y001771D02*
X035309Y001771D01*
X035555Y001771D02*
X035555Y001574D01*
X036490Y001574D02*
X036490Y001771D01*
X027975Y006980D02*
X023975Y006980D01*
X011521Y010805D02*
X011324Y010805D01*
X016324Y011740D02*
X016521Y011740D01*
X016521Y011986D01*
X016374Y012133D01*
X016521Y011986D02*
X019179Y011986D01*
X019326Y012133D01*
X019179Y011986D02*
X019179Y011740D01*
X019376Y011740D01*
X019179Y011740D02*
X019080Y011740D01*
X019080Y011494D01*
X016620Y011494D01*
X016620Y011740D01*
X016521Y011740D01*
X021324Y011740D02*
X021521Y011740D01*
X021521Y011986D01*
X021374Y012133D01*
X021521Y011986D02*
X024179Y011986D01*
X024326Y012133D01*
X024179Y011986D02*
X024179Y011740D01*
X024376Y011740D01*
X024179Y011740D02*
X024080Y011740D01*
X024080Y011494D01*
X021620Y011494D01*
X021620Y011740D01*
X021521Y011740D01*
X026324Y011740D02*
X026521Y011740D01*
D16*
X028225Y006965D02*
X028150Y006890D01*
X028150Y006740D01*
X028225Y006665D01*
X028150Y006504D02*
X028525Y006504D01*
X028600Y006429D01*
X028600Y006279D01*
X028525Y006204D01*
X028150Y006204D01*
X028600Y006665D02*
X028300Y006965D01*
X028225Y006965D01*
X028600Y006965D02*
X028600Y006665D01*
X031204Y004050D02*
X031204Y003675D01*
X031279Y003600D01*
X031429Y003600D01*
X031504Y003675D01*
X031504Y004050D01*
X031665Y003900D02*
X031815Y004050D01*
X031815Y003600D01*
X031665Y003600D02*
X031965Y003600D01*
X028462Y002262D02*
X028462Y000688D01*
X023738Y000688D01*
X023738Y002262D01*
X028462Y002262D01*
X012025Y003750D02*
X011575Y004050D01*
X011725Y004210D02*
X011575Y004361D01*
X012025Y004361D01*
X012025Y004511D02*
X012025Y004210D01*
X012025Y004050D02*
X011575Y003750D01*
X007725Y006279D02*
X007650Y006204D01*
X007275Y006204D01*
X007725Y006279D02*
X007725Y006429D01*
X007650Y006504D01*
X007275Y006504D01*
X007350Y006665D02*
X007275Y006740D01*
X007275Y006890D01*
X007350Y006965D01*
X007425Y006965D01*
X007500Y006890D01*
X007575Y006965D01*
X007650Y006965D01*
X007725Y006890D01*
X007725Y006740D01*
X007650Y006665D01*
X007500Y006815D02*
X007500Y006890D01*
X001605Y005231D02*
X001605Y004930D01*
X001605Y005081D02*
X001155Y005081D01*
X001305Y004930D01*
X001155Y004770D02*
X001155Y004620D01*
X001155Y004695D02*
X001530Y004695D01*
X001605Y004620D01*
X001605Y004545D01*
X001530Y004470D01*
X006312Y000950D02*
X006462Y000950D01*
X006387Y000950D02*
X006387Y000500D01*
X006312Y000500D02*
X006462Y000500D01*
X006619Y000575D02*
X006694Y000500D01*
X006844Y000500D01*
X006919Y000575D01*
X007079Y000575D02*
X007154Y000500D01*
X007304Y000500D01*
X007379Y000575D01*
X007379Y000650D01*
X007304Y000725D01*
X007154Y000725D01*
X007079Y000800D01*
X007079Y000875D01*
X007154Y000950D01*
X007304Y000950D01*
X007379Y000875D01*
X007540Y000950D02*
X007765Y000950D01*
X007840Y000875D01*
X007840Y000725D01*
X007765Y000650D01*
X007540Y000650D01*
X007540Y000500D02*
X007540Y000950D01*
X006919Y000875D02*
X006844Y000950D01*
X006694Y000950D01*
X006619Y000875D01*
X006619Y000575D01*
D17*
X001850Y000600D02*
X001600Y000350D01*
X001100Y000350D01*
X000850Y000600D01*
X000850Y001100D01*
X001100Y001350D01*
X000850Y001600D01*
X000850Y002100D01*
X001100Y002350D01*
X000850Y002600D01*
X000850Y003100D01*
X001100Y003350D01*
X000850Y003600D01*
X000850Y004100D01*
X001100Y004350D01*
X001600Y004350D01*
X001850Y004100D01*
X001850Y003600D01*
X001600Y003350D01*
X001850Y003100D01*
X001850Y002600D01*
X001600Y002350D01*
X001850Y002100D01*
X001850Y001600D01*
X001600Y001350D01*
X001850Y001100D01*
X001850Y000600D01*
X001521Y010559D02*
X001315Y010559D01*
X001315Y012133D01*
X001374Y012133D01*
X004326Y012133D01*
X004385Y012133D01*
X004385Y010559D01*
X004179Y010559D01*
X001521Y010559D01*
X006315Y010559D02*
X006315Y012133D01*
X006374Y012133D01*
X009326Y012133D01*
X009385Y012133D01*
X009385Y010559D01*
X009179Y010559D01*
X006521Y010559D01*
X006315Y010559D01*
X011315Y010559D02*
X011315Y012133D01*
X011374Y012133D01*
X014326Y012133D01*
X014385Y012133D01*
X014385Y010559D01*
X014179Y010559D01*
X011521Y010559D01*
X011315Y010559D01*
X016315Y010559D02*
X016315Y012133D01*
X016374Y012133D01*
X019326Y012133D01*
X019385Y012133D01*
X019385Y010559D01*
X019179Y010559D01*
X016521Y010559D01*
X016315Y010559D01*
X021315Y010559D02*
X021315Y012133D01*
X021374Y012133D01*
X024326Y012133D01*
X024385Y012133D01*
X024385Y010559D01*
X024179Y010559D01*
X021521Y010559D01*
X021315Y010559D01*
X026315Y010559D02*
X026315Y012133D01*
X026374Y012133D01*
X029326Y012133D01*
X029385Y012133D01*
X029385Y010559D01*
X029179Y010559D01*
X026521Y010559D01*
X026315Y010559D01*
X031315Y010559D02*
X031315Y012133D01*
X031374Y012133D01*
X034326Y012133D01*
X034385Y012133D01*
X034385Y010559D01*
X034179Y010559D01*
X031521Y010559D01*
X031315Y010559D01*
X035309Y009635D02*
X035309Y009429D01*
X035309Y006771D01*
X035309Y006565D01*
X036883Y006565D01*
X036883Y006624D01*
X036883Y009576D01*
X036883Y009635D01*
X035309Y009635D01*
X035309Y004635D02*
X036883Y004635D01*
X036883Y004576D01*
X036883Y001624D01*
X036883Y001565D01*
X035309Y001565D01*
X035309Y001771D01*
X035309Y004429D01*
X035309Y004635D01*
D18*
X033834Y011666D03*
X033342Y011666D03*
X032850Y011666D03*
X032358Y011666D03*
X031866Y011666D03*
X028834Y011666D03*
X028342Y011666D03*
X027850Y011666D03*
X027358Y011666D03*
X026866Y011666D03*
X023834Y011666D03*
X023342Y011666D03*
X022850Y011666D03*
X022358Y011666D03*
X021866Y011666D03*
X018834Y011666D03*
X018342Y011666D03*
X017850Y011666D03*
X017358Y011666D03*
X016866Y011666D03*
X013834Y011666D03*
X013342Y011666D03*
X012850Y011666D03*
X012358Y011666D03*
X011866Y011666D03*
X008834Y011666D03*
X008342Y011666D03*
X007850Y011666D03*
X007358Y011666D03*
X006866Y011666D03*
X003834Y011666D03*
X003342Y011666D03*
X002850Y011666D03*
X002358Y011666D03*
X001866Y011666D03*
D19*
X036416Y009084D03*
X036416Y008592D03*
X036416Y008100D03*
X036416Y007608D03*
X036416Y007116D03*
X036416Y004084D03*
X036416Y003592D03*
X036416Y003100D03*
X036416Y002608D03*
X036416Y002116D03*
D20*
X030659Y002114D03*
X030659Y001836D03*
X030659Y001364D03*
X030659Y002586D03*
X030659Y002864D03*
X030659Y003336D03*
X009784Y001836D03*
X009784Y001364D03*
D21*
X009784Y001600D03*
X030659Y001600D03*
X030659Y002350D03*
X030659Y003100D03*
M02*
