G75*
G70*
%OFA0B0*%
%FSLAX24Y24*%
%IPPOS*%
%LPD*%
%AMOC8*
5,1,8,0,0,1.08239X$1,22.5*
%
%ADD10C,0.0000*%
%ADD11C,0.1340*%
%ADD12C,0.0631*%
%ADD13OC8,0.0600*%
%ADD14C,0.0640*%
%ADD15C,0.0516*%
D10*
X000100Y000100D02*
X000100Y015100D01*
X000100Y015096D02*
X015220Y015096D01*
X015220Y000100D01*
X000100Y000100D01*
X000720Y001350D02*
X000722Y001400D01*
X000728Y001450D01*
X000738Y001499D01*
X000752Y001547D01*
X000769Y001594D01*
X000790Y001639D01*
X000815Y001683D01*
X000843Y001724D01*
X000875Y001763D01*
X000909Y001800D01*
X000946Y001834D01*
X000986Y001864D01*
X001028Y001891D01*
X001072Y001915D01*
X001118Y001936D01*
X001165Y001952D01*
X001213Y001965D01*
X001263Y001974D01*
X001312Y001979D01*
X001363Y001980D01*
X001413Y001977D01*
X001462Y001970D01*
X001511Y001959D01*
X001559Y001944D01*
X001605Y001926D01*
X001650Y001904D01*
X001693Y001878D01*
X001734Y001849D01*
X001773Y001817D01*
X001809Y001782D01*
X001841Y001744D01*
X001871Y001704D01*
X001898Y001661D01*
X001921Y001617D01*
X001940Y001571D01*
X001956Y001523D01*
X001968Y001474D01*
X001976Y001425D01*
X001980Y001375D01*
X001980Y001325D01*
X001976Y001275D01*
X001968Y001226D01*
X001956Y001177D01*
X001940Y001129D01*
X001921Y001083D01*
X001898Y001039D01*
X001871Y000996D01*
X001841Y000956D01*
X001809Y000918D01*
X001773Y000883D01*
X001734Y000851D01*
X001693Y000822D01*
X001650Y000796D01*
X001605Y000774D01*
X001559Y000756D01*
X001511Y000741D01*
X001462Y000730D01*
X001413Y000723D01*
X001363Y000720D01*
X001312Y000721D01*
X001263Y000726D01*
X001213Y000735D01*
X001165Y000748D01*
X001118Y000764D01*
X001072Y000785D01*
X001028Y000809D01*
X000986Y000836D01*
X000946Y000866D01*
X000909Y000900D01*
X000875Y000937D01*
X000843Y000976D01*
X000815Y001017D01*
X000790Y001061D01*
X000769Y001106D01*
X000752Y001153D01*
X000738Y001201D01*
X000728Y001250D01*
X000722Y001300D01*
X000720Y001350D01*
X000720Y013850D02*
X000722Y013900D01*
X000728Y013950D01*
X000738Y013999D01*
X000752Y014047D01*
X000769Y014094D01*
X000790Y014139D01*
X000815Y014183D01*
X000843Y014224D01*
X000875Y014263D01*
X000909Y014300D01*
X000946Y014334D01*
X000986Y014364D01*
X001028Y014391D01*
X001072Y014415D01*
X001118Y014436D01*
X001165Y014452D01*
X001213Y014465D01*
X001263Y014474D01*
X001312Y014479D01*
X001363Y014480D01*
X001413Y014477D01*
X001462Y014470D01*
X001511Y014459D01*
X001559Y014444D01*
X001605Y014426D01*
X001650Y014404D01*
X001693Y014378D01*
X001734Y014349D01*
X001773Y014317D01*
X001809Y014282D01*
X001841Y014244D01*
X001871Y014204D01*
X001898Y014161D01*
X001921Y014117D01*
X001940Y014071D01*
X001956Y014023D01*
X001968Y013974D01*
X001976Y013925D01*
X001980Y013875D01*
X001980Y013825D01*
X001976Y013775D01*
X001968Y013726D01*
X001956Y013677D01*
X001940Y013629D01*
X001921Y013583D01*
X001898Y013539D01*
X001871Y013496D01*
X001841Y013456D01*
X001809Y013418D01*
X001773Y013383D01*
X001734Y013351D01*
X001693Y013322D01*
X001650Y013296D01*
X001605Y013274D01*
X001559Y013256D01*
X001511Y013241D01*
X001462Y013230D01*
X001413Y013223D01*
X001363Y013220D01*
X001312Y013221D01*
X001263Y013226D01*
X001213Y013235D01*
X001165Y013248D01*
X001118Y013264D01*
X001072Y013285D01*
X001028Y013309D01*
X000986Y013336D01*
X000946Y013366D01*
X000909Y013400D01*
X000875Y013437D01*
X000843Y013476D01*
X000815Y013517D01*
X000790Y013561D01*
X000769Y013606D01*
X000752Y013653D01*
X000738Y013701D01*
X000728Y013750D01*
X000722Y013800D01*
X000720Y013850D01*
X013220Y013850D02*
X013222Y013900D01*
X013228Y013950D01*
X013238Y013999D01*
X013252Y014047D01*
X013269Y014094D01*
X013290Y014139D01*
X013315Y014183D01*
X013343Y014224D01*
X013375Y014263D01*
X013409Y014300D01*
X013446Y014334D01*
X013486Y014364D01*
X013528Y014391D01*
X013572Y014415D01*
X013618Y014436D01*
X013665Y014452D01*
X013713Y014465D01*
X013763Y014474D01*
X013812Y014479D01*
X013863Y014480D01*
X013913Y014477D01*
X013962Y014470D01*
X014011Y014459D01*
X014059Y014444D01*
X014105Y014426D01*
X014150Y014404D01*
X014193Y014378D01*
X014234Y014349D01*
X014273Y014317D01*
X014309Y014282D01*
X014341Y014244D01*
X014371Y014204D01*
X014398Y014161D01*
X014421Y014117D01*
X014440Y014071D01*
X014456Y014023D01*
X014468Y013974D01*
X014476Y013925D01*
X014480Y013875D01*
X014480Y013825D01*
X014476Y013775D01*
X014468Y013726D01*
X014456Y013677D01*
X014440Y013629D01*
X014421Y013583D01*
X014398Y013539D01*
X014371Y013496D01*
X014341Y013456D01*
X014309Y013418D01*
X014273Y013383D01*
X014234Y013351D01*
X014193Y013322D01*
X014150Y013296D01*
X014105Y013274D01*
X014059Y013256D01*
X014011Y013241D01*
X013962Y013230D01*
X013913Y013223D01*
X013863Y013220D01*
X013812Y013221D01*
X013763Y013226D01*
X013713Y013235D01*
X013665Y013248D01*
X013618Y013264D01*
X013572Y013285D01*
X013528Y013309D01*
X013486Y013336D01*
X013446Y013366D01*
X013409Y013400D01*
X013375Y013437D01*
X013343Y013476D01*
X013315Y013517D01*
X013290Y013561D01*
X013269Y013606D01*
X013252Y013653D01*
X013238Y013701D01*
X013228Y013750D01*
X013222Y013800D01*
X013220Y013850D01*
X013220Y001350D02*
X013222Y001400D01*
X013228Y001450D01*
X013238Y001499D01*
X013252Y001547D01*
X013269Y001594D01*
X013290Y001639D01*
X013315Y001683D01*
X013343Y001724D01*
X013375Y001763D01*
X013409Y001800D01*
X013446Y001834D01*
X013486Y001864D01*
X013528Y001891D01*
X013572Y001915D01*
X013618Y001936D01*
X013665Y001952D01*
X013713Y001965D01*
X013763Y001974D01*
X013812Y001979D01*
X013863Y001980D01*
X013913Y001977D01*
X013962Y001970D01*
X014011Y001959D01*
X014059Y001944D01*
X014105Y001926D01*
X014150Y001904D01*
X014193Y001878D01*
X014234Y001849D01*
X014273Y001817D01*
X014309Y001782D01*
X014341Y001744D01*
X014371Y001704D01*
X014398Y001661D01*
X014421Y001617D01*
X014440Y001571D01*
X014456Y001523D01*
X014468Y001474D01*
X014476Y001425D01*
X014480Y001375D01*
X014480Y001325D01*
X014476Y001275D01*
X014468Y001226D01*
X014456Y001177D01*
X014440Y001129D01*
X014421Y001083D01*
X014398Y001039D01*
X014371Y000996D01*
X014341Y000956D01*
X014309Y000918D01*
X014273Y000883D01*
X014234Y000851D01*
X014193Y000822D01*
X014150Y000796D01*
X014105Y000774D01*
X014059Y000756D01*
X014011Y000741D01*
X013962Y000730D01*
X013913Y000723D01*
X013863Y000720D01*
X013812Y000721D01*
X013763Y000726D01*
X013713Y000735D01*
X013665Y000748D01*
X013618Y000764D01*
X013572Y000785D01*
X013528Y000809D01*
X013486Y000836D01*
X013446Y000866D01*
X013409Y000900D01*
X013375Y000937D01*
X013343Y000976D01*
X013315Y001017D01*
X013290Y001061D01*
X013269Y001106D01*
X013252Y001153D01*
X013238Y001201D01*
X013228Y001250D01*
X013222Y001300D01*
X013220Y001350D01*
D11*
X013850Y001350D03*
X001350Y001350D03*
X001350Y013850D03*
X013850Y013850D03*
D12*
X008600Y014100D03*
X007600Y014100D03*
X006600Y014100D03*
X001600Y004966D03*
X002100Y004100D03*
X002600Y003234D03*
X012600Y003234D03*
X013100Y004100D03*
X013600Y004966D03*
D13*
X011600Y004100D03*
X009100Y005350D03*
X008600Y004100D03*
X006600Y004100D03*
X006100Y005350D03*
X003600Y004100D03*
X002600Y008100D03*
X005600Y008100D03*
X004600Y011350D03*
X007600Y011350D03*
D14*
X007100Y008100D03*
X008100Y008100D03*
X008100Y007100D03*
X007100Y007100D03*
D15*
X007100Y001818D02*
X007100Y001382D01*
X006600Y001382D02*
X006600Y001818D01*
X007600Y001818D02*
X007600Y001382D01*
X008100Y001382D02*
X008100Y001818D01*
X008600Y001818D02*
X008600Y001382D01*
M02*
