%
M48
M72
T01C0.0236
T02C0.0315
T03C0.0320
T04C0.1260
%
T01
X6600Y1600
X7100Y1600
X7600Y1600
X8100Y1600
X8600Y1600
T02
X12600Y3234
X13100Y4100
X13600Y4966
X8100Y7100
X7100Y7100
X7100Y8100
X8100Y8100
X2600Y3234
X2100Y4100
X1600Y4966
X6600Y14100
X7600Y14100
X8600Y14100
T03
X7600Y11350
X4600Y11350
X5600Y8100
X6100Y5350
X6600Y4100
X8600Y4100
X9100Y5350
X11600Y4100
X3600Y4100
X2600Y8100
T04
X1350Y1350
X13850Y1350
X13850Y13850
X1350Y13850
M30
