%
M48
M72
T01C0.0315
T02C0.0320
T03C0.0400
T04C0.1260
%
T01
X2350Y2996
X1850Y3862
X1350Y4728
X6850Y6862
X6850Y7862
X7850Y7862
X7850Y6862
X12350Y2996
X12850Y3862
X13350Y4728
X8350Y13862
X7350Y13862
X6350Y13862
T02
X1850Y8862
X2850Y8862
X5225Y8862
X6350Y9862
X8350Y9862
X8350Y12862
X6350Y12862
X11850Y8862
X12850Y8862
X12850Y5862
X11850Y5862
X8850Y5112
X5850Y5112
X5225Y5862
X2850Y5862
X1850Y5862
T03
X5350Y1362
X6350Y1362
X7350Y1362
X8350Y1362
X9350Y1362
T04
X1100Y13612
X13600Y13612
X13600Y1112
X1100Y1112
M30
