G75*
%MOIN*%
%OFA0B0*%
%FSLAX24Y24*%
%IPPOS*%
%LPD*%
%AMOC8*
5,1,8,0,0,1.08239X$1,22.5*
%
%ADD10C,0.0000*%
%ADD11C,0.1340*%
%ADD12C,0.0631*%
%ADD13OC8,0.0600*%
%ADD14C,0.0640*%
%ADD15C,0.0820*%
D10*
X000100Y000112D02*
X000100Y014608D01*
X000100Y014612D01*
X000100Y014608D02*
X014595Y014608D01*
X014595Y000112D01*
X000100Y000112D01*
X000470Y001112D02*
X000472Y001162D01*
X000478Y001212D01*
X000488Y001261D01*
X000502Y001309D01*
X000519Y001356D01*
X000540Y001401D01*
X000565Y001445D01*
X000593Y001486D01*
X000625Y001525D01*
X000659Y001562D01*
X000696Y001596D01*
X000736Y001626D01*
X000778Y001653D01*
X000822Y001677D01*
X000868Y001698D01*
X000915Y001714D01*
X000963Y001727D01*
X001013Y001736D01*
X001062Y001741D01*
X001113Y001742D01*
X001163Y001739D01*
X001212Y001732D01*
X001261Y001721D01*
X001309Y001706D01*
X001355Y001688D01*
X001400Y001666D01*
X001443Y001640D01*
X001484Y001611D01*
X001523Y001579D01*
X001559Y001544D01*
X001591Y001506D01*
X001621Y001466D01*
X001648Y001423D01*
X001671Y001379D01*
X001690Y001333D01*
X001706Y001285D01*
X001718Y001236D01*
X001726Y001187D01*
X001730Y001137D01*
X001730Y001087D01*
X001726Y001037D01*
X001718Y000988D01*
X001706Y000939D01*
X001690Y000891D01*
X001671Y000845D01*
X001648Y000801D01*
X001621Y000758D01*
X001591Y000718D01*
X001559Y000680D01*
X001523Y000645D01*
X001484Y000613D01*
X001443Y000584D01*
X001400Y000558D01*
X001355Y000536D01*
X001309Y000518D01*
X001261Y000503D01*
X001212Y000492D01*
X001163Y000485D01*
X001113Y000482D01*
X001062Y000483D01*
X001013Y000488D01*
X000963Y000497D01*
X000915Y000510D01*
X000868Y000526D01*
X000822Y000547D01*
X000778Y000571D01*
X000736Y000598D01*
X000696Y000628D01*
X000659Y000662D01*
X000625Y000699D01*
X000593Y000738D01*
X000565Y000779D01*
X000540Y000823D01*
X000519Y000868D01*
X000502Y000915D01*
X000488Y000963D01*
X000478Y001012D01*
X000472Y001062D01*
X000470Y001112D01*
X000470Y013612D02*
X000472Y013662D01*
X000478Y013712D01*
X000488Y013761D01*
X000502Y013809D01*
X000519Y013856D01*
X000540Y013901D01*
X000565Y013945D01*
X000593Y013986D01*
X000625Y014025D01*
X000659Y014062D01*
X000696Y014096D01*
X000736Y014126D01*
X000778Y014153D01*
X000822Y014177D01*
X000868Y014198D01*
X000915Y014214D01*
X000963Y014227D01*
X001013Y014236D01*
X001062Y014241D01*
X001113Y014242D01*
X001163Y014239D01*
X001212Y014232D01*
X001261Y014221D01*
X001309Y014206D01*
X001355Y014188D01*
X001400Y014166D01*
X001443Y014140D01*
X001484Y014111D01*
X001523Y014079D01*
X001559Y014044D01*
X001591Y014006D01*
X001621Y013966D01*
X001648Y013923D01*
X001671Y013879D01*
X001690Y013833D01*
X001706Y013785D01*
X001718Y013736D01*
X001726Y013687D01*
X001730Y013637D01*
X001730Y013587D01*
X001726Y013537D01*
X001718Y013488D01*
X001706Y013439D01*
X001690Y013391D01*
X001671Y013345D01*
X001648Y013301D01*
X001621Y013258D01*
X001591Y013218D01*
X001559Y013180D01*
X001523Y013145D01*
X001484Y013113D01*
X001443Y013084D01*
X001400Y013058D01*
X001355Y013036D01*
X001309Y013018D01*
X001261Y013003D01*
X001212Y012992D01*
X001163Y012985D01*
X001113Y012982D01*
X001062Y012983D01*
X001013Y012988D01*
X000963Y012997D01*
X000915Y013010D01*
X000868Y013026D01*
X000822Y013047D01*
X000778Y013071D01*
X000736Y013098D01*
X000696Y013128D01*
X000659Y013162D01*
X000625Y013199D01*
X000593Y013238D01*
X000565Y013279D01*
X000540Y013323D01*
X000519Y013368D01*
X000502Y013415D01*
X000488Y013463D01*
X000478Y013512D01*
X000472Y013562D01*
X000470Y013612D01*
X012970Y013612D02*
X012972Y013662D01*
X012978Y013712D01*
X012988Y013761D01*
X013002Y013809D01*
X013019Y013856D01*
X013040Y013901D01*
X013065Y013945D01*
X013093Y013986D01*
X013125Y014025D01*
X013159Y014062D01*
X013196Y014096D01*
X013236Y014126D01*
X013278Y014153D01*
X013322Y014177D01*
X013368Y014198D01*
X013415Y014214D01*
X013463Y014227D01*
X013513Y014236D01*
X013562Y014241D01*
X013613Y014242D01*
X013663Y014239D01*
X013712Y014232D01*
X013761Y014221D01*
X013809Y014206D01*
X013855Y014188D01*
X013900Y014166D01*
X013943Y014140D01*
X013984Y014111D01*
X014023Y014079D01*
X014059Y014044D01*
X014091Y014006D01*
X014121Y013966D01*
X014148Y013923D01*
X014171Y013879D01*
X014190Y013833D01*
X014206Y013785D01*
X014218Y013736D01*
X014226Y013687D01*
X014230Y013637D01*
X014230Y013587D01*
X014226Y013537D01*
X014218Y013488D01*
X014206Y013439D01*
X014190Y013391D01*
X014171Y013345D01*
X014148Y013301D01*
X014121Y013258D01*
X014091Y013218D01*
X014059Y013180D01*
X014023Y013145D01*
X013984Y013113D01*
X013943Y013084D01*
X013900Y013058D01*
X013855Y013036D01*
X013809Y013018D01*
X013761Y013003D01*
X013712Y012992D01*
X013663Y012985D01*
X013613Y012982D01*
X013562Y012983D01*
X013513Y012988D01*
X013463Y012997D01*
X013415Y013010D01*
X013368Y013026D01*
X013322Y013047D01*
X013278Y013071D01*
X013236Y013098D01*
X013196Y013128D01*
X013159Y013162D01*
X013125Y013199D01*
X013093Y013238D01*
X013065Y013279D01*
X013040Y013323D01*
X013019Y013368D01*
X013002Y013415D01*
X012988Y013463D01*
X012978Y013512D01*
X012972Y013562D01*
X012970Y013612D01*
X012970Y001112D02*
X012972Y001162D01*
X012978Y001212D01*
X012988Y001261D01*
X013002Y001309D01*
X013019Y001356D01*
X013040Y001401D01*
X013065Y001445D01*
X013093Y001486D01*
X013125Y001525D01*
X013159Y001562D01*
X013196Y001596D01*
X013236Y001626D01*
X013278Y001653D01*
X013322Y001677D01*
X013368Y001698D01*
X013415Y001714D01*
X013463Y001727D01*
X013513Y001736D01*
X013562Y001741D01*
X013613Y001742D01*
X013663Y001739D01*
X013712Y001732D01*
X013761Y001721D01*
X013809Y001706D01*
X013855Y001688D01*
X013900Y001666D01*
X013943Y001640D01*
X013984Y001611D01*
X014023Y001579D01*
X014059Y001544D01*
X014091Y001506D01*
X014121Y001466D01*
X014148Y001423D01*
X014171Y001379D01*
X014190Y001333D01*
X014206Y001285D01*
X014218Y001236D01*
X014226Y001187D01*
X014230Y001137D01*
X014230Y001087D01*
X014226Y001037D01*
X014218Y000988D01*
X014206Y000939D01*
X014190Y000891D01*
X014171Y000845D01*
X014148Y000801D01*
X014121Y000758D01*
X014091Y000718D01*
X014059Y000680D01*
X014023Y000645D01*
X013984Y000613D01*
X013943Y000584D01*
X013900Y000558D01*
X013855Y000536D01*
X013809Y000518D01*
X013761Y000503D01*
X013712Y000492D01*
X013663Y000485D01*
X013613Y000482D01*
X013562Y000483D01*
X013513Y000488D01*
X013463Y000497D01*
X013415Y000510D01*
X013368Y000526D01*
X013322Y000547D01*
X013278Y000571D01*
X013236Y000598D01*
X013196Y000628D01*
X013159Y000662D01*
X013125Y000699D01*
X013093Y000738D01*
X013065Y000779D01*
X013040Y000823D01*
X013019Y000868D01*
X013002Y000915D01*
X012988Y000963D01*
X012978Y001012D01*
X012972Y001062D01*
X012970Y001112D01*
D11*
X013600Y001112D03*
X013600Y013612D03*
X001100Y013612D03*
X001100Y001112D03*
D12*
X002350Y002996D03*
X001850Y003862D03*
X001350Y004728D03*
X006350Y013862D03*
X007350Y013862D03*
X008350Y013862D03*
X013350Y004728D03*
X012850Y003862D03*
X012350Y002996D03*
D13*
X011850Y005862D03*
X012850Y005862D03*
X012850Y008862D03*
X011850Y008862D03*
X008350Y009862D03*
X006350Y009862D03*
X005225Y008862D03*
X002850Y008862D03*
X001850Y008862D03*
X001850Y005862D03*
X002850Y005862D03*
X005225Y005862D03*
X005850Y005112D03*
X008850Y005112D03*
X008350Y012862D03*
X006350Y012862D03*
D14*
X006850Y007862D03*
X007850Y007862D03*
X007850Y006862D03*
X006850Y006862D03*
D15*
X006350Y001362D03*
X005350Y001362D03*
X007350Y001362D03*
X008350Y001362D03*
X009350Y001362D03*
M02*
