G75*
%MOIN*%
%OFA0B0*%
%FSLAX24Y24*%
%IPPOS*%
%LPD*%
%AMOC8*
5,1,8,0,0,1.08239X$1,22.5*
%
%ADD10C,0.0000*%
%ADD11C,0.0040*%
%ADD12C,0.0100*%
%ADD13C,0.0060*%
%ADD14C,0.0050*%
%ADD15R,0.0200X0.0150*%
%ADD16R,0.0150X0.0200*%
%ADD17C,0.0020*%
%ADD18C,0.0080*%
D10*
X000100Y000112D02*
X000100Y014608D01*
X000100Y014612D01*
X000100Y014608D02*
X014595Y014608D01*
X014595Y000112D01*
X000100Y000112D01*
X000470Y001112D02*
X000472Y001162D01*
X000478Y001212D01*
X000488Y001261D01*
X000502Y001309D01*
X000519Y001356D01*
X000540Y001401D01*
X000565Y001445D01*
X000593Y001486D01*
X000625Y001525D01*
X000659Y001562D01*
X000696Y001596D01*
X000736Y001626D01*
X000778Y001653D01*
X000822Y001677D01*
X000868Y001698D01*
X000915Y001714D01*
X000963Y001727D01*
X001013Y001736D01*
X001062Y001741D01*
X001113Y001742D01*
X001163Y001739D01*
X001212Y001732D01*
X001261Y001721D01*
X001309Y001706D01*
X001355Y001688D01*
X001400Y001666D01*
X001443Y001640D01*
X001484Y001611D01*
X001523Y001579D01*
X001559Y001544D01*
X001591Y001506D01*
X001621Y001466D01*
X001648Y001423D01*
X001671Y001379D01*
X001690Y001333D01*
X001706Y001285D01*
X001718Y001236D01*
X001726Y001187D01*
X001730Y001137D01*
X001730Y001087D01*
X001726Y001037D01*
X001718Y000988D01*
X001706Y000939D01*
X001690Y000891D01*
X001671Y000845D01*
X001648Y000801D01*
X001621Y000758D01*
X001591Y000718D01*
X001559Y000680D01*
X001523Y000645D01*
X001484Y000613D01*
X001443Y000584D01*
X001400Y000558D01*
X001355Y000536D01*
X001309Y000518D01*
X001261Y000503D01*
X001212Y000492D01*
X001163Y000485D01*
X001113Y000482D01*
X001062Y000483D01*
X001013Y000488D01*
X000963Y000497D01*
X000915Y000510D01*
X000868Y000526D01*
X000822Y000547D01*
X000778Y000571D01*
X000736Y000598D01*
X000696Y000628D01*
X000659Y000662D01*
X000625Y000699D01*
X000593Y000738D01*
X000565Y000779D01*
X000540Y000823D01*
X000519Y000868D01*
X000502Y000915D01*
X000488Y000963D01*
X000478Y001012D01*
X000472Y001062D01*
X000470Y001112D01*
X000470Y013612D02*
X000472Y013662D01*
X000478Y013712D01*
X000488Y013761D01*
X000502Y013809D01*
X000519Y013856D01*
X000540Y013901D01*
X000565Y013945D01*
X000593Y013986D01*
X000625Y014025D01*
X000659Y014062D01*
X000696Y014096D01*
X000736Y014126D01*
X000778Y014153D01*
X000822Y014177D01*
X000868Y014198D01*
X000915Y014214D01*
X000963Y014227D01*
X001013Y014236D01*
X001062Y014241D01*
X001113Y014242D01*
X001163Y014239D01*
X001212Y014232D01*
X001261Y014221D01*
X001309Y014206D01*
X001355Y014188D01*
X001400Y014166D01*
X001443Y014140D01*
X001484Y014111D01*
X001523Y014079D01*
X001559Y014044D01*
X001591Y014006D01*
X001621Y013966D01*
X001648Y013923D01*
X001671Y013879D01*
X001690Y013833D01*
X001706Y013785D01*
X001718Y013736D01*
X001726Y013687D01*
X001730Y013637D01*
X001730Y013587D01*
X001726Y013537D01*
X001718Y013488D01*
X001706Y013439D01*
X001690Y013391D01*
X001671Y013345D01*
X001648Y013301D01*
X001621Y013258D01*
X001591Y013218D01*
X001559Y013180D01*
X001523Y013145D01*
X001484Y013113D01*
X001443Y013084D01*
X001400Y013058D01*
X001355Y013036D01*
X001309Y013018D01*
X001261Y013003D01*
X001212Y012992D01*
X001163Y012985D01*
X001113Y012982D01*
X001062Y012983D01*
X001013Y012988D01*
X000963Y012997D01*
X000915Y013010D01*
X000868Y013026D01*
X000822Y013047D01*
X000778Y013071D01*
X000736Y013098D01*
X000696Y013128D01*
X000659Y013162D01*
X000625Y013199D01*
X000593Y013238D01*
X000565Y013279D01*
X000540Y013323D01*
X000519Y013368D01*
X000502Y013415D01*
X000488Y013463D01*
X000478Y013512D01*
X000472Y013562D01*
X000470Y013612D01*
X012970Y013612D02*
X012972Y013662D01*
X012978Y013712D01*
X012988Y013761D01*
X013002Y013809D01*
X013019Y013856D01*
X013040Y013901D01*
X013065Y013945D01*
X013093Y013986D01*
X013125Y014025D01*
X013159Y014062D01*
X013196Y014096D01*
X013236Y014126D01*
X013278Y014153D01*
X013322Y014177D01*
X013368Y014198D01*
X013415Y014214D01*
X013463Y014227D01*
X013513Y014236D01*
X013562Y014241D01*
X013613Y014242D01*
X013663Y014239D01*
X013712Y014232D01*
X013761Y014221D01*
X013809Y014206D01*
X013855Y014188D01*
X013900Y014166D01*
X013943Y014140D01*
X013984Y014111D01*
X014023Y014079D01*
X014059Y014044D01*
X014091Y014006D01*
X014121Y013966D01*
X014148Y013923D01*
X014171Y013879D01*
X014190Y013833D01*
X014206Y013785D01*
X014218Y013736D01*
X014226Y013687D01*
X014230Y013637D01*
X014230Y013587D01*
X014226Y013537D01*
X014218Y013488D01*
X014206Y013439D01*
X014190Y013391D01*
X014171Y013345D01*
X014148Y013301D01*
X014121Y013258D01*
X014091Y013218D01*
X014059Y013180D01*
X014023Y013145D01*
X013984Y013113D01*
X013943Y013084D01*
X013900Y013058D01*
X013855Y013036D01*
X013809Y013018D01*
X013761Y013003D01*
X013712Y012992D01*
X013663Y012985D01*
X013613Y012982D01*
X013562Y012983D01*
X013513Y012988D01*
X013463Y012997D01*
X013415Y013010D01*
X013368Y013026D01*
X013322Y013047D01*
X013278Y013071D01*
X013236Y013098D01*
X013196Y013128D01*
X013159Y013162D01*
X013125Y013199D01*
X013093Y013238D01*
X013065Y013279D01*
X013040Y013323D01*
X013019Y013368D01*
X013002Y013415D01*
X012988Y013463D01*
X012978Y013512D01*
X012972Y013562D01*
X012970Y013612D01*
X012970Y001112D02*
X012972Y001162D01*
X012978Y001212D01*
X012988Y001261D01*
X013002Y001309D01*
X013019Y001356D01*
X013040Y001401D01*
X013065Y001445D01*
X013093Y001486D01*
X013125Y001525D01*
X013159Y001562D01*
X013196Y001596D01*
X013236Y001626D01*
X013278Y001653D01*
X013322Y001677D01*
X013368Y001698D01*
X013415Y001714D01*
X013463Y001727D01*
X013513Y001736D01*
X013562Y001741D01*
X013613Y001742D01*
X013663Y001739D01*
X013712Y001732D01*
X013761Y001721D01*
X013809Y001706D01*
X013855Y001688D01*
X013900Y001666D01*
X013943Y001640D01*
X013984Y001611D01*
X014023Y001579D01*
X014059Y001544D01*
X014091Y001506D01*
X014121Y001466D01*
X014148Y001423D01*
X014171Y001379D01*
X014190Y001333D01*
X014206Y001285D01*
X014218Y001236D01*
X014226Y001187D01*
X014230Y001137D01*
X014230Y001087D01*
X014226Y001037D01*
X014218Y000988D01*
X014206Y000939D01*
X014190Y000891D01*
X014171Y000845D01*
X014148Y000801D01*
X014121Y000758D01*
X014091Y000718D01*
X014059Y000680D01*
X014023Y000645D01*
X013984Y000613D01*
X013943Y000584D01*
X013900Y000558D01*
X013855Y000536D01*
X013809Y000518D01*
X013761Y000503D01*
X013712Y000492D01*
X013663Y000485D01*
X013613Y000482D01*
X013562Y000483D01*
X013513Y000488D01*
X013463Y000497D01*
X013415Y000510D01*
X013368Y000526D01*
X013322Y000547D01*
X013278Y000571D01*
X013236Y000598D01*
X013196Y000628D01*
X013159Y000662D01*
X013125Y000699D01*
X013093Y000738D01*
X013065Y000779D01*
X013040Y000823D01*
X013019Y000868D01*
X013002Y000915D01*
X012988Y000963D01*
X012978Y001012D01*
X012972Y001062D01*
X012970Y001112D01*
D11*
X012177Y003007D02*
X011870Y003007D01*
X012177Y003314D01*
X012177Y003390D01*
X012100Y003467D01*
X011947Y003467D01*
X011870Y003390D01*
X011716Y003467D02*
X011716Y003160D01*
X011563Y003007D01*
X011410Y003160D01*
X011410Y003467D01*
X010796Y003237D02*
X010796Y003160D01*
X010489Y003160D01*
X010489Y003083D02*
X010489Y003237D01*
X010565Y003314D01*
X010719Y003314D01*
X010796Y003237D01*
X010719Y003007D02*
X010565Y003007D01*
X010489Y003083D01*
X010335Y003314D02*
X010259Y003314D01*
X010105Y003160D01*
X010105Y003007D02*
X010105Y003314D01*
X009952Y003237D02*
X009952Y003007D01*
X009721Y003007D01*
X009645Y003083D01*
X009721Y003160D01*
X009952Y003160D01*
X009952Y003237D02*
X009875Y003314D01*
X009721Y003314D01*
X009491Y003314D02*
X009491Y003007D01*
X009261Y003007D01*
X009184Y003083D01*
X009184Y003314D01*
X009031Y003314D02*
X008801Y003314D01*
X008724Y003237D01*
X008724Y003083D01*
X008801Y003007D01*
X009031Y003007D01*
X009031Y002853D02*
X009031Y003314D01*
X008570Y003390D02*
X008494Y003467D01*
X008340Y003467D01*
X008264Y003390D01*
X008264Y003314D01*
X008340Y003237D01*
X008494Y003237D01*
X008570Y003160D01*
X008570Y003083D01*
X008494Y003007D01*
X008340Y003007D01*
X008264Y003083D01*
X008340Y002717D02*
X008494Y002717D01*
X008570Y002640D01*
X008570Y002564D01*
X008494Y002487D01*
X008570Y002410D01*
X008570Y002333D01*
X008494Y002257D01*
X008340Y002257D01*
X008264Y002333D01*
X008110Y002257D02*
X007803Y002257D01*
X007957Y002257D02*
X007957Y002717D01*
X007803Y002564D01*
X007650Y002640D02*
X007343Y002333D01*
X007419Y002257D01*
X007573Y002257D01*
X007650Y002333D01*
X007650Y002640D01*
X007573Y002717D01*
X007419Y002717D01*
X007343Y002640D01*
X007343Y002333D01*
X007189Y002257D02*
X006882Y002257D01*
X007189Y002564D01*
X007189Y002640D01*
X007113Y002717D01*
X006959Y002717D01*
X006882Y002640D01*
X006729Y002640D02*
X006729Y002487D01*
X006652Y002410D01*
X006652Y002564D01*
X006499Y002564D01*
X006499Y002410D01*
X006652Y002410D01*
X006729Y002333D02*
X006652Y002257D01*
X006499Y002257D01*
X006422Y002333D01*
X006422Y002640D01*
X006499Y002717D01*
X006652Y002717D01*
X006729Y002640D01*
X006729Y003007D02*
X006652Y003083D01*
X006652Y003390D01*
X006575Y003314D02*
X006729Y003314D01*
X006882Y003237D02*
X006882Y003083D01*
X006959Y003007D01*
X007113Y003007D01*
X007189Y003083D01*
X007189Y003237D01*
X007113Y003314D01*
X006959Y003314D01*
X006882Y003237D01*
X007343Y003237D02*
X007343Y003083D01*
X007419Y003007D01*
X007573Y003007D01*
X007650Y003160D02*
X007343Y003160D01*
X007343Y003237D02*
X007419Y003314D01*
X007573Y003314D01*
X007650Y003237D01*
X007650Y003160D01*
X008264Y002640D02*
X008340Y002717D01*
X008417Y002487D02*
X008494Y002487D01*
X008244Y004232D02*
X008011Y004232D01*
X008244Y004465D01*
X008244Y004524D01*
X008186Y004582D01*
X008069Y004582D01*
X008011Y004524D01*
X007885Y004524D02*
X007885Y004407D01*
X007827Y004348D01*
X007652Y004348D01*
X007652Y004232D02*
X007652Y004582D01*
X007827Y004582D01*
X007885Y004524D01*
X007769Y004348D02*
X007885Y004232D01*
X006422Y003314D02*
X006192Y003314D01*
X006115Y003237D01*
X006115Y003083D01*
X006192Y003007D01*
X006422Y003007D01*
X006268Y002717D02*
X006268Y002333D01*
X006192Y002257D01*
X006038Y002257D01*
X005962Y002333D01*
X005962Y002717D01*
X005808Y002717D02*
X005501Y002717D01*
X005501Y002257D01*
X005348Y002333D02*
X005348Y002640D01*
X005271Y002717D01*
X005118Y002717D01*
X005041Y002640D01*
X005041Y002333D01*
X005118Y002257D01*
X005271Y002257D01*
X005348Y002333D01*
X005501Y002487D02*
X005655Y002487D01*
X005731Y003007D02*
X005655Y003083D01*
X005731Y003160D01*
X005962Y003160D01*
X005962Y003237D02*
X005962Y003007D01*
X005731Y003007D01*
X005501Y003007D02*
X005424Y003083D01*
X005424Y003390D01*
X005348Y003314D02*
X005501Y003314D01*
X005731Y003314D02*
X005885Y003314D01*
X005962Y003237D01*
X005194Y003314D02*
X004964Y003314D01*
X004887Y003237D01*
X004887Y003083D01*
X004964Y003007D01*
X005194Y003007D01*
X004887Y002717D02*
X004887Y002257D01*
X004887Y002487D02*
X004580Y002487D01*
X004580Y002257D02*
X004580Y002717D01*
X004427Y002717D02*
X004120Y002717D01*
X004273Y002717D02*
X004273Y002257D01*
X004523Y001592D02*
X004523Y001132D01*
X004370Y001132D02*
X004677Y001132D01*
X004370Y001439D02*
X004523Y001592D01*
X004580Y003007D02*
X004734Y003007D01*
X004657Y003007D02*
X004657Y003314D01*
X004580Y003314D01*
X004657Y003467D02*
X004657Y003544D01*
X004427Y003467D02*
X004120Y003467D01*
X004273Y003467D02*
X004273Y003007D01*
X004345Y006382D02*
X004345Y006557D01*
X004403Y006615D01*
X004520Y006615D01*
X004578Y006557D01*
X004578Y006382D01*
X004578Y006498D02*
X004695Y006615D01*
X004695Y006741D02*
X004695Y006974D01*
X004695Y006858D02*
X004345Y006858D01*
X004461Y006741D01*
X004345Y006382D02*
X004695Y006382D01*
X003695Y006382D02*
X003345Y006382D01*
X003345Y006557D01*
X003403Y006615D01*
X003520Y006615D01*
X003578Y006557D01*
X003578Y006382D01*
X003578Y006498D02*
X003695Y006615D01*
X003637Y006741D02*
X003695Y006799D01*
X003695Y006916D01*
X003637Y006974D01*
X003578Y006974D01*
X003520Y006916D01*
X003520Y006858D01*
X003520Y006916D02*
X003461Y006974D01*
X003403Y006974D01*
X003345Y006916D01*
X003345Y006799D01*
X003403Y006741D01*
X001320Y006615D02*
X001203Y006498D01*
X001203Y006557D02*
X001203Y006382D01*
X001320Y006382D02*
X000970Y006382D01*
X000970Y006557D01*
X001028Y006615D01*
X001145Y006615D01*
X001203Y006557D01*
X001145Y006741D02*
X001145Y006974D01*
X001320Y006916D02*
X000970Y006916D01*
X001145Y006741D01*
X006880Y010288D02*
X006880Y010464D01*
X006938Y010522D01*
X007055Y010522D01*
X007113Y010464D01*
X007113Y010288D01*
X007230Y010288D02*
X006880Y010288D01*
X007113Y010405D02*
X007230Y010522D01*
X007172Y010648D02*
X007113Y010648D01*
X007055Y010706D01*
X007055Y010823D01*
X007113Y010881D01*
X007172Y010881D01*
X007230Y010823D01*
X007230Y010706D01*
X007172Y010648D01*
X007055Y010706D02*
X006996Y010648D01*
X006938Y010648D01*
X006880Y010706D01*
X006880Y010823D01*
X006938Y010881D01*
X006996Y010881D01*
X007055Y010823D01*
X007505Y010881D02*
X007505Y010648D01*
X007563Y010522D02*
X007680Y010522D01*
X007738Y010464D01*
X007738Y010288D01*
X007855Y010288D02*
X007505Y010288D01*
X007505Y010464D01*
X007563Y010522D01*
X007738Y010405D02*
X007855Y010522D01*
X007855Y010648D02*
X007797Y010648D01*
X007563Y010881D01*
X007505Y010881D01*
X010970Y006974D02*
X011028Y006858D01*
X011145Y006741D01*
X011145Y006916D01*
X011203Y006974D01*
X011262Y006974D01*
X011320Y006916D01*
X011320Y006799D01*
X011262Y006741D01*
X011145Y006741D01*
X011145Y006615D02*
X011203Y006557D01*
X011203Y006382D01*
X011203Y006498D02*
X011320Y006615D01*
X011320Y006382D02*
X010970Y006382D01*
X010970Y006557D01*
X011028Y006615D01*
X011145Y006615D01*
X013345Y006557D02*
X013345Y006382D01*
X013695Y006382D01*
X013578Y006382D02*
X013578Y006557D01*
X013520Y006615D01*
X013403Y006615D01*
X013345Y006557D01*
X013345Y006741D02*
X013520Y006741D01*
X013461Y006858D01*
X013461Y006916D01*
X013520Y006974D01*
X013637Y006974D01*
X013695Y006916D01*
X013695Y006799D01*
X013637Y006741D01*
X013695Y006615D02*
X013578Y006498D01*
X013345Y006741D02*
X013345Y006974D01*
D12*
X012563Y004605D02*
X012063Y003739D01*
X013270Y003181D02*
X013317Y003213D01*
X013362Y003247D01*
X013404Y003285D01*
X013443Y003325D01*
X013480Y003369D01*
X013513Y003414D01*
X013543Y003462D01*
X013569Y003511D01*
X013591Y003561D01*
X013610Y003613D01*
X013626Y003666D01*
X013637Y003720D01*
X013645Y003774D01*
X013649Y003829D01*
X013650Y003884D01*
X007769Y013181D02*
X007721Y013153D01*
X007672Y013129D01*
X007620Y013109D01*
X007568Y013092D01*
X007514Y013079D01*
X007460Y013070D01*
X007405Y013064D01*
X007350Y013062D01*
X007294Y013064D01*
X007237Y013070D01*
X007182Y013080D01*
X007127Y013094D01*
X007074Y013111D01*
X007021Y013133D01*
X006971Y013158D01*
X006850Y014482D02*
X007850Y014482D01*
X002137Y004605D02*
X002637Y003739D01*
X001157Y003462D02*
X001131Y003512D01*
X001108Y003563D01*
X001089Y003617D01*
X001073Y003671D01*
X001062Y003726D01*
X001054Y003782D01*
X001050Y003838D01*
X001157Y003462D02*
X001186Y003415D01*
X001219Y003371D01*
X001254Y003328D01*
X001292Y003288D01*
X001333Y003251D01*
X001376Y003217D01*
X001422Y003186D01*
X001470Y003158D01*
D13*
X001661Y003293D02*
X001616Y003310D01*
X001572Y003330D01*
X001530Y003355D01*
X001490Y003382D01*
X001452Y003413D01*
X001417Y003446D01*
X001385Y003482D01*
X001356Y003521D01*
X001330Y003562D01*
X001309Y003603D01*
X001290Y003645D01*
X001275Y003689D01*
X001264Y003734D01*
X001256Y003780D01*
X001251Y003826D01*
X001250Y003872D01*
X001253Y003918D01*
X001259Y003964D01*
X001550Y004382D02*
X001592Y004404D01*
X001636Y004422D01*
X001681Y004438D01*
X001727Y004449D01*
X001774Y004457D01*
X001821Y004461D01*
X001869Y004462D01*
X001916Y004458D01*
X001963Y004451D01*
X002009Y004440D01*
X002054Y004426D01*
X002098Y004408D01*
X001550Y004382D02*
X001511Y004357D01*
X001474Y004329D01*
X001439Y004299D01*
X001406Y004266D01*
X001376Y004230D01*
X001349Y004193D01*
X001325Y004153D01*
X001304Y004112D01*
X001287Y004069D01*
X001272Y004025D01*
X001262Y003980D01*
X001254Y003934D01*
X001624Y003306D02*
X001667Y003291D01*
X001711Y003278D01*
X001755Y003270D01*
X001800Y003264D01*
X001846Y003262D01*
X001891Y003263D01*
X001936Y003268D01*
X001981Y003277D01*
X002025Y003288D01*
X002068Y003303D01*
X002110Y003321D01*
X002150Y003342D01*
X002188Y003367D01*
X002225Y003394D01*
X002259Y003423D01*
X002291Y003456D01*
X002321Y003490D01*
X002348Y003527D01*
X002372Y003566D01*
X002393Y003606D01*
X002411Y003648D01*
X002425Y003691D01*
X002436Y003735D01*
X002444Y003780D01*
X002550Y006362D02*
X003150Y006362D01*
X003167Y006364D01*
X003184Y006368D01*
X003200Y006375D01*
X003214Y006385D01*
X003227Y006398D01*
X003237Y006412D01*
X003244Y006428D01*
X003248Y006445D01*
X003250Y006462D01*
X003250Y006612D01*
X003200Y006662D01*
X003200Y008062D01*
X003250Y008112D01*
X003250Y008262D01*
X003248Y008279D01*
X003244Y008296D01*
X003237Y008312D01*
X003227Y008326D01*
X003214Y008339D01*
X003200Y008349D01*
X003184Y008356D01*
X003167Y008360D01*
X003150Y008362D01*
X002550Y008362D01*
X002533Y008360D01*
X002516Y008356D01*
X002500Y008349D01*
X002486Y008339D01*
X002473Y008326D01*
X002463Y008312D01*
X002456Y008296D01*
X002452Y008279D01*
X002450Y008262D01*
X002450Y008112D01*
X002500Y008062D01*
X002500Y006662D01*
X002450Y006612D01*
X002450Y006462D01*
X002452Y006445D01*
X002456Y006428D01*
X002463Y006412D01*
X002473Y006398D01*
X002486Y006385D01*
X002500Y006375D01*
X002516Y006368D01*
X002533Y006364D01*
X002550Y006362D01*
X002250Y006462D02*
X002250Y006612D01*
X002200Y006662D01*
X002200Y008062D01*
X002250Y008112D01*
X002250Y008262D01*
X002248Y008279D01*
X002244Y008296D01*
X002237Y008312D01*
X002227Y008326D01*
X002214Y008339D01*
X002200Y008349D01*
X002184Y008356D01*
X002167Y008360D01*
X002150Y008362D01*
X001550Y008362D01*
X001533Y008360D01*
X001516Y008356D01*
X001500Y008349D01*
X001486Y008339D01*
X001473Y008326D01*
X001463Y008312D01*
X001456Y008296D01*
X001452Y008279D01*
X001450Y008262D01*
X001450Y008112D01*
X001500Y008062D01*
X001500Y006662D01*
X001450Y006612D01*
X001450Y006462D01*
X001452Y006445D01*
X001456Y006428D01*
X001463Y006412D01*
X001473Y006398D01*
X001486Y006385D01*
X001500Y006375D01*
X001516Y006368D01*
X001533Y006364D01*
X001550Y006362D01*
X002150Y006362D01*
X002167Y006364D01*
X002184Y006368D01*
X002200Y006375D01*
X002214Y006385D01*
X002227Y006398D01*
X002237Y006412D01*
X002244Y006428D01*
X002248Y006445D01*
X002250Y006462D01*
X004825Y006462D02*
X004825Y006612D01*
X004875Y006662D01*
X004875Y008062D01*
X004825Y008112D01*
X004825Y008262D01*
X004827Y008279D01*
X004831Y008296D01*
X004838Y008312D01*
X004848Y008326D01*
X004861Y008339D01*
X004875Y008349D01*
X004891Y008356D01*
X004908Y008360D01*
X004925Y008362D01*
X005525Y008362D01*
X005542Y008360D01*
X005559Y008356D01*
X005575Y008349D01*
X005589Y008339D01*
X005602Y008326D01*
X005612Y008312D01*
X005619Y008296D01*
X005623Y008279D01*
X005625Y008262D01*
X005625Y008112D01*
X005575Y008062D01*
X005575Y006662D01*
X005625Y006612D01*
X005625Y006462D01*
X005623Y006445D01*
X005619Y006428D01*
X005612Y006412D01*
X005602Y006398D01*
X005589Y006385D01*
X005575Y006375D01*
X005559Y006368D01*
X005542Y006364D01*
X005525Y006362D01*
X004925Y006362D01*
X004908Y006364D01*
X004891Y006368D01*
X004875Y006375D01*
X004861Y006385D01*
X004848Y006398D01*
X004838Y006412D01*
X004831Y006428D01*
X004827Y006445D01*
X004825Y006462D01*
X005956Y005818D02*
X005956Y008930D01*
X006050Y010362D02*
X006650Y010362D01*
X006667Y010364D01*
X006684Y010368D01*
X006700Y010375D01*
X006714Y010385D01*
X006727Y010398D01*
X006737Y010412D01*
X006744Y010428D01*
X006748Y010445D01*
X006750Y010462D01*
X006750Y010612D01*
X006700Y010662D01*
X006700Y012062D01*
X006750Y012112D01*
X006750Y012262D01*
X006748Y012279D01*
X006744Y012296D01*
X006737Y012312D01*
X006727Y012326D01*
X006714Y012339D01*
X006700Y012349D01*
X006684Y012356D01*
X006667Y012360D01*
X006650Y012362D01*
X006050Y012362D01*
X006033Y012360D01*
X006016Y012356D01*
X006000Y012349D01*
X005986Y012339D01*
X005973Y012326D01*
X005963Y012312D01*
X005956Y012296D01*
X005952Y012279D01*
X005950Y012262D01*
X005950Y012112D01*
X006000Y012062D01*
X006000Y010662D01*
X005950Y010612D01*
X005950Y010462D01*
X005952Y010445D01*
X005956Y010428D01*
X005963Y010412D01*
X005973Y010398D01*
X005986Y010385D01*
X006000Y010375D01*
X006016Y010368D01*
X006033Y010364D01*
X006050Y010362D01*
X007950Y010462D02*
X007950Y010612D01*
X008000Y010662D01*
X008000Y012062D01*
X007950Y012112D01*
X007950Y012262D01*
X007952Y012279D01*
X007956Y012296D01*
X007963Y012312D01*
X007973Y012326D01*
X007986Y012339D01*
X008000Y012349D01*
X008016Y012356D01*
X008033Y012360D01*
X008050Y012362D01*
X008650Y012362D01*
X008667Y012360D01*
X008684Y012356D01*
X008700Y012349D01*
X008714Y012339D01*
X008727Y012326D01*
X008737Y012312D01*
X008744Y012296D01*
X008748Y012279D01*
X008750Y012262D01*
X008750Y012112D01*
X008700Y012062D01*
X008700Y010662D01*
X008750Y010612D01*
X008750Y010462D01*
X008748Y010445D01*
X008744Y010428D01*
X008737Y010412D01*
X008727Y010398D01*
X008714Y010385D01*
X008700Y010375D01*
X008684Y010368D01*
X008667Y010364D01*
X008650Y010362D01*
X008050Y010362D01*
X008033Y010364D01*
X008016Y010368D01*
X008000Y010375D01*
X007986Y010385D01*
X007973Y010398D01*
X007963Y010412D01*
X007956Y010428D01*
X007952Y010445D01*
X007950Y010462D01*
X008744Y008905D02*
X008744Y005818D01*
X008350Y005412D02*
X008350Y004812D01*
X008348Y004795D01*
X008344Y004778D01*
X008337Y004762D01*
X008327Y004748D01*
X008314Y004735D01*
X008300Y004725D01*
X008284Y004718D01*
X008267Y004714D01*
X008250Y004712D01*
X008100Y004712D01*
X008050Y004762D01*
X006650Y004762D01*
X006600Y004712D01*
X006450Y004712D01*
X006433Y004714D01*
X006416Y004718D01*
X006400Y004725D01*
X006386Y004735D01*
X006373Y004748D01*
X006363Y004762D01*
X006356Y004778D01*
X006352Y004795D01*
X006350Y004812D01*
X006350Y005412D01*
X006352Y005429D01*
X006356Y005446D01*
X006363Y005462D01*
X006373Y005476D01*
X006386Y005489D01*
X006400Y005499D01*
X006416Y005506D01*
X006433Y005510D01*
X006450Y005512D01*
X006600Y005512D01*
X006650Y005462D01*
X008050Y005462D01*
X008100Y005512D01*
X008250Y005512D01*
X008267Y005510D01*
X008284Y005506D01*
X008300Y005499D01*
X008314Y005489D01*
X008327Y005476D01*
X008337Y005462D01*
X008344Y005446D01*
X008348Y005429D01*
X008350Y005412D01*
X011450Y006462D02*
X011450Y006612D01*
X011500Y006662D01*
X011500Y008062D01*
X011450Y008112D01*
X011450Y008262D01*
X011452Y008279D01*
X011456Y008296D01*
X011463Y008312D01*
X011473Y008326D01*
X011486Y008339D01*
X011500Y008349D01*
X011516Y008356D01*
X011533Y008360D01*
X011550Y008362D01*
X012150Y008362D01*
X012167Y008360D01*
X012184Y008356D01*
X012200Y008349D01*
X012214Y008339D01*
X012227Y008326D01*
X012237Y008312D01*
X012244Y008296D01*
X012248Y008279D01*
X012250Y008262D01*
X012250Y008112D01*
X012200Y008062D01*
X012200Y006662D01*
X012250Y006612D01*
X012250Y006462D01*
X012248Y006445D01*
X012244Y006428D01*
X012237Y006412D01*
X012227Y006398D01*
X012214Y006385D01*
X012200Y006375D01*
X012184Y006368D01*
X012167Y006364D01*
X012150Y006362D01*
X011550Y006362D01*
X011533Y006364D01*
X011516Y006368D01*
X011500Y006375D01*
X011486Y006385D01*
X011473Y006398D01*
X011463Y006412D01*
X011456Y006428D01*
X011452Y006445D01*
X011450Y006462D01*
X012450Y006462D02*
X012450Y006612D01*
X012500Y006662D01*
X012500Y008062D01*
X012450Y008112D01*
X012450Y008262D01*
X012452Y008279D01*
X012456Y008296D01*
X012463Y008312D01*
X012473Y008326D01*
X012486Y008339D01*
X012500Y008349D01*
X012516Y008356D01*
X012533Y008360D01*
X012550Y008362D01*
X013150Y008362D01*
X013167Y008360D01*
X013184Y008356D01*
X013200Y008349D01*
X013214Y008339D01*
X013227Y008326D01*
X013237Y008312D01*
X013244Y008296D01*
X013248Y008279D01*
X013250Y008262D01*
X013250Y008112D01*
X013200Y008062D01*
X013200Y006662D01*
X013250Y006612D01*
X013250Y006462D01*
X013248Y006445D01*
X013244Y006428D01*
X013237Y006412D01*
X013227Y006398D01*
X013214Y006385D01*
X013200Y006375D01*
X013184Y006368D01*
X013167Y006364D01*
X013150Y006362D01*
X012550Y006362D01*
X012533Y006364D01*
X012516Y006368D01*
X012500Y006375D01*
X012486Y006385D01*
X012473Y006398D01*
X012463Y006412D01*
X012456Y006428D01*
X012452Y006445D01*
X012450Y006462D01*
X012624Y004418D02*
X012667Y004433D01*
X012711Y004446D01*
X012755Y004454D01*
X012800Y004460D01*
X012846Y004462D01*
X012891Y004461D01*
X012936Y004456D01*
X012981Y004447D01*
X013025Y004436D01*
X013068Y004421D01*
X013110Y004403D01*
X013150Y004382D01*
X013438Y003983D02*
X013446Y003935D01*
X013449Y003887D01*
X013450Y003838D01*
X013446Y003790D01*
X013438Y003742D01*
X013426Y003695D01*
X013411Y003649D01*
X013392Y003605D01*
X013370Y003562D01*
X013345Y003523D01*
X013317Y003486D01*
X013287Y003451D01*
X013254Y003418D01*
X013218Y003388D01*
X013181Y003361D01*
X013141Y003337D01*
X013100Y003317D01*
X013057Y003299D01*
X012550Y003342D02*
X012510Y003368D01*
X012472Y003396D01*
X012436Y003428D01*
X012403Y003462D01*
X012373Y003498D01*
X012345Y003537D01*
X012321Y003578D01*
X012301Y003621D01*
X012283Y003665D01*
X012269Y003711D01*
X012259Y003757D01*
X012253Y003804D01*
X012550Y003342D02*
X012591Y003321D01*
X012634Y003302D01*
X012677Y003287D01*
X012722Y003276D01*
X012768Y003268D01*
X012814Y003263D01*
X012860Y003262D01*
X012907Y003265D01*
X012953Y003271D01*
X012998Y003281D01*
X013042Y003294D01*
X013086Y003310D01*
X013444Y003944D02*
X013436Y003989D01*
X013425Y004033D01*
X013411Y004076D01*
X013393Y004118D01*
X013372Y004158D01*
X013348Y004197D01*
X013321Y004234D01*
X013291Y004268D01*
X013259Y004301D01*
X013225Y004330D01*
X013188Y004357D01*
X013150Y004382D01*
X007749Y013414D02*
X007711Y013383D01*
X007671Y013355D01*
X007629Y013331D01*
X007586Y013310D01*
X007540Y013293D01*
X007494Y013280D01*
X007446Y013270D01*
X007398Y013264D01*
X007350Y013262D01*
X007304Y013264D01*
X007258Y013269D01*
X007212Y013278D01*
X007168Y013290D01*
X007124Y013306D01*
X007082Y013325D01*
X007041Y013347D01*
X007003Y013373D01*
X006966Y013401D01*
X006750Y013862D02*
X006752Y013909D01*
X006758Y013957D01*
X006767Y014003D01*
X006780Y014049D01*
X006796Y014093D01*
X006817Y014137D01*
X006840Y014178D01*
X006866Y014217D01*
X006896Y014254D01*
X006929Y014289D01*
X006964Y014321D01*
X007001Y014350D01*
X006750Y013862D02*
X006752Y013816D01*
X006757Y013770D01*
X006766Y013724D01*
X006778Y013679D01*
X006794Y013636D01*
X006813Y013594D01*
X006836Y013553D01*
X006861Y013514D01*
X006889Y013478D01*
X006920Y013443D01*
X006954Y013411D01*
X006990Y013382D01*
X007718Y013388D02*
X007753Y013418D01*
X007786Y013449D01*
X007816Y013484D01*
X007843Y013520D01*
X007867Y013558D01*
X007889Y013598D01*
X007907Y013640D01*
X007923Y013683D01*
X007935Y013727D01*
X007943Y013771D01*
X007948Y013817D01*
X007950Y013862D01*
X007948Y013907D01*
X007943Y013953D01*
X007935Y013997D01*
X007923Y014041D01*
X007907Y014084D01*
X007889Y014126D01*
X007867Y014166D01*
X007843Y014204D01*
X007816Y014240D01*
X007786Y014275D01*
X007753Y014306D01*
X007718Y014336D01*
D14*
X007500Y012943D02*
X007425Y012943D01*
X007350Y012868D01*
X007350Y012793D01*
X007350Y012868D02*
X007275Y012943D01*
X007200Y012943D01*
X007125Y012868D01*
X007125Y012718D01*
X007200Y012643D01*
X007200Y012483D02*
X007125Y012408D01*
X007125Y012182D01*
X007575Y012182D01*
X007575Y012408D01*
X007500Y012483D01*
X007200Y012483D01*
X007500Y012643D02*
X007575Y012718D01*
X007575Y012868D01*
X007500Y012943D01*
X007575Y012022D02*
X007575Y011722D01*
X007125Y011722D01*
X007125Y012022D01*
X007350Y011872D02*
X007350Y011722D01*
X007575Y011562D02*
X007575Y011262D01*
X007125Y011262D01*
X007171Y009506D02*
X007171Y009431D01*
X007021Y009281D01*
X007021Y009055D01*
X007153Y008936D02*
X005972Y008936D01*
X006025Y009055D02*
X006175Y009055D01*
X006250Y009130D01*
X006410Y009055D02*
X006410Y009506D01*
X006711Y009055D01*
X006711Y009506D01*
X006871Y009506D02*
X006871Y009431D01*
X007021Y009281D01*
X007331Y009130D02*
X007331Y009055D01*
X007331Y009130D02*
X007631Y009431D01*
X007631Y009506D01*
X007331Y009506D01*
X007792Y009431D02*
X007792Y009130D01*
X008092Y009431D01*
X008092Y009130D01*
X008017Y009055D01*
X007867Y009055D01*
X007792Y009130D01*
X007792Y009431D02*
X007867Y009506D01*
X008017Y009506D01*
X008092Y009431D01*
X007547Y008936D02*
X008728Y008936D01*
X007547Y008936D02*
X007547Y008740D01*
X007153Y008740D01*
X007153Y008936D01*
X006250Y009431D02*
X006175Y009506D01*
X006025Y009506D01*
X005950Y009431D01*
X005950Y009130D01*
X006025Y009055D01*
X007153Y005984D02*
X007547Y005984D01*
X007547Y005787D01*
X008728Y005787D01*
X007153Y005787D02*
X005972Y005787D01*
X007153Y005787D02*
X007153Y005984D01*
X003348Y003852D02*
X002958Y003627D01*
X002883Y003757D02*
X003033Y003497D01*
X003143Y003907D02*
X003348Y003852D01*
X003128Y004083D02*
X003155Y004186D01*
X003043Y004381D01*
X002653Y004156D01*
X002765Y003961D01*
X002868Y003933D01*
X003128Y004083D01*
X002963Y004519D02*
X002812Y004779D01*
X002422Y004554D01*
X002572Y004294D01*
X002692Y004537D02*
X002617Y004667D01*
X002342Y004693D02*
X002192Y004953D01*
X002582Y005178D01*
X008649Y000367D02*
X008724Y000292D01*
X008799Y000292D01*
X008874Y000367D01*
X008874Y000742D01*
X008799Y000742D02*
X008949Y000742D01*
X009109Y000742D02*
X009334Y000742D01*
X009409Y000667D01*
X009409Y000517D01*
X009334Y000442D01*
X009109Y000442D01*
X009109Y000292D02*
X009109Y000742D01*
X009570Y000592D02*
X009720Y000742D01*
X009720Y000292D01*
X009570Y000292D02*
X009870Y000292D01*
X011725Y003570D02*
X011875Y003830D01*
X011955Y003969D02*
X012105Y004229D01*
X012185Y004367D02*
X012298Y004562D01*
X012270Y004665D01*
X012010Y004815D01*
X011908Y004787D01*
X011795Y004592D01*
X012185Y004367D01*
X011835Y004211D02*
X011760Y004081D01*
X011955Y003969D02*
X011565Y004194D01*
X011715Y004454D01*
X012090Y004954D02*
X012063Y005056D01*
X012138Y005186D01*
X012241Y005214D01*
X012306Y005176D01*
X012415Y004766D01*
X012566Y005026D01*
X011725Y003570D02*
X011335Y003795D01*
D15*
X011850Y006287D03*
X012850Y006287D03*
X012850Y008437D03*
X011850Y008437D03*
X008350Y010287D03*
X006350Y010287D03*
X005225Y008437D03*
X005225Y006287D03*
X002850Y006287D03*
X001850Y006287D03*
X001850Y008437D03*
X002850Y008437D03*
X006350Y012437D03*
X008350Y012437D03*
D16*
X008425Y005112D03*
X006275Y005112D03*
D17*
X008935Y005691D02*
X009008Y005765D01*
X008935Y005838D01*
X009155Y005838D01*
X009118Y005912D02*
X009081Y005949D01*
X009081Y006059D01*
X009045Y006059D02*
X009155Y006059D01*
X009155Y005949D01*
X009118Y005912D01*
X009008Y005949D02*
X009008Y006022D01*
X009045Y006059D01*
X009081Y006133D02*
X009008Y006207D01*
X009008Y006243D01*
X008935Y006317D02*
X009155Y006317D01*
X009081Y006317D02*
X009008Y006428D01*
X009008Y006502D02*
X009008Y006538D01*
X009155Y006538D01*
X009155Y006502D02*
X009155Y006575D01*
X009155Y006649D02*
X009008Y006649D01*
X009008Y006759D01*
X009045Y006796D01*
X009155Y006796D01*
X009118Y006870D02*
X009155Y006907D01*
X009155Y007017D01*
X009192Y007017D02*
X009008Y007017D01*
X009008Y006907D01*
X009045Y006870D01*
X009118Y006870D01*
X009228Y006943D02*
X009228Y006980D01*
X009192Y007017D01*
X009155Y007312D02*
X009008Y007312D01*
X008935Y007385D01*
X009008Y007459D01*
X009155Y007459D01*
X009155Y007533D02*
X009008Y007533D01*
X009008Y007606D02*
X009008Y007643D01*
X009008Y007606D02*
X009081Y007533D01*
X009045Y007459D02*
X009045Y007312D01*
X009045Y007717D02*
X009008Y007754D01*
X009008Y007827D01*
X009045Y007864D01*
X009081Y007864D01*
X009081Y007717D01*
X009045Y007717D02*
X009118Y007717D01*
X009155Y007754D01*
X009155Y007827D01*
X009118Y007938D02*
X009081Y007975D01*
X009081Y008085D01*
X009045Y008085D02*
X009155Y008085D01*
X009155Y007975D01*
X009118Y007938D01*
X009008Y007975D02*
X009008Y008048D01*
X009045Y008085D01*
X008935Y006538D02*
X008898Y006538D01*
X009155Y006428D02*
X009081Y006317D01*
X009008Y006133D02*
X009155Y006133D01*
X009155Y005691D02*
X008935Y005691D01*
D18*
X009100Y001862D02*
X009600Y001862D01*
X009850Y001612D01*
X009850Y001112D01*
X009600Y000862D01*
X009100Y000862D01*
X008850Y001112D01*
X008600Y000862D01*
X008100Y000862D01*
X007850Y001112D01*
X007600Y000862D01*
X007100Y000862D01*
X006850Y001112D01*
X006600Y000862D01*
X006100Y000862D01*
X005850Y001112D01*
X005600Y000862D01*
X005100Y000862D01*
X004850Y001112D01*
X004850Y001612D01*
X005100Y001862D01*
X005600Y001862D01*
X005850Y001612D01*
X006100Y001862D01*
X006600Y001862D01*
X006850Y001612D01*
X007100Y001862D01*
X007600Y001862D01*
X007850Y001612D01*
X008100Y001862D01*
X008600Y001862D01*
X008850Y001612D01*
X009100Y001862D01*
M02*
